G04 #@! TF.FileFunction,Copper,L1,Top,Signal*
%FSLAX46Y46*%
G04 Gerber Fmt 4.6, Leading zero omitted, Abs format (unit mm)*
G04 Created by KiCad (PCBNEW 4.0.1-stable) date 3/24/2016 2:30:21 AM*
%MOMM*%
G01*
G04 APERTURE LIST*
%ADD10C,0.200000*%
%ADD11C,1.524000*%
%ADD12R,1.524000X1.524000*%
%ADD13C,2.540000*%
%ADD14R,1.500000X1.300000*%
%ADD15R,2.032000X2.032000*%
%ADD16O,2.032000X2.032000*%
%ADD17R,1.727200X1.727200*%
%ADD18O,1.727200X1.727200*%
%ADD19C,1.727200*%
%ADD20C,1.998980*%
%ADD21R,1.198880X1.198880*%
%ADD22C,0.800000*%
%ADD23C,0.508000*%
%ADD24C,0.254000*%
%ADD25C,0.250000*%
G04 APERTURE END LIST*
D10*
D11*
X154305000Y-95885000D03*
D12*
X156845000Y-100965000D03*
D11*
X156845000Y-98425000D03*
X156845000Y-95885000D03*
X156845000Y-93345000D03*
X156845000Y-90805000D03*
D13*
X135255000Y-92075000D03*
X140335000Y-99695000D03*
D14*
X153750000Y-87630000D03*
X151050000Y-87630000D03*
D15*
X129540000Y-116840000D03*
D16*
X132080000Y-116840000D03*
D15*
X129540000Y-113030000D03*
D16*
X132080000Y-113030000D03*
D15*
X129540000Y-109220000D03*
D16*
X132080000Y-109220000D03*
D15*
X129540000Y-105410000D03*
D16*
X132080000Y-105410000D03*
D17*
X167640000Y-103505000D03*
D18*
X165100000Y-103505000D03*
X167640000Y-100965000D03*
X165100000Y-100965000D03*
X167640000Y-98425000D03*
X165100000Y-98425000D03*
X167640000Y-95885000D03*
D19*
X165100000Y-95885000D02*
X165100000Y-95885000D01*
D18*
X167640000Y-93345000D03*
X165100000Y-93345000D03*
D15*
X167640000Y-90170000D03*
D16*
X165100000Y-90170000D03*
D20*
X143510000Y-116840000D03*
X153670000Y-116840000D03*
X143510000Y-113030000D03*
X153670000Y-113030000D03*
X143510000Y-109220000D03*
X153670000Y-109220000D03*
X143510000Y-105410000D03*
X153670000Y-105410000D03*
D21*
X159605980Y-103505000D03*
X161704020Y-103505000D03*
D14*
X162005000Y-105410000D03*
X159305000Y-105410000D03*
D22*
X163830000Y-105410000D03*
X152400000Y-102870000D03*
D23*
X153750000Y-87630000D02*
X153750000Y-92790000D01*
X153750000Y-92790000D02*
X156845000Y-95885000D01*
X162005000Y-105410000D02*
X163830000Y-105410000D01*
D24*
X151050000Y-87630000D02*
X151050000Y-92630000D01*
X151050000Y-92630000D02*
X154305000Y-95885000D01*
X156845000Y-100965000D02*
X165100000Y-100965000D01*
X156845000Y-98425000D02*
X165100000Y-98425000D01*
D23*
X161704020Y-103505000D02*
X160596578Y-102397560D01*
X160596578Y-102397560D02*
X158587440Y-102397560D01*
X129540000Y-105410000D02*
X129540000Y-103886000D01*
X129540000Y-103886000D02*
X130556000Y-102870000D01*
X130556000Y-102870000D02*
X151765000Y-102870000D01*
X151765000Y-102870000D02*
X152400000Y-102870000D01*
X158587440Y-102397560D02*
X158115000Y-102870000D01*
X158115000Y-102870000D02*
X152400000Y-102870000D01*
X129540000Y-113030000D02*
X129540000Y-116840000D01*
X129540000Y-109220000D02*
X129540000Y-113030000D01*
X129540000Y-105410000D02*
X129540000Y-109220000D01*
X161704020Y-103505000D02*
X165100000Y-103505000D01*
D25*
X143510000Y-116840000D02*
X144834491Y-118164491D01*
X166315509Y-118164491D02*
X171450000Y-113030000D01*
X144834491Y-118164491D02*
X166315509Y-118164491D01*
X171450000Y-113030000D02*
X171450000Y-99695000D01*
X171450000Y-99695000D02*
X167640000Y-95885000D01*
X132080000Y-116840000D02*
X143510000Y-116840000D01*
X143510000Y-113030000D02*
X145415000Y-114935000D01*
X145415000Y-114935000D02*
X167640000Y-114935000D01*
X167640000Y-114935000D02*
X170815000Y-111760000D01*
X170815000Y-111760000D02*
X170815000Y-101600000D01*
X170815000Y-101600000D02*
X167640000Y-98425000D01*
X132080000Y-113030000D02*
X143510000Y-113030000D01*
X143510000Y-109220000D02*
X145415000Y-111125000D01*
X165100000Y-113665000D02*
X167640000Y-113665000D01*
X167640000Y-113665000D02*
X170180000Y-111125000D01*
X145415000Y-111125000D02*
X162560000Y-111125000D01*
X162560000Y-111125000D02*
X165100000Y-113665000D01*
X170180000Y-103505000D02*
X168503599Y-101828599D01*
X168503599Y-101828599D02*
X167640000Y-100965000D01*
X170180000Y-111125000D02*
X170180000Y-103505000D01*
X134620000Y-106680000D02*
X140970000Y-106680000D01*
X140970000Y-106680000D02*
X143510000Y-109220000D01*
X132080000Y-109220000D02*
X134620000Y-106680000D01*
X143510000Y-105410000D02*
X145415000Y-107315000D01*
X145415000Y-107315000D02*
X163830000Y-107315000D01*
X163830000Y-107315000D02*
X167640000Y-103505000D01*
X132080000Y-105410000D02*
X143510000Y-105410000D01*
D24*
X167640000Y-93345000D02*
X167640000Y-90170000D01*
X159605980Y-103505000D02*
X159605980Y-105109020D01*
X159605980Y-105109020D02*
X159305000Y-105410000D01*
D23*
X156845000Y-93345000D02*
X165100000Y-93345000D01*
D24*
G36*
X173514094Y-76822888D02*
X174187293Y-77272707D01*
X174637112Y-77945906D01*
X174804000Y-78784911D01*
X174804000Y-116795089D01*
X174637112Y-117634094D01*
X174187293Y-118307293D01*
X173514094Y-118757112D01*
X172675089Y-118924000D01*
X129584911Y-118924000D01*
X128745906Y-118757112D01*
X128072707Y-118307293D01*
X127622888Y-117634094D01*
X127456000Y-116795089D01*
X127456000Y-104394000D01*
X128135536Y-104394000D01*
X128135536Y-106426000D01*
X128162103Y-106567190D01*
X128245546Y-106696865D01*
X128372866Y-106783859D01*
X128524000Y-106814464D01*
X128905000Y-106814464D01*
X128905000Y-107815536D01*
X128524000Y-107815536D01*
X128382810Y-107842103D01*
X128253135Y-107925546D01*
X128166141Y-108052866D01*
X128135536Y-108204000D01*
X128135536Y-110236000D01*
X128162103Y-110377190D01*
X128245546Y-110506865D01*
X128372866Y-110593859D01*
X128524000Y-110624464D01*
X128905000Y-110624464D01*
X128905000Y-111625536D01*
X128524000Y-111625536D01*
X128382810Y-111652103D01*
X128253135Y-111735546D01*
X128166141Y-111862866D01*
X128135536Y-112014000D01*
X128135536Y-114046000D01*
X128162103Y-114187190D01*
X128245546Y-114316865D01*
X128372866Y-114403859D01*
X128524000Y-114434464D01*
X128905000Y-114434464D01*
X128905000Y-115435536D01*
X128524000Y-115435536D01*
X128382810Y-115462103D01*
X128253135Y-115545546D01*
X128166141Y-115672866D01*
X128135536Y-115824000D01*
X128135536Y-117856000D01*
X128162103Y-117997190D01*
X128245546Y-118126865D01*
X128372866Y-118213859D01*
X128524000Y-118244464D01*
X130556000Y-118244464D01*
X130697190Y-118217897D01*
X130826865Y-118134454D01*
X130913859Y-118007134D01*
X130944464Y-117856000D01*
X130944464Y-117647728D01*
X131064803Y-117827828D01*
X131518022Y-118130660D01*
X132052631Y-118237000D01*
X132107369Y-118237000D01*
X132641978Y-118130660D01*
X133095197Y-117827828D01*
X133398029Y-117374609D01*
X133403720Y-117346000D01*
X142225383Y-117346000D01*
X142338995Y-117620963D01*
X142726994Y-118009640D01*
X143234199Y-118220249D01*
X143783392Y-118220729D01*
X144060598Y-118106190D01*
X144476695Y-118522287D01*
X144640853Y-118631974D01*
X144834491Y-118670491D01*
X166315509Y-118670491D01*
X166509147Y-118631974D01*
X166673305Y-118522287D01*
X171807796Y-113387796D01*
X171917483Y-113223638D01*
X171956000Y-113030000D01*
X171956000Y-99695000D01*
X171917483Y-99501362D01*
X171807796Y-99337204D01*
X168800877Y-96330285D01*
X168884600Y-95909383D01*
X168884600Y-95860617D01*
X168789860Y-95384329D01*
X168520065Y-94980552D01*
X168116288Y-94710757D01*
X167640000Y-94616017D01*
X167163712Y-94710757D01*
X166759935Y-94980552D01*
X166493939Y-95378644D01*
X166382680Y-95110059D01*
X166132954Y-95031652D01*
X165279605Y-95885000D01*
X166133415Y-96738810D01*
X166382688Y-96659947D01*
X166487221Y-96370998D01*
X166490140Y-96385671D01*
X166759935Y-96789448D01*
X167163712Y-97059243D01*
X167640000Y-97153983D01*
X168101577Y-97062169D01*
X170944000Y-99904592D01*
X170944000Y-101013408D01*
X168800877Y-98870285D01*
X168884600Y-98449383D01*
X168884600Y-98400617D01*
X168789860Y-97924329D01*
X168520065Y-97520552D01*
X168116288Y-97250757D01*
X167640000Y-97156017D01*
X167163712Y-97250757D01*
X166759935Y-97520552D01*
X166490140Y-97924329D01*
X166395400Y-98400617D01*
X166395400Y-98449383D01*
X166490140Y-98925671D01*
X166759935Y-99329448D01*
X167163712Y-99599243D01*
X167640000Y-99693983D01*
X168101577Y-99602169D01*
X170309000Y-101809592D01*
X170309000Y-102918408D01*
X168800877Y-101410285D01*
X168884600Y-100989383D01*
X168884600Y-100940617D01*
X168789860Y-100464329D01*
X168520065Y-100060552D01*
X168116288Y-99790757D01*
X167640000Y-99696017D01*
X167163712Y-99790757D01*
X166759935Y-100060552D01*
X166490140Y-100464329D01*
X166395400Y-100940617D01*
X166395400Y-100989383D01*
X166490140Y-101465671D01*
X166759935Y-101869448D01*
X167163712Y-102139243D01*
X167640000Y-102233983D01*
X168101577Y-102142169D01*
X168212344Y-102252936D01*
X166776400Y-102252936D01*
X166635210Y-102279503D01*
X166505535Y-102362946D01*
X166418541Y-102490266D01*
X166387936Y-102641400D01*
X166387936Y-104041472D01*
X163620408Y-106809000D01*
X154551336Y-106809000D01*
X154642557Y-106562163D01*
X153670000Y-105589605D01*
X152697443Y-106562163D01*
X152788664Y-106809000D01*
X145624592Y-106809000D01*
X144776157Y-105960565D01*
X144890249Y-105685801D01*
X144890721Y-105145582D01*
X152024599Y-105145582D01*
X152048659Y-105795377D01*
X152251035Y-106283958D01*
X152517837Y-106382557D01*
X153490395Y-105410000D01*
X153849605Y-105410000D01*
X154822163Y-106382557D01*
X155088965Y-106283958D01*
X155315401Y-105674418D01*
X155291341Y-105024623D01*
X155088965Y-104536042D01*
X154822163Y-104437443D01*
X153849605Y-105410000D01*
X153490395Y-105410000D01*
X152517837Y-104437443D01*
X152251035Y-104536042D01*
X152024599Y-105145582D01*
X144890721Y-105145582D01*
X144890729Y-105136608D01*
X144681005Y-104629037D01*
X144310453Y-104257837D01*
X152697443Y-104257837D01*
X153670000Y-105230395D01*
X154642557Y-104257837D01*
X154543958Y-103991035D01*
X153934418Y-103764599D01*
X153284623Y-103788659D01*
X152796042Y-103991035D01*
X152697443Y-104257837D01*
X144310453Y-104257837D01*
X144293006Y-104240360D01*
X143785801Y-104029751D01*
X143236608Y-104029271D01*
X142729037Y-104238995D01*
X142340360Y-104626994D01*
X142225338Y-104904000D01*
X133403720Y-104904000D01*
X133398029Y-104875391D01*
X133095197Y-104422172D01*
X132641978Y-104119340D01*
X132107369Y-104013000D01*
X132052631Y-104013000D01*
X131518022Y-104119340D01*
X131064803Y-104422172D01*
X130944464Y-104602272D01*
X130944464Y-104394000D01*
X130917897Y-104252810D01*
X130834454Y-104123135D01*
X130707134Y-104036141D01*
X130556000Y-104005536D01*
X130318490Y-104005536D01*
X130819026Y-103505000D01*
X151930354Y-103505000D01*
X151957021Y-103531714D01*
X152243968Y-103650864D01*
X152554669Y-103651136D01*
X152841823Y-103532486D01*
X152869357Y-103505000D01*
X158115000Y-103505000D01*
X158358004Y-103456664D01*
X158564013Y-103319013D01*
X158618076Y-103264950D01*
X158618076Y-104104440D01*
X158644643Y-104245630D01*
X158725661Y-104371536D01*
X158555000Y-104371536D01*
X158413810Y-104398103D01*
X158284135Y-104481546D01*
X158197141Y-104608866D01*
X158166536Y-104760000D01*
X158166536Y-106060000D01*
X158193103Y-106201190D01*
X158276546Y-106330865D01*
X158403866Y-106417859D01*
X158555000Y-106448464D01*
X160055000Y-106448464D01*
X160196190Y-106421897D01*
X160325865Y-106338454D01*
X160412859Y-106211134D01*
X160443464Y-106060000D01*
X160443464Y-105695750D01*
X160620000Y-105695750D01*
X160620000Y-106186310D01*
X160716673Y-106419699D01*
X160895302Y-106598327D01*
X161128691Y-106695000D01*
X161719250Y-106695000D01*
X161878000Y-106536250D01*
X161878000Y-105537000D01*
X162132000Y-105537000D01*
X162132000Y-106536250D01*
X162290750Y-106695000D01*
X162881309Y-106695000D01*
X163114698Y-106598327D01*
X163293327Y-106419699D01*
X163390000Y-106186310D01*
X163390000Y-105695750D01*
X163231250Y-105537000D01*
X162132000Y-105537000D01*
X161878000Y-105537000D01*
X160778750Y-105537000D01*
X160620000Y-105695750D01*
X160443464Y-105695750D01*
X160443464Y-104760000D01*
X160416897Y-104618810D01*
X160333454Y-104489135D01*
X160310133Y-104473201D01*
X160346610Y-104466337D01*
X160476285Y-104382894D01*
X160563279Y-104255574D01*
X160593884Y-104104440D01*
X160593884Y-103292890D01*
X160716116Y-103415122D01*
X160716116Y-104104440D01*
X160742683Y-104245630D01*
X160793058Y-104323916D01*
X160716673Y-104400301D01*
X160620000Y-104633690D01*
X160620000Y-105124250D01*
X160778750Y-105283000D01*
X161878000Y-105283000D01*
X161878000Y-105263000D01*
X162132000Y-105263000D01*
X162132000Y-105283000D01*
X163231250Y-105283000D01*
X163390000Y-105124250D01*
X163390000Y-104633690D01*
X163293327Y-104400301D01*
X163114698Y-104221673D01*
X162917522Y-104140000D01*
X164039896Y-104140000D01*
X164219935Y-104409448D01*
X164623712Y-104679243D01*
X165100000Y-104773983D01*
X165576288Y-104679243D01*
X165980065Y-104409448D01*
X166249860Y-104005671D01*
X166344600Y-103529383D01*
X166344600Y-103480617D01*
X166249860Y-103004329D01*
X165980065Y-102600552D01*
X165576288Y-102330757D01*
X165100000Y-102236017D01*
X164623712Y-102330757D01*
X164219935Y-102600552D01*
X164039896Y-102870000D01*
X162685233Y-102870000D01*
X162665357Y-102764370D01*
X162581914Y-102634695D01*
X162454594Y-102547701D01*
X162303460Y-102517096D01*
X161614140Y-102517096D01*
X161045593Y-101948550D01*
X161045591Y-101948547D01*
X160839582Y-101810896D01*
X160596578Y-101762560D01*
X158587440Y-101762560D01*
X158344436Y-101810896D01*
X158138427Y-101948547D01*
X157851974Y-102235000D01*
X152869646Y-102235000D01*
X152842979Y-102208286D01*
X152556032Y-102089136D01*
X152245331Y-102088864D01*
X151958177Y-102207514D01*
X151930643Y-102235000D01*
X130556000Y-102235000D01*
X130312996Y-102283336D01*
X130106987Y-102420987D01*
X129090987Y-103436987D01*
X128953336Y-103642996D01*
X128905000Y-103886000D01*
X128905000Y-104005536D01*
X128524000Y-104005536D01*
X128382810Y-104032103D01*
X128253135Y-104115546D01*
X128166141Y-104242866D01*
X128135536Y-104394000D01*
X127456000Y-104394000D01*
X127456000Y-100021963D01*
X138683714Y-100021963D01*
X138934534Y-100628995D01*
X139398563Y-101093834D01*
X140005155Y-101345713D01*
X140661963Y-101346286D01*
X141268995Y-101095466D01*
X141733834Y-100631437D01*
X141911736Y-100203000D01*
X155694536Y-100203000D01*
X155694536Y-101727000D01*
X155721103Y-101868190D01*
X155804546Y-101997865D01*
X155931866Y-102084859D01*
X156083000Y-102115464D01*
X157607000Y-102115464D01*
X157748190Y-102088897D01*
X157877865Y-102005454D01*
X157964859Y-101878134D01*
X157995464Y-101727000D01*
X157995464Y-101473000D01*
X163955037Y-101473000D01*
X164219935Y-101869448D01*
X164623712Y-102139243D01*
X165100000Y-102233983D01*
X165576288Y-102139243D01*
X165980065Y-101869448D01*
X166249860Y-101465671D01*
X166344600Y-100989383D01*
X166344600Y-100940617D01*
X166249860Y-100464329D01*
X165980065Y-100060552D01*
X165576288Y-99790757D01*
X165100000Y-99696017D01*
X164623712Y-99790757D01*
X164219935Y-100060552D01*
X163955037Y-100457000D01*
X157995464Y-100457000D01*
X157995464Y-100203000D01*
X157968897Y-100061810D01*
X157885454Y-99932135D01*
X157758134Y-99845141D01*
X157607000Y-99814536D01*
X156083000Y-99814536D01*
X155941810Y-99841103D01*
X155812135Y-99924546D01*
X155725141Y-100051866D01*
X155694536Y-100203000D01*
X141911736Y-100203000D01*
X141985713Y-100024845D01*
X141986286Y-99368037D01*
X141735466Y-98761005D01*
X141626012Y-98651359D01*
X155701802Y-98651359D01*
X155875446Y-99071612D01*
X156196697Y-99393423D01*
X156616646Y-99567801D01*
X157071359Y-99568198D01*
X157491612Y-99394554D01*
X157813423Y-99073303D01*
X157871682Y-98933000D01*
X163955037Y-98933000D01*
X164219935Y-99329448D01*
X164623712Y-99599243D01*
X165100000Y-99693983D01*
X165576288Y-99599243D01*
X165980065Y-99329448D01*
X166249860Y-98925671D01*
X166344600Y-98449383D01*
X166344600Y-98400617D01*
X166249860Y-97924329D01*
X165980065Y-97520552D01*
X165600539Y-97266961D01*
X165874947Y-97167688D01*
X165953810Y-96918415D01*
X165100000Y-96064605D01*
X164246652Y-96917954D01*
X164325059Y-97167680D01*
X164586169Y-97275842D01*
X164219935Y-97520552D01*
X163955037Y-97917000D01*
X157871827Y-97917000D01*
X157814554Y-97778388D01*
X157493303Y-97456577D01*
X157073354Y-97282199D01*
X156879340Y-97282030D01*
X157192368Y-97266362D01*
X157576143Y-97107397D01*
X157645608Y-96865213D01*
X156845000Y-96064605D01*
X156044392Y-96865213D01*
X156113857Y-97107397D01*
X156611258Y-97284852D01*
X156198388Y-97455446D01*
X155876577Y-97776697D01*
X155702199Y-98196646D01*
X155701802Y-98651359D01*
X141626012Y-98651359D01*
X141271437Y-98296166D01*
X140664845Y-98044287D01*
X140008037Y-98043714D01*
X139401005Y-98294534D01*
X138936166Y-98758563D01*
X138684287Y-99365155D01*
X138683714Y-100021963D01*
X127456000Y-100021963D01*
X127456000Y-92401963D01*
X133603714Y-92401963D01*
X133854534Y-93008995D01*
X134318563Y-93473834D01*
X134925155Y-93725713D01*
X135581963Y-93726286D01*
X136188995Y-93475466D01*
X136653834Y-93011437D01*
X136905713Y-92404845D01*
X136906286Y-91748037D01*
X136655466Y-91141005D01*
X136191437Y-90676166D01*
X135584845Y-90424287D01*
X134928037Y-90423714D01*
X134321005Y-90674534D01*
X133856166Y-91138563D01*
X133604287Y-91745155D01*
X133603714Y-92401963D01*
X127456000Y-92401963D01*
X127456000Y-86980000D01*
X149911536Y-86980000D01*
X149911536Y-88280000D01*
X149938103Y-88421190D01*
X150021546Y-88550865D01*
X150148866Y-88637859D01*
X150300000Y-88668464D01*
X150542000Y-88668464D01*
X150542000Y-92630000D01*
X150580669Y-92824403D01*
X150690790Y-92989210D01*
X153219714Y-95518134D01*
X153162199Y-95656646D01*
X153161802Y-96111359D01*
X153335446Y-96531612D01*
X153656697Y-96853423D01*
X154076646Y-97027801D01*
X154531359Y-97028198D01*
X154951612Y-96854554D01*
X155273423Y-96533303D01*
X155447801Y-96113354D01*
X155447970Y-95919340D01*
X155463638Y-96232368D01*
X155622603Y-96616143D01*
X155864787Y-96685608D01*
X156665395Y-95885000D01*
X157024605Y-95885000D01*
X157825213Y-96685608D01*
X158067397Y-96616143D01*
X158254144Y-96092698D01*
X158232483Y-95659906D01*
X163618391Y-95659906D01*
X163645032Y-96244027D01*
X163817320Y-96659941D01*
X164067046Y-96738348D01*
X164920395Y-95885000D01*
X164066585Y-95031190D01*
X163817312Y-95110053D01*
X163618391Y-95659906D01*
X158232483Y-95659906D01*
X158226362Y-95537632D01*
X158067397Y-95153857D01*
X157825213Y-95084392D01*
X157024605Y-95885000D01*
X156665395Y-95885000D01*
X155864787Y-95084392D01*
X155622603Y-95153857D01*
X155445148Y-95651258D01*
X155274554Y-95238388D01*
X154953303Y-94916577D01*
X154533354Y-94742199D01*
X154078641Y-94741802D01*
X153938236Y-94799816D01*
X152709779Y-93571359D01*
X155701802Y-93571359D01*
X155875446Y-93991612D01*
X156196697Y-94313423D01*
X156616646Y-94487801D01*
X156810660Y-94487970D01*
X156497632Y-94503638D01*
X156113857Y-94662603D01*
X156044392Y-94904787D01*
X156845000Y-95705395D01*
X157645608Y-94904787D01*
X157576143Y-94662603D01*
X157078742Y-94485148D01*
X157491612Y-94314554D01*
X157813423Y-93993303D01*
X157818947Y-93980000D01*
X164039896Y-93980000D01*
X164219935Y-94249448D01*
X164599461Y-94503039D01*
X164325053Y-94602312D01*
X164246190Y-94851585D01*
X165100000Y-95705395D01*
X165953348Y-94852046D01*
X165874941Y-94602320D01*
X165613831Y-94494158D01*
X165980065Y-94249448D01*
X166249860Y-93845671D01*
X166344600Y-93369383D01*
X166344600Y-93320617D01*
X166249860Y-92844329D01*
X165980065Y-92440552D01*
X165576288Y-92170757D01*
X165100000Y-92076017D01*
X164623712Y-92170757D01*
X164219935Y-92440552D01*
X164039896Y-92710000D01*
X157819352Y-92710000D01*
X157814554Y-92698388D01*
X157493303Y-92376577D01*
X157073354Y-92202199D01*
X156618641Y-92201802D01*
X156198388Y-92375446D01*
X155876577Y-92696697D01*
X155702199Y-93116646D01*
X155701802Y-93571359D01*
X152709779Y-93571359D01*
X151558000Y-92419580D01*
X151558000Y-91031359D01*
X155701802Y-91031359D01*
X155875446Y-91451612D01*
X156196697Y-91773423D01*
X156616646Y-91947801D01*
X157071359Y-91948198D01*
X157491612Y-91774554D01*
X157813423Y-91453303D01*
X157987801Y-91033354D01*
X157988198Y-90578641D01*
X157977581Y-90552944D01*
X163494025Y-90552944D01*
X163693615Y-91034818D01*
X164131621Y-91507188D01*
X164717054Y-91775983D01*
X164973000Y-91657367D01*
X164973000Y-90297000D01*
X163613164Y-90297000D01*
X163494025Y-90552944D01*
X157977581Y-90552944D01*
X157814554Y-90158388D01*
X157493303Y-89836577D01*
X157374044Y-89787056D01*
X163494025Y-89787056D01*
X163613164Y-90043000D01*
X164973000Y-90043000D01*
X164973000Y-88682633D01*
X165227000Y-88682633D01*
X165227000Y-90043000D01*
X165247000Y-90043000D01*
X165247000Y-90297000D01*
X165227000Y-90297000D01*
X165227000Y-91657367D01*
X165482946Y-91775983D01*
X166068379Y-91507188D01*
X166257579Y-91303145D01*
X166262103Y-91327190D01*
X166345546Y-91456865D01*
X166472866Y-91543859D01*
X166624000Y-91574464D01*
X167132000Y-91574464D01*
X167132000Y-92191946D01*
X166759935Y-92440552D01*
X166490140Y-92844329D01*
X166395400Y-93320617D01*
X166395400Y-93369383D01*
X166490140Y-93845671D01*
X166759935Y-94249448D01*
X167163712Y-94519243D01*
X167640000Y-94613983D01*
X168116288Y-94519243D01*
X168520065Y-94249448D01*
X168789860Y-93845671D01*
X168884600Y-93369383D01*
X168884600Y-93320617D01*
X168789860Y-92844329D01*
X168520065Y-92440552D01*
X168148000Y-92191946D01*
X168148000Y-91574464D01*
X168656000Y-91574464D01*
X168797190Y-91547897D01*
X168926865Y-91464454D01*
X169013859Y-91337134D01*
X169044464Y-91186000D01*
X169044464Y-89154000D01*
X169017897Y-89012810D01*
X168934454Y-88883135D01*
X168807134Y-88796141D01*
X168656000Y-88765536D01*
X166624000Y-88765536D01*
X166482810Y-88792103D01*
X166353135Y-88875546D01*
X166266141Y-89002866D01*
X166258957Y-89038342D01*
X166068379Y-88832812D01*
X165482946Y-88564017D01*
X165227000Y-88682633D01*
X164973000Y-88682633D01*
X164717054Y-88564017D01*
X164131621Y-88832812D01*
X163693615Y-89305182D01*
X163494025Y-89787056D01*
X157374044Y-89787056D01*
X157073354Y-89662199D01*
X156618641Y-89661802D01*
X156198388Y-89835446D01*
X155876577Y-90156697D01*
X155702199Y-90576646D01*
X155701802Y-91031359D01*
X151558000Y-91031359D01*
X151558000Y-88668464D01*
X151800000Y-88668464D01*
X151941190Y-88641897D01*
X152070865Y-88558454D01*
X152157859Y-88431134D01*
X152188464Y-88280000D01*
X152188464Y-87915750D01*
X152365000Y-87915750D01*
X152365000Y-88406310D01*
X152461673Y-88639699D01*
X152640302Y-88818327D01*
X152873691Y-88915000D01*
X153464250Y-88915000D01*
X153623000Y-88756250D01*
X153623000Y-87757000D01*
X153877000Y-87757000D01*
X153877000Y-88756250D01*
X154035750Y-88915000D01*
X154626309Y-88915000D01*
X154859698Y-88818327D01*
X155038327Y-88639699D01*
X155135000Y-88406310D01*
X155135000Y-87915750D01*
X154976250Y-87757000D01*
X153877000Y-87757000D01*
X153623000Y-87757000D01*
X152523750Y-87757000D01*
X152365000Y-87915750D01*
X152188464Y-87915750D01*
X152188464Y-86980000D01*
X152164697Y-86853690D01*
X152365000Y-86853690D01*
X152365000Y-87344250D01*
X152523750Y-87503000D01*
X153623000Y-87503000D01*
X153623000Y-86503750D01*
X153877000Y-86503750D01*
X153877000Y-87503000D01*
X154976250Y-87503000D01*
X155135000Y-87344250D01*
X155135000Y-86853690D01*
X155038327Y-86620301D01*
X154859698Y-86441673D01*
X154626309Y-86345000D01*
X154035750Y-86345000D01*
X153877000Y-86503750D01*
X153623000Y-86503750D01*
X153464250Y-86345000D01*
X152873691Y-86345000D01*
X152640302Y-86441673D01*
X152461673Y-86620301D01*
X152365000Y-86853690D01*
X152164697Y-86853690D01*
X152161897Y-86838810D01*
X152078454Y-86709135D01*
X151951134Y-86622141D01*
X151800000Y-86591536D01*
X150300000Y-86591536D01*
X150158810Y-86618103D01*
X150029135Y-86701546D01*
X149942141Y-86828866D01*
X149911536Y-86980000D01*
X127456000Y-86980000D01*
X127456000Y-85432807D01*
X137333700Y-85432807D01*
X137596674Y-86069252D01*
X138083187Y-86556614D01*
X138719172Y-86820699D01*
X139407807Y-86821300D01*
X140044252Y-86558326D01*
X140531614Y-86071813D01*
X140795699Y-85435828D01*
X140795701Y-85432807D01*
X164638700Y-85432807D01*
X164901674Y-86069252D01*
X165388187Y-86556614D01*
X166024172Y-86820699D01*
X166712807Y-86821300D01*
X167349252Y-86558326D01*
X167836614Y-86071813D01*
X168100699Y-85435828D01*
X168101300Y-84747193D01*
X167838326Y-84110748D01*
X167351813Y-83623386D01*
X166715828Y-83359301D01*
X166027193Y-83358700D01*
X165390748Y-83621674D01*
X164903386Y-84108187D01*
X164639301Y-84744172D01*
X164638700Y-85432807D01*
X140795701Y-85432807D01*
X140796300Y-84747193D01*
X140533326Y-84110748D01*
X140046813Y-83623386D01*
X139410828Y-83359301D01*
X138722193Y-83358700D01*
X138085748Y-83621674D01*
X137598386Y-84108187D01*
X137334301Y-84744172D01*
X137333700Y-85432807D01*
X127456000Y-85432807D01*
X127456000Y-78784911D01*
X127622888Y-77945906D01*
X128072707Y-77272707D01*
X128745906Y-76822888D01*
X129584911Y-76656000D01*
X172675089Y-76656000D01*
X173514094Y-76822888D01*
X173514094Y-76822888D01*
G37*
X173514094Y-76822888D02*
X174187293Y-77272707D01*
X174637112Y-77945906D01*
X174804000Y-78784911D01*
X174804000Y-116795089D01*
X174637112Y-117634094D01*
X174187293Y-118307293D01*
X173514094Y-118757112D01*
X172675089Y-118924000D01*
X129584911Y-118924000D01*
X128745906Y-118757112D01*
X128072707Y-118307293D01*
X127622888Y-117634094D01*
X127456000Y-116795089D01*
X127456000Y-104394000D01*
X128135536Y-104394000D01*
X128135536Y-106426000D01*
X128162103Y-106567190D01*
X128245546Y-106696865D01*
X128372866Y-106783859D01*
X128524000Y-106814464D01*
X128905000Y-106814464D01*
X128905000Y-107815536D01*
X128524000Y-107815536D01*
X128382810Y-107842103D01*
X128253135Y-107925546D01*
X128166141Y-108052866D01*
X128135536Y-108204000D01*
X128135536Y-110236000D01*
X128162103Y-110377190D01*
X128245546Y-110506865D01*
X128372866Y-110593859D01*
X128524000Y-110624464D01*
X128905000Y-110624464D01*
X128905000Y-111625536D01*
X128524000Y-111625536D01*
X128382810Y-111652103D01*
X128253135Y-111735546D01*
X128166141Y-111862866D01*
X128135536Y-112014000D01*
X128135536Y-114046000D01*
X128162103Y-114187190D01*
X128245546Y-114316865D01*
X128372866Y-114403859D01*
X128524000Y-114434464D01*
X128905000Y-114434464D01*
X128905000Y-115435536D01*
X128524000Y-115435536D01*
X128382810Y-115462103D01*
X128253135Y-115545546D01*
X128166141Y-115672866D01*
X128135536Y-115824000D01*
X128135536Y-117856000D01*
X128162103Y-117997190D01*
X128245546Y-118126865D01*
X128372866Y-118213859D01*
X128524000Y-118244464D01*
X130556000Y-118244464D01*
X130697190Y-118217897D01*
X130826865Y-118134454D01*
X130913859Y-118007134D01*
X130944464Y-117856000D01*
X130944464Y-117647728D01*
X131064803Y-117827828D01*
X131518022Y-118130660D01*
X132052631Y-118237000D01*
X132107369Y-118237000D01*
X132641978Y-118130660D01*
X133095197Y-117827828D01*
X133398029Y-117374609D01*
X133403720Y-117346000D01*
X142225383Y-117346000D01*
X142338995Y-117620963D01*
X142726994Y-118009640D01*
X143234199Y-118220249D01*
X143783392Y-118220729D01*
X144060598Y-118106190D01*
X144476695Y-118522287D01*
X144640853Y-118631974D01*
X144834491Y-118670491D01*
X166315509Y-118670491D01*
X166509147Y-118631974D01*
X166673305Y-118522287D01*
X171807796Y-113387796D01*
X171917483Y-113223638D01*
X171956000Y-113030000D01*
X171956000Y-99695000D01*
X171917483Y-99501362D01*
X171807796Y-99337204D01*
X168800877Y-96330285D01*
X168884600Y-95909383D01*
X168884600Y-95860617D01*
X168789860Y-95384329D01*
X168520065Y-94980552D01*
X168116288Y-94710757D01*
X167640000Y-94616017D01*
X167163712Y-94710757D01*
X166759935Y-94980552D01*
X166493939Y-95378644D01*
X166382680Y-95110059D01*
X166132954Y-95031652D01*
X165279605Y-95885000D01*
X166133415Y-96738810D01*
X166382688Y-96659947D01*
X166487221Y-96370998D01*
X166490140Y-96385671D01*
X166759935Y-96789448D01*
X167163712Y-97059243D01*
X167640000Y-97153983D01*
X168101577Y-97062169D01*
X170944000Y-99904592D01*
X170944000Y-101013408D01*
X168800877Y-98870285D01*
X168884600Y-98449383D01*
X168884600Y-98400617D01*
X168789860Y-97924329D01*
X168520065Y-97520552D01*
X168116288Y-97250757D01*
X167640000Y-97156017D01*
X167163712Y-97250757D01*
X166759935Y-97520552D01*
X166490140Y-97924329D01*
X166395400Y-98400617D01*
X166395400Y-98449383D01*
X166490140Y-98925671D01*
X166759935Y-99329448D01*
X167163712Y-99599243D01*
X167640000Y-99693983D01*
X168101577Y-99602169D01*
X170309000Y-101809592D01*
X170309000Y-102918408D01*
X168800877Y-101410285D01*
X168884600Y-100989383D01*
X168884600Y-100940617D01*
X168789860Y-100464329D01*
X168520065Y-100060552D01*
X168116288Y-99790757D01*
X167640000Y-99696017D01*
X167163712Y-99790757D01*
X166759935Y-100060552D01*
X166490140Y-100464329D01*
X166395400Y-100940617D01*
X166395400Y-100989383D01*
X166490140Y-101465671D01*
X166759935Y-101869448D01*
X167163712Y-102139243D01*
X167640000Y-102233983D01*
X168101577Y-102142169D01*
X168212344Y-102252936D01*
X166776400Y-102252936D01*
X166635210Y-102279503D01*
X166505535Y-102362946D01*
X166418541Y-102490266D01*
X166387936Y-102641400D01*
X166387936Y-104041472D01*
X163620408Y-106809000D01*
X154551336Y-106809000D01*
X154642557Y-106562163D01*
X153670000Y-105589605D01*
X152697443Y-106562163D01*
X152788664Y-106809000D01*
X145624592Y-106809000D01*
X144776157Y-105960565D01*
X144890249Y-105685801D01*
X144890721Y-105145582D01*
X152024599Y-105145582D01*
X152048659Y-105795377D01*
X152251035Y-106283958D01*
X152517837Y-106382557D01*
X153490395Y-105410000D01*
X153849605Y-105410000D01*
X154822163Y-106382557D01*
X155088965Y-106283958D01*
X155315401Y-105674418D01*
X155291341Y-105024623D01*
X155088965Y-104536042D01*
X154822163Y-104437443D01*
X153849605Y-105410000D01*
X153490395Y-105410000D01*
X152517837Y-104437443D01*
X152251035Y-104536042D01*
X152024599Y-105145582D01*
X144890721Y-105145582D01*
X144890729Y-105136608D01*
X144681005Y-104629037D01*
X144310453Y-104257837D01*
X152697443Y-104257837D01*
X153670000Y-105230395D01*
X154642557Y-104257837D01*
X154543958Y-103991035D01*
X153934418Y-103764599D01*
X153284623Y-103788659D01*
X152796042Y-103991035D01*
X152697443Y-104257837D01*
X144310453Y-104257837D01*
X144293006Y-104240360D01*
X143785801Y-104029751D01*
X143236608Y-104029271D01*
X142729037Y-104238995D01*
X142340360Y-104626994D01*
X142225338Y-104904000D01*
X133403720Y-104904000D01*
X133398029Y-104875391D01*
X133095197Y-104422172D01*
X132641978Y-104119340D01*
X132107369Y-104013000D01*
X132052631Y-104013000D01*
X131518022Y-104119340D01*
X131064803Y-104422172D01*
X130944464Y-104602272D01*
X130944464Y-104394000D01*
X130917897Y-104252810D01*
X130834454Y-104123135D01*
X130707134Y-104036141D01*
X130556000Y-104005536D01*
X130318490Y-104005536D01*
X130819026Y-103505000D01*
X151930354Y-103505000D01*
X151957021Y-103531714D01*
X152243968Y-103650864D01*
X152554669Y-103651136D01*
X152841823Y-103532486D01*
X152869357Y-103505000D01*
X158115000Y-103505000D01*
X158358004Y-103456664D01*
X158564013Y-103319013D01*
X158618076Y-103264950D01*
X158618076Y-104104440D01*
X158644643Y-104245630D01*
X158725661Y-104371536D01*
X158555000Y-104371536D01*
X158413810Y-104398103D01*
X158284135Y-104481546D01*
X158197141Y-104608866D01*
X158166536Y-104760000D01*
X158166536Y-106060000D01*
X158193103Y-106201190D01*
X158276546Y-106330865D01*
X158403866Y-106417859D01*
X158555000Y-106448464D01*
X160055000Y-106448464D01*
X160196190Y-106421897D01*
X160325865Y-106338454D01*
X160412859Y-106211134D01*
X160443464Y-106060000D01*
X160443464Y-105695750D01*
X160620000Y-105695750D01*
X160620000Y-106186310D01*
X160716673Y-106419699D01*
X160895302Y-106598327D01*
X161128691Y-106695000D01*
X161719250Y-106695000D01*
X161878000Y-106536250D01*
X161878000Y-105537000D01*
X162132000Y-105537000D01*
X162132000Y-106536250D01*
X162290750Y-106695000D01*
X162881309Y-106695000D01*
X163114698Y-106598327D01*
X163293327Y-106419699D01*
X163390000Y-106186310D01*
X163390000Y-105695750D01*
X163231250Y-105537000D01*
X162132000Y-105537000D01*
X161878000Y-105537000D01*
X160778750Y-105537000D01*
X160620000Y-105695750D01*
X160443464Y-105695750D01*
X160443464Y-104760000D01*
X160416897Y-104618810D01*
X160333454Y-104489135D01*
X160310133Y-104473201D01*
X160346610Y-104466337D01*
X160476285Y-104382894D01*
X160563279Y-104255574D01*
X160593884Y-104104440D01*
X160593884Y-103292890D01*
X160716116Y-103415122D01*
X160716116Y-104104440D01*
X160742683Y-104245630D01*
X160793058Y-104323916D01*
X160716673Y-104400301D01*
X160620000Y-104633690D01*
X160620000Y-105124250D01*
X160778750Y-105283000D01*
X161878000Y-105283000D01*
X161878000Y-105263000D01*
X162132000Y-105263000D01*
X162132000Y-105283000D01*
X163231250Y-105283000D01*
X163390000Y-105124250D01*
X163390000Y-104633690D01*
X163293327Y-104400301D01*
X163114698Y-104221673D01*
X162917522Y-104140000D01*
X164039896Y-104140000D01*
X164219935Y-104409448D01*
X164623712Y-104679243D01*
X165100000Y-104773983D01*
X165576288Y-104679243D01*
X165980065Y-104409448D01*
X166249860Y-104005671D01*
X166344600Y-103529383D01*
X166344600Y-103480617D01*
X166249860Y-103004329D01*
X165980065Y-102600552D01*
X165576288Y-102330757D01*
X165100000Y-102236017D01*
X164623712Y-102330757D01*
X164219935Y-102600552D01*
X164039896Y-102870000D01*
X162685233Y-102870000D01*
X162665357Y-102764370D01*
X162581914Y-102634695D01*
X162454594Y-102547701D01*
X162303460Y-102517096D01*
X161614140Y-102517096D01*
X161045593Y-101948550D01*
X161045591Y-101948547D01*
X160839582Y-101810896D01*
X160596578Y-101762560D01*
X158587440Y-101762560D01*
X158344436Y-101810896D01*
X158138427Y-101948547D01*
X157851974Y-102235000D01*
X152869646Y-102235000D01*
X152842979Y-102208286D01*
X152556032Y-102089136D01*
X152245331Y-102088864D01*
X151958177Y-102207514D01*
X151930643Y-102235000D01*
X130556000Y-102235000D01*
X130312996Y-102283336D01*
X130106987Y-102420987D01*
X129090987Y-103436987D01*
X128953336Y-103642996D01*
X128905000Y-103886000D01*
X128905000Y-104005536D01*
X128524000Y-104005536D01*
X128382810Y-104032103D01*
X128253135Y-104115546D01*
X128166141Y-104242866D01*
X128135536Y-104394000D01*
X127456000Y-104394000D01*
X127456000Y-100021963D01*
X138683714Y-100021963D01*
X138934534Y-100628995D01*
X139398563Y-101093834D01*
X140005155Y-101345713D01*
X140661963Y-101346286D01*
X141268995Y-101095466D01*
X141733834Y-100631437D01*
X141911736Y-100203000D01*
X155694536Y-100203000D01*
X155694536Y-101727000D01*
X155721103Y-101868190D01*
X155804546Y-101997865D01*
X155931866Y-102084859D01*
X156083000Y-102115464D01*
X157607000Y-102115464D01*
X157748190Y-102088897D01*
X157877865Y-102005454D01*
X157964859Y-101878134D01*
X157995464Y-101727000D01*
X157995464Y-101473000D01*
X163955037Y-101473000D01*
X164219935Y-101869448D01*
X164623712Y-102139243D01*
X165100000Y-102233983D01*
X165576288Y-102139243D01*
X165980065Y-101869448D01*
X166249860Y-101465671D01*
X166344600Y-100989383D01*
X166344600Y-100940617D01*
X166249860Y-100464329D01*
X165980065Y-100060552D01*
X165576288Y-99790757D01*
X165100000Y-99696017D01*
X164623712Y-99790757D01*
X164219935Y-100060552D01*
X163955037Y-100457000D01*
X157995464Y-100457000D01*
X157995464Y-100203000D01*
X157968897Y-100061810D01*
X157885454Y-99932135D01*
X157758134Y-99845141D01*
X157607000Y-99814536D01*
X156083000Y-99814536D01*
X155941810Y-99841103D01*
X155812135Y-99924546D01*
X155725141Y-100051866D01*
X155694536Y-100203000D01*
X141911736Y-100203000D01*
X141985713Y-100024845D01*
X141986286Y-99368037D01*
X141735466Y-98761005D01*
X141626012Y-98651359D01*
X155701802Y-98651359D01*
X155875446Y-99071612D01*
X156196697Y-99393423D01*
X156616646Y-99567801D01*
X157071359Y-99568198D01*
X157491612Y-99394554D01*
X157813423Y-99073303D01*
X157871682Y-98933000D01*
X163955037Y-98933000D01*
X164219935Y-99329448D01*
X164623712Y-99599243D01*
X165100000Y-99693983D01*
X165576288Y-99599243D01*
X165980065Y-99329448D01*
X166249860Y-98925671D01*
X166344600Y-98449383D01*
X166344600Y-98400617D01*
X166249860Y-97924329D01*
X165980065Y-97520552D01*
X165600539Y-97266961D01*
X165874947Y-97167688D01*
X165953810Y-96918415D01*
X165100000Y-96064605D01*
X164246652Y-96917954D01*
X164325059Y-97167680D01*
X164586169Y-97275842D01*
X164219935Y-97520552D01*
X163955037Y-97917000D01*
X157871827Y-97917000D01*
X157814554Y-97778388D01*
X157493303Y-97456577D01*
X157073354Y-97282199D01*
X156879340Y-97282030D01*
X157192368Y-97266362D01*
X157576143Y-97107397D01*
X157645608Y-96865213D01*
X156845000Y-96064605D01*
X156044392Y-96865213D01*
X156113857Y-97107397D01*
X156611258Y-97284852D01*
X156198388Y-97455446D01*
X155876577Y-97776697D01*
X155702199Y-98196646D01*
X155701802Y-98651359D01*
X141626012Y-98651359D01*
X141271437Y-98296166D01*
X140664845Y-98044287D01*
X140008037Y-98043714D01*
X139401005Y-98294534D01*
X138936166Y-98758563D01*
X138684287Y-99365155D01*
X138683714Y-100021963D01*
X127456000Y-100021963D01*
X127456000Y-92401963D01*
X133603714Y-92401963D01*
X133854534Y-93008995D01*
X134318563Y-93473834D01*
X134925155Y-93725713D01*
X135581963Y-93726286D01*
X136188995Y-93475466D01*
X136653834Y-93011437D01*
X136905713Y-92404845D01*
X136906286Y-91748037D01*
X136655466Y-91141005D01*
X136191437Y-90676166D01*
X135584845Y-90424287D01*
X134928037Y-90423714D01*
X134321005Y-90674534D01*
X133856166Y-91138563D01*
X133604287Y-91745155D01*
X133603714Y-92401963D01*
X127456000Y-92401963D01*
X127456000Y-86980000D01*
X149911536Y-86980000D01*
X149911536Y-88280000D01*
X149938103Y-88421190D01*
X150021546Y-88550865D01*
X150148866Y-88637859D01*
X150300000Y-88668464D01*
X150542000Y-88668464D01*
X150542000Y-92630000D01*
X150580669Y-92824403D01*
X150690790Y-92989210D01*
X153219714Y-95518134D01*
X153162199Y-95656646D01*
X153161802Y-96111359D01*
X153335446Y-96531612D01*
X153656697Y-96853423D01*
X154076646Y-97027801D01*
X154531359Y-97028198D01*
X154951612Y-96854554D01*
X155273423Y-96533303D01*
X155447801Y-96113354D01*
X155447970Y-95919340D01*
X155463638Y-96232368D01*
X155622603Y-96616143D01*
X155864787Y-96685608D01*
X156665395Y-95885000D01*
X157024605Y-95885000D01*
X157825213Y-96685608D01*
X158067397Y-96616143D01*
X158254144Y-96092698D01*
X158232483Y-95659906D01*
X163618391Y-95659906D01*
X163645032Y-96244027D01*
X163817320Y-96659941D01*
X164067046Y-96738348D01*
X164920395Y-95885000D01*
X164066585Y-95031190D01*
X163817312Y-95110053D01*
X163618391Y-95659906D01*
X158232483Y-95659906D01*
X158226362Y-95537632D01*
X158067397Y-95153857D01*
X157825213Y-95084392D01*
X157024605Y-95885000D01*
X156665395Y-95885000D01*
X155864787Y-95084392D01*
X155622603Y-95153857D01*
X155445148Y-95651258D01*
X155274554Y-95238388D01*
X154953303Y-94916577D01*
X154533354Y-94742199D01*
X154078641Y-94741802D01*
X153938236Y-94799816D01*
X152709779Y-93571359D01*
X155701802Y-93571359D01*
X155875446Y-93991612D01*
X156196697Y-94313423D01*
X156616646Y-94487801D01*
X156810660Y-94487970D01*
X156497632Y-94503638D01*
X156113857Y-94662603D01*
X156044392Y-94904787D01*
X156845000Y-95705395D01*
X157645608Y-94904787D01*
X157576143Y-94662603D01*
X157078742Y-94485148D01*
X157491612Y-94314554D01*
X157813423Y-93993303D01*
X157818947Y-93980000D01*
X164039896Y-93980000D01*
X164219935Y-94249448D01*
X164599461Y-94503039D01*
X164325053Y-94602312D01*
X164246190Y-94851585D01*
X165100000Y-95705395D01*
X165953348Y-94852046D01*
X165874941Y-94602320D01*
X165613831Y-94494158D01*
X165980065Y-94249448D01*
X166249860Y-93845671D01*
X166344600Y-93369383D01*
X166344600Y-93320617D01*
X166249860Y-92844329D01*
X165980065Y-92440552D01*
X165576288Y-92170757D01*
X165100000Y-92076017D01*
X164623712Y-92170757D01*
X164219935Y-92440552D01*
X164039896Y-92710000D01*
X157819352Y-92710000D01*
X157814554Y-92698388D01*
X157493303Y-92376577D01*
X157073354Y-92202199D01*
X156618641Y-92201802D01*
X156198388Y-92375446D01*
X155876577Y-92696697D01*
X155702199Y-93116646D01*
X155701802Y-93571359D01*
X152709779Y-93571359D01*
X151558000Y-92419580D01*
X151558000Y-91031359D01*
X155701802Y-91031359D01*
X155875446Y-91451612D01*
X156196697Y-91773423D01*
X156616646Y-91947801D01*
X157071359Y-91948198D01*
X157491612Y-91774554D01*
X157813423Y-91453303D01*
X157987801Y-91033354D01*
X157988198Y-90578641D01*
X157977581Y-90552944D01*
X163494025Y-90552944D01*
X163693615Y-91034818D01*
X164131621Y-91507188D01*
X164717054Y-91775983D01*
X164973000Y-91657367D01*
X164973000Y-90297000D01*
X163613164Y-90297000D01*
X163494025Y-90552944D01*
X157977581Y-90552944D01*
X157814554Y-90158388D01*
X157493303Y-89836577D01*
X157374044Y-89787056D01*
X163494025Y-89787056D01*
X163613164Y-90043000D01*
X164973000Y-90043000D01*
X164973000Y-88682633D01*
X165227000Y-88682633D01*
X165227000Y-90043000D01*
X165247000Y-90043000D01*
X165247000Y-90297000D01*
X165227000Y-90297000D01*
X165227000Y-91657367D01*
X165482946Y-91775983D01*
X166068379Y-91507188D01*
X166257579Y-91303145D01*
X166262103Y-91327190D01*
X166345546Y-91456865D01*
X166472866Y-91543859D01*
X166624000Y-91574464D01*
X167132000Y-91574464D01*
X167132000Y-92191946D01*
X166759935Y-92440552D01*
X166490140Y-92844329D01*
X166395400Y-93320617D01*
X166395400Y-93369383D01*
X166490140Y-93845671D01*
X166759935Y-94249448D01*
X167163712Y-94519243D01*
X167640000Y-94613983D01*
X168116288Y-94519243D01*
X168520065Y-94249448D01*
X168789860Y-93845671D01*
X168884600Y-93369383D01*
X168884600Y-93320617D01*
X168789860Y-92844329D01*
X168520065Y-92440552D01*
X168148000Y-92191946D01*
X168148000Y-91574464D01*
X168656000Y-91574464D01*
X168797190Y-91547897D01*
X168926865Y-91464454D01*
X169013859Y-91337134D01*
X169044464Y-91186000D01*
X169044464Y-89154000D01*
X169017897Y-89012810D01*
X168934454Y-88883135D01*
X168807134Y-88796141D01*
X168656000Y-88765536D01*
X166624000Y-88765536D01*
X166482810Y-88792103D01*
X166353135Y-88875546D01*
X166266141Y-89002866D01*
X166258957Y-89038342D01*
X166068379Y-88832812D01*
X165482946Y-88564017D01*
X165227000Y-88682633D01*
X164973000Y-88682633D01*
X164717054Y-88564017D01*
X164131621Y-88832812D01*
X163693615Y-89305182D01*
X163494025Y-89787056D01*
X157374044Y-89787056D01*
X157073354Y-89662199D01*
X156618641Y-89661802D01*
X156198388Y-89835446D01*
X155876577Y-90156697D01*
X155702199Y-90576646D01*
X155701802Y-91031359D01*
X151558000Y-91031359D01*
X151558000Y-88668464D01*
X151800000Y-88668464D01*
X151941190Y-88641897D01*
X152070865Y-88558454D01*
X152157859Y-88431134D01*
X152188464Y-88280000D01*
X152188464Y-87915750D01*
X152365000Y-87915750D01*
X152365000Y-88406310D01*
X152461673Y-88639699D01*
X152640302Y-88818327D01*
X152873691Y-88915000D01*
X153464250Y-88915000D01*
X153623000Y-88756250D01*
X153623000Y-87757000D01*
X153877000Y-87757000D01*
X153877000Y-88756250D01*
X154035750Y-88915000D01*
X154626309Y-88915000D01*
X154859698Y-88818327D01*
X155038327Y-88639699D01*
X155135000Y-88406310D01*
X155135000Y-87915750D01*
X154976250Y-87757000D01*
X153877000Y-87757000D01*
X153623000Y-87757000D01*
X152523750Y-87757000D01*
X152365000Y-87915750D01*
X152188464Y-87915750D01*
X152188464Y-86980000D01*
X152164697Y-86853690D01*
X152365000Y-86853690D01*
X152365000Y-87344250D01*
X152523750Y-87503000D01*
X153623000Y-87503000D01*
X153623000Y-86503750D01*
X153877000Y-86503750D01*
X153877000Y-87503000D01*
X154976250Y-87503000D01*
X155135000Y-87344250D01*
X155135000Y-86853690D01*
X155038327Y-86620301D01*
X154859698Y-86441673D01*
X154626309Y-86345000D01*
X154035750Y-86345000D01*
X153877000Y-86503750D01*
X153623000Y-86503750D01*
X153464250Y-86345000D01*
X152873691Y-86345000D01*
X152640302Y-86441673D01*
X152461673Y-86620301D01*
X152365000Y-86853690D01*
X152164697Y-86853690D01*
X152161897Y-86838810D01*
X152078454Y-86709135D01*
X151951134Y-86622141D01*
X151800000Y-86591536D01*
X150300000Y-86591536D01*
X150158810Y-86618103D01*
X150029135Y-86701546D01*
X149942141Y-86828866D01*
X149911536Y-86980000D01*
X127456000Y-86980000D01*
X127456000Y-85432807D01*
X137333700Y-85432807D01*
X137596674Y-86069252D01*
X138083187Y-86556614D01*
X138719172Y-86820699D01*
X139407807Y-86821300D01*
X140044252Y-86558326D01*
X140531614Y-86071813D01*
X140795699Y-85435828D01*
X140795701Y-85432807D01*
X164638700Y-85432807D01*
X164901674Y-86069252D01*
X165388187Y-86556614D01*
X166024172Y-86820699D01*
X166712807Y-86821300D01*
X167349252Y-86558326D01*
X167836614Y-86071813D01*
X168100699Y-85435828D01*
X168101300Y-84747193D01*
X167838326Y-84110748D01*
X167351813Y-83623386D01*
X166715828Y-83359301D01*
X166027193Y-83358700D01*
X165390748Y-83621674D01*
X164903386Y-84108187D01*
X164639301Y-84744172D01*
X164638700Y-85432807D01*
X140795701Y-85432807D01*
X140796300Y-84747193D01*
X140533326Y-84110748D01*
X140046813Y-83623386D01*
X139410828Y-83359301D01*
X138722193Y-83358700D01*
X138085748Y-83621674D01*
X137598386Y-84108187D01*
X137334301Y-84744172D01*
X137333700Y-85432807D01*
X127456000Y-85432807D01*
X127456000Y-78784911D01*
X127622888Y-77945906D01*
X128072707Y-77272707D01*
X128745906Y-76822888D01*
X129584911Y-76656000D01*
X172675089Y-76656000D01*
X173514094Y-76822888D01*
G36*
X170944000Y-112820408D02*
X166105917Y-117658491D01*
X155109570Y-117658491D01*
X155315401Y-117104418D01*
X155291341Y-116454623D01*
X155088965Y-115966042D01*
X154822163Y-115867443D01*
X153849605Y-116840000D01*
X153863748Y-116854142D01*
X153684142Y-117033748D01*
X153670000Y-117019605D01*
X153655858Y-117033748D01*
X153476252Y-116854142D01*
X153490395Y-116840000D01*
X152517837Y-115867443D01*
X152251035Y-115966042D01*
X152024599Y-116575582D01*
X152048659Y-117225377D01*
X152228060Y-117658491D01*
X145044083Y-117658491D01*
X144776157Y-117390565D01*
X144890249Y-117115801D01*
X144890729Y-116566608D01*
X144681005Y-116059037D01*
X144293006Y-115670360D01*
X143785801Y-115459751D01*
X143236608Y-115459271D01*
X142729037Y-115668995D01*
X142340360Y-116056994D01*
X142225338Y-116334000D01*
X133403720Y-116334000D01*
X133398029Y-116305391D01*
X133095197Y-115852172D01*
X132641978Y-115549340D01*
X132107369Y-115443000D01*
X132052631Y-115443000D01*
X131518022Y-115549340D01*
X131064803Y-115852172D01*
X130944464Y-116032272D01*
X130944464Y-115824000D01*
X130917897Y-115682810D01*
X130834454Y-115553135D01*
X130707134Y-115466141D01*
X130556000Y-115435536D01*
X130175000Y-115435536D01*
X130175000Y-114434464D01*
X130556000Y-114434464D01*
X130697190Y-114407897D01*
X130826865Y-114324454D01*
X130913859Y-114197134D01*
X130944464Y-114046000D01*
X130944464Y-113837728D01*
X131064803Y-114017828D01*
X131518022Y-114320660D01*
X132052631Y-114427000D01*
X132107369Y-114427000D01*
X132641978Y-114320660D01*
X133095197Y-114017828D01*
X133398029Y-113564609D01*
X133403720Y-113536000D01*
X142225383Y-113536000D01*
X142338995Y-113810963D01*
X142726994Y-114199640D01*
X143234199Y-114410249D01*
X143783392Y-114410729D01*
X144060598Y-114296190D01*
X145057204Y-115292796D01*
X145221362Y-115402483D01*
X145415000Y-115441000D01*
X152788664Y-115441000D01*
X152697443Y-115687837D01*
X153670000Y-116660395D01*
X154642557Y-115687837D01*
X154551336Y-115441000D01*
X167640000Y-115441000D01*
X167833638Y-115402483D01*
X167997796Y-115292796D01*
X170944000Y-112346592D01*
X170944000Y-112820408D01*
X170944000Y-112820408D01*
G37*
X170944000Y-112820408D02*
X166105917Y-117658491D01*
X155109570Y-117658491D01*
X155315401Y-117104418D01*
X155291341Y-116454623D01*
X155088965Y-115966042D01*
X154822163Y-115867443D01*
X153849605Y-116840000D01*
X153863748Y-116854142D01*
X153684142Y-117033748D01*
X153670000Y-117019605D01*
X153655858Y-117033748D01*
X153476252Y-116854142D01*
X153490395Y-116840000D01*
X152517837Y-115867443D01*
X152251035Y-115966042D01*
X152024599Y-116575582D01*
X152048659Y-117225377D01*
X152228060Y-117658491D01*
X145044083Y-117658491D01*
X144776157Y-117390565D01*
X144890249Y-117115801D01*
X144890729Y-116566608D01*
X144681005Y-116059037D01*
X144293006Y-115670360D01*
X143785801Y-115459751D01*
X143236608Y-115459271D01*
X142729037Y-115668995D01*
X142340360Y-116056994D01*
X142225338Y-116334000D01*
X133403720Y-116334000D01*
X133398029Y-116305391D01*
X133095197Y-115852172D01*
X132641978Y-115549340D01*
X132107369Y-115443000D01*
X132052631Y-115443000D01*
X131518022Y-115549340D01*
X131064803Y-115852172D01*
X130944464Y-116032272D01*
X130944464Y-115824000D01*
X130917897Y-115682810D01*
X130834454Y-115553135D01*
X130707134Y-115466141D01*
X130556000Y-115435536D01*
X130175000Y-115435536D01*
X130175000Y-114434464D01*
X130556000Y-114434464D01*
X130697190Y-114407897D01*
X130826865Y-114324454D01*
X130913859Y-114197134D01*
X130944464Y-114046000D01*
X130944464Y-113837728D01*
X131064803Y-114017828D01*
X131518022Y-114320660D01*
X132052631Y-114427000D01*
X132107369Y-114427000D01*
X132641978Y-114320660D01*
X133095197Y-114017828D01*
X133398029Y-113564609D01*
X133403720Y-113536000D01*
X142225383Y-113536000D01*
X142338995Y-113810963D01*
X142726994Y-114199640D01*
X143234199Y-114410249D01*
X143783392Y-114410729D01*
X144060598Y-114296190D01*
X145057204Y-115292796D01*
X145221362Y-115402483D01*
X145415000Y-115441000D01*
X152788664Y-115441000D01*
X152697443Y-115687837D01*
X153670000Y-116660395D01*
X154642557Y-115687837D01*
X154551336Y-115441000D01*
X167640000Y-115441000D01*
X167833638Y-115402483D01*
X167997796Y-115292796D01*
X170944000Y-112346592D01*
X170944000Y-112820408D01*
G36*
X142243843Y-108669435D02*
X142129751Y-108944199D01*
X142129271Y-109493392D01*
X142338995Y-110000963D01*
X142726994Y-110389640D01*
X143234199Y-110600249D01*
X143783392Y-110600729D01*
X144060598Y-110486190D01*
X145057204Y-111482796D01*
X145221362Y-111592483D01*
X145415000Y-111631000D01*
X152788664Y-111631000D01*
X152697443Y-111877837D01*
X153670000Y-112850395D01*
X154642557Y-111877837D01*
X154551336Y-111631000D01*
X162350408Y-111631000D01*
X164742204Y-114022796D01*
X164906362Y-114132483D01*
X165100000Y-114171000D01*
X167640000Y-114171000D01*
X167700428Y-114158980D01*
X167430408Y-114429000D01*
X154551336Y-114429000D01*
X154642557Y-114182163D01*
X153670000Y-113209605D01*
X152697443Y-114182163D01*
X152788664Y-114429000D01*
X145624592Y-114429000D01*
X144776157Y-113580565D01*
X144890249Y-113305801D01*
X144890721Y-112765582D01*
X152024599Y-112765582D01*
X152048659Y-113415377D01*
X152251035Y-113903958D01*
X152517837Y-114002557D01*
X153490395Y-113030000D01*
X153849605Y-113030000D01*
X154822163Y-114002557D01*
X155088965Y-113903958D01*
X155315401Y-113294418D01*
X155291341Y-112644623D01*
X155088965Y-112156042D01*
X154822163Y-112057443D01*
X153849605Y-113030000D01*
X153490395Y-113030000D01*
X152517837Y-112057443D01*
X152251035Y-112156042D01*
X152024599Y-112765582D01*
X144890721Y-112765582D01*
X144890729Y-112756608D01*
X144681005Y-112249037D01*
X144293006Y-111860360D01*
X143785801Y-111649751D01*
X143236608Y-111649271D01*
X142729037Y-111858995D01*
X142340360Y-112246994D01*
X142225338Y-112524000D01*
X133403720Y-112524000D01*
X133398029Y-112495391D01*
X133095197Y-112042172D01*
X132641978Y-111739340D01*
X132107369Y-111633000D01*
X132052631Y-111633000D01*
X131518022Y-111739340D01*
X131064803Y-112042172D01*
X130944464Y-112222272D01*
X130944464Y-112014000D01*
X130917897Y-111872810D01*
X130834454Y-111743135D01*
X130707134Y-111656141D01*
X130556000Y-111625536D01*
X130175000Y-111625536D01*
X130175000Y-110624464D01*
X130556000Y-110624464D01*
X130697190Y-110597897D01*
X130826865Y-110514454D01*
X130913859Y-110387134D01*
X130944464Y-110236000D01*
X130944464Y-110027728D01*
X131064803Y-110207828D01*
X131518022Y-110510660D01*
X132052631Y-110617000D01*
X132107369Y-110617000D01*
X132641978Y-110510660D01*
X133095197Y-110207828D01*
X133101892Y-110197807D01*
X137333700Y-110197807D01*
X137596674Y-110834252D01*
X138083187Y-111321614D01*
X138719172Y-111585699D01*
X139407807Y-111586300D01*
X140044252Y-111323326D01*
X140531614Y-110836813D01*
X140795699Y-110200828D01*
X140796300Y-109512193D01*
X140533326Y-108875748D01*
X140046813Y-108388386D01*
X139410828Y-108124301D01*
X138722193Y-108123700D01*
X138085748Y-108386674D01*
X137598386Y-108873187D01*
X137334301Y-109509172D01*
X137333700Y-110197807D01*
X133101892Y-110197807D01*
X133398029Y-109754609D01*
X133504369Y-109220000D01*
X133398029Y-108685391D01*
X133370861Y-108644731D01*
X134829592Y-107186000D01*
X140760408Y-107186000D01*
X142243843Y-108669435D01*
X142243843Y-108669435D01*
G37*
X142243843Y-108669435D02*
X142129751Y-108944199D01*
X142129271Y-109493392D01*
X142338995Y-110000963D01*
X142726994Y-110389640D01*
X143234199Y-110600249D01*
X143783392Y-110600729D01*
X144060598Y-110486190D01*
X145057204Y-111482796D01*
X145221362Y-111592483D01*
X145415000Y-111631000D01*
X152788664Y-111631000D01*
X152697443Y-111877837D01*
X153670000Y-112850395D01*
X154642557Y-111877837D01*
X154551336Y-111631000D01*
X162350408Y-111631000D01*
X164742204Y-114022796D01*
X164906362Y-114132483D01*
X165100000Y-114171000D01*
X167640000Y-114171000D01*
X167700428Y-114158980D01*
X167430408Y-114429000D01*
X154551336Y-114429000D01*
X154642557Y-114182163D01*
X153670000Y-113209605D01*
X152697443Y-114182163D01*
X152788664Y-114429000D01*
X145624592Y-114429000D01*
X144776157Y-113580565D01*
X144890249Y-113305801D01*
X144890721Y-112765582D01*
X152024599Y-112765582D01*
X152048659Y-113415377D01*
X152251035Y-113903958D01*
X152517837Y-114002557D01*
X153490395Y-113030000D01*
X153849605Y-113030000D01*
X154822163Y-114002557D01*
X155088965Y-113903958D01*
X155315401Y-113294418D01*
X155291341Y-112644623D01*
X155088965Y-112156042D01*
X154822163Y-112057443D01*
X153849605Y-113030000D01*
X153490395Y-113030000D01*
X152517837Y-112057443D01*
X152251035Y-112156042D01*
X152024599Y-112765582D01*
X144890721Y-112765582D01*
X144890729Y-112756608D01*
X144681005Y-112249037D01*
X144293006Y-111860360D01*
X143785801Y-111649751D01*
X143236608Y-111649271D01*
X142729037Y-111858995D01*
X142340360Y-112246994D01*
X142225338Y-112524000D01*
X133403720Y-112524000D01*
X133398029Y-112495391D01*
X133095197Y-112042172D01*
X132641978Y-111739340D01*
X132107369Y-111633000D01*
X132052631Y-111633000D01*
X131518022Y-111739340D01*
X131064803Y-112042172D01*
X130944464Y-112222272D01*
X130944464Y-112014000D01*
X130917897Y-111872810D01*
X130834454Y-111743135D01*
X130707134Y-111656141D01*
X130556000Y-111625536D01*
X130175000Y-111625536D01*
X130175000Y-110624464D01*
X130556000Y-110624464D01*
X130697190Y-110597897D01*
X130826865Y-110514454D01*
X130913859Y-110387134D01*
X130944464Y-110236000D01*
X130944464Y-110027728D01*
X131064803Y-110207828D01*
X131518022Y-110510660D01*
X132052631Y-110617000D01*
X132107369Y-110617000D01*
X132641978Y-110510660D01*
X133095197Y-110207828D01*
X133101892Y-110197807D01*
X137333700Y-110197807D01*
X137596674Y-110834252D01*
X138083187Y-111321614D01*
X138719172Y-111585699D01*
X139407807Y-111586300D01*
X140044252Y-111323326D01*
X140531614Y-110836813D01*
X140795699Y-110200828D01*
X140796300Y-109512193D01*
X140533326Y-108875748D01*
X140046813Y-108388386D01*
X139410828Y-108124301D01*
X138722193Y-108123700D01*
X138085748Y-108386674D01*
X137598386Y-108873187D01*
X137334301Y-109509172D01*
X137333700Y-110197807D01*
X133101892Y-110197807D01*
X133398029Y-109754609D01*
X133504369Y-109220000D01*
X133398029Y-108685391D01*
X133370861Y-108644731D01*
X134829592Y-107186000D01*
X140760408Y-107186000D01*
X142243843Y-108669435D01*
G36*
X169674000Y-103714592D02*
X169674000Y-110915408D01*
X167430408Y-113159000D01*
X165309592Y-113159000D01*
X162917796Y-110767204D01*
X162753638Y-110657517D01*
X162560000Y-110619000D01*
X154551336Y-110619000D01*
X154642557Y-110372163D01*
X154468202Y-110197807D01*
X164638700Y-110197807D01*
X164901674Y-110834252D01*
X165388187Y-111321614D01*
X166024172Y-111585699D01*
X166712807Y-111586300D01*
X167349252Y-111323326D01*
X167836614Y-110836813D01*
X168100699Y-110200828D01*
X168101300Y-109512193D01*
X167838326Y-108875748D01*
X167351813Y-108388386D01*
X166715828Y-108124301D01*
X166027193Y-108123700D01*
X165390748Y-108386674D01*
X164903386Y-108873187D01*
X164639301Y-109509172D01*
X164638700Y-110197807D01*
X154468202Y-110197807D01*
X153670000Y-109399605D01*
X152697443Y-110372163D01*
X152788664Y-110619000D01*
X145624592Y-110619000D01*
X144776157Y-109770565D01*
X144890249Y-109495801D01*
X144890721Y-108955582D01*
X152024599Y-108955582D01*
X152048659Y-109605377D01*
X152251035Y-110093958D01*
X152517837Y-110192557D01*
X153490395Y-109220000D01*
X153849605Y-109220000D01*
X154822163Y-110192557D01*
X155088965Y-110093958D01*
X155315401Y-109484418D01*
X155291341Y-108834623D01*
X155088965Y-108346042D01*
X154822163Y-108247443D01*
X153849605Y-109220000D01*
X153490395Y-109220000D01*
X152517837Y-108247443D01*
X152251035Y-108346042D01*
X152024599Y-108955582D01*
X144890721Y-108955582D01*
X144890729Y-108946608D01*
X144681005Y-108439037D01*
X144293006Y-108050360D01*
X143785801Y-107839751D01*
X143236608Y-107839271D01*
X142959402Y-107953810D01*
X141327796Y-106322204D01*
X141163638Y-106212517D01*
X140970000Y-106174000D01*
X134620000Y-106174000D01*
X134426362Y-106212517D01*
X134262204Y-106322204D01*
X132649825Y-107934583D01*
X132641978Y-107929340D01*
X132107369Y-107823000D01*
X132052631Y-107823000D01*
X131518022Y-107929340D01*
X131064803Y-108232172D01*
X130944464Y-108412272D01*
X130944464Y-108204000D01*
X130917897Y-108062810D01*
X130834454Y-107933135D01*
X130707134Y-107846141D01*
X130556000Y-107815536D01*
X130175000Y-107815536D01*
X130175000Y-106814464D01*
X130556000Y-106814464D01*
X130697190Y-106787897D01*
X130826865Y-106704454D01*
X130913859Y-106577134D01*
X130944464Y-106426000D01*
X130944464Y-106217728D01*
X131064803Y-106397828D01*
X131518022Y-106700660D01*
X132052631Y-106807000D01*
X132107369Y-106807000D01*
X132641978Y-106700660D01*
X133095197Y-106397828D01*
X133398029Y-105944609D01*
X133403720Y-105916000D01*
X142225383Y-105916000D01*
X142338995Y-106190963D01*
X142726994Y-106579640D01*
X143234199Y-106790249D01*
X143783392Y-106790729D01*
X144060598Y-106676190D01*
X145057204Y-107672796D01*
X145221362Y-107782483D01*
X145415000Y-107821000D01*
X152788664Y-107821000D01*
X152697443Y-108067837D01*
X153670000Y-109040395D01*
X154642557Y-108067837D01*
X154551336Y-107821000D01*
X163830000Y-107821000D01*
X164023638Y-107782483D01*
X164187796Y-107672796D01*
X167103528Y-104757064D01*
X168503600Y-104757064D01*
X168644790Y-104730497D01*
X168774465Y-104647054D01*
X168861459Y-104519734D01*
X168892064Y-104368600D01*
X168892064Y-102932656D01*
X169674000Y-103714592D01*
X169674000Y-103714592D01*
G37*
X169674000Y-103714592D02*
X169674000Y-110915408D01*
X167430408Y-113159000D01*
X165309592Y-113159000D01*
X162917796Y-110767204D01*
X162753638Y-110657517D01*
X162560000Y-110619000D01*
X154551336Y-110619000D01*
X154642557Y-110372163D01*
X154468202Y-110197807D01*
X164638700Y-110197807D01*
X164901674Y-110834252D01*
X165388187Y-111321614D01*
X166024172Y-111585699D01*
X166712807Y-111586300D01*
X167349252Y-111323326D01*
X167836614Y-110836813D01*
X168100699Y-110200828D01*
X168101300Y-109512193D01*
X167838326Y-108875748D01*
X167351813Y-108388386D01*
X166715828Y-108124301D01*
X166027193Y-108123700D01*
X165390748Y-108386674D01*
X164903386Y-108873187D01*
X164639301Y-109509172D01*
X164638700Y-110197807D01*
X154468202Y-110197807D01*
X153670000Y-109399605D01*
X152697443Y-110372163D01*
X152788664Y-110619000D01*
X145624592Y-110619000D01*
X144776157Y-109770565D01*
X144890249Y-109495801D01*
X144890721Y-108955582D01*
X152024599Y-108955582D01*
X152048659Y-109605377D01*
X152251035Y-110093958D01*
X152517837Y-110192557D01*
X153490395Y-109220000D01*
X153849605Y-109220000D01*
X154822163Y-110192557D01*
X155088965Y-110093958D01*
X155315401Y-109484418D01*
X155291341Y-108834623D01*
X155088965Y-108346042D01*
X154822163Y-108247443D01*
X153849605Y-109220000D01*
X153490395Y-109220000D01*
X152517837Y-108247443D01*
X152251035Y-108346042D01*
X152024599Y-108955582D01*
X144890721Y-108955582D01*
X144890729Y-108946608D01*
X144681005Y-108439037D01*
X144293006Y-108050360D01*
X143785801Y-107839751D01*
X143236608Y-107839271D01*
X142959402Y-107953810D01*
X141327796Y-106322204D01*
X141163638Y-106212517D01*
X140970000Y-106174000D01*
X134620000Y-106174000D01*
X134426362Y-106212517D01*
X134262204Y-106322204D01*
X132649825Y-107934583D01*
X132641978Y-107929340D01*
X132107369Y-107823000D01*
X132052631Y-107823000D01*
X131518022Y-107929340D01*
X131064803Y-108232172D01*
X130944464Y-108412272D01*
X130944464Y-108204000D01*
X130917897Y-108062810D01*
X130834454Y-107933135D01*
X130707134Y-107846141D01*
X130556000Y-107815536D01*
X130175000Y-107815536D01*
X130175000Y-106814464D01*
X130556000Y-106814464D01*
X130697190Y-106787897D01*
X130826865Y-106704454D01*
X130913859Y-106577134D01*
X130944464Y-106426000D01*
X130944464Y-106217728D01*
X131064803Y-106397828D01*
X131518022Y-106700660D01*
X132052631Y-106807000D01*
X132107369Y-106807000D01*
X132641978Y-106700660D01*
X133095197Y-106397828D01*
X133398029Y-105944609D01*
X133403720Y-105916000D01*
X142225383Y-105916000D01*
X142338995Y-106190963D01*
X142726994Y-106579640D01*
X143234199Y-106790249D01*
X143783392Y-106790729D01*
X144060598Y-106676190D01*
X145057204Y-107672796D01*
X145221362Y-107782483D01*
X145415000Y-107821000D01*
X152788664Y-107821000D01*
X152697443Y-108067837D01*
X153670000Y-109040395D01*
X154642557Y-108067837D01*
X154551336Y-107821000D01*
X163830000Y-107821000D01*
X164023638Y-107782483D01*
X164187796Y-107672796D01*
X167103528Y-104757064D01*
X168503600Y-104757064D01*
X168644790Y-104730497D01*
X168774465Y-104647054D01*
X168861459Y-104519734D01*
X168892064Y-104368600D01*
X168892064Y-102932656D01*
X169674000Y-103714592D01*
M02*
