G04 #@! TF.FileFunction,Soldermask,Top*
%FSLAX46Y46*%
G04 Gerber Fmt 4.6, Leading zero omitted, Abs format (unit mm)*
G04 Created by KiCad (PCBNEW 4.0.1-stable) date 3/24/2016 2:30:21 AM*
%MOMM*%
G01*
G04 APERTURE LIST*
%ADD10C,0.200000*%
%ADD11C,3.100000*%
%ADD12C,1.924000*%
%ADD13R,1.924000X1.924000*%
%ADD14C,2.940000*%
%ADD15R,1.900000X1.700000*%
%ADD16R,2.432000X2.432000*%
%ADD17O,2.432000X2.432000*%
%ADD18R,2.127200X2.127200*%
%ADD19O,2.127200X2.127200*%
%ADD20C,2.127200*%
%ADD21C,2.398980*%
%ADD22R,1.598880X1.598880*%
G04 APERTURE END LIST*
D10*
D11*
X139065000Y-109855000D03*
X166370000Y-109855000D03*
X166370000Y-85090000D03*
D12*
X154305000Y-95885000D03*
D13*
X156845000Y-100965000D03*
D12*
X156845000Y-98425000D03*
X156845000Y-95885000D03*
X156845000Y-93345000D03*
X156845000Y-90805000D03*
D14*
X135255000Y-92075000D03*
X140335000Y-99695000D03*
D15*
X153750000Y-87630000D03*
X151050000Y-87630000D03*
D16*
X129540000Y-116840000D03*
D17*
X132080000Y-116840000D03*
D16*
X129540000Y-113030000D03*
D17*
X132080000Y-113030000D03*
D16*
X129540000Y-109220000D03*
D17*
X132080000Y-109220000D03*
D16*
X129540000Y-105410000D03*
D17*
X132080000Y-105410000D03*
D18*
X167640000Y-103505000D03*
D19*
X165100000Y-103505000D03*
X167640000Y-100965000D03*
X165100000Y-100965000D03*
X167640000Y-98425000D03*
X165100000Y-98425000D03*
X167640000Y-95885000D03*
D20*
X165100000Y-95885000D02*
X165100000Y-95885000D01*
D19*
X167640000Y-93345000D03*
X165100000Y-93345000D03*
D16*
X167640000Y-90170000D03*
D17*
X165100000Y-90170000D03*
D21*
X143510000Y-116840000D03*
X153670000Y-116840000D03*
X143510000Y-113030000D03*
X153670000Y-113030000D03*
X143510000Y-109220000D03*
X153670000Y-109220000D03*
X143510000Y-105410000D03*
X153670000Y-105410000D03*
D11*
X139065000Y-85090000D03*
D22*
X159605980Y-103505000D03*
X161704020Y-103505000D03*
D15*
X162005000Y-105410000D03*
X159305000Y-105410000D03*
M02*
