G04 #@! TF.FileFunction,Copper,L2,Bot,Signal*
%FSLAX46Y46*%
G04 Gerber Fmt 4.6, Leading zero omitted, Abs format (unit mm)*
G04 Created by KiCad (PCBNEW 4.0.1-stable) date 3/24/2016 2:30:21 AM*
%MOMM*%
G01*
G04 APERTURE LIST*
%ADD10C,0.200000*%
%ADD11C,1.524000*%
%ADD12R,1.524000X1.524000*%
%ADD13C,2.540000*%
%ADD14R,2.032000X2.032000*%
%ADD15O,2.032000X2.032000*%
%ADD16R,1.727200X1.727200*%
%ADD17O,1.727200X1.727200*%
%ADD18C,1.727200*%
%ADD19C,1.998980*%
%ADD20C,0.800000*%
%ADD21C,0.508000*%
%ADD22C,0.254000*%
G04 APERTURE END LIST*
D10*
D11*
X154305000Y-95885000D03*
D12*
X156845000Y-100965000D03*
D11*
X156845000Y-98425000D03*
X156845000Y-95885000D03*
X156845000Y-93345000D03*
X156845000Y-90805000D03*
D13*
X135255000Y-92075000D03*
X140335000Y-99695000D03*
D14*
X129540000Y-116840000D03*
D15*
X132080000Y-116840000D03*
D14*
X129540000Y-113030000D03*
D15*
X132080000Y-113030000D03*
D14*
X129540000Y-109220000D03*
D15*
X132080000Y-109220000D03*
D14*
X129540000Y-105410000D03*
D15*
X132080000Y-105410000D03*
D16*
X167640000Y-103505000D03*
D17*
X165100000Y-103505000D03*
X167640000Y-100965000D03*
X165100000Y-100965000D03*
X167640000Y-98425000D03*
X165100000Y-98425000D03*
X167640000Y-95885000D03*
D18*
X165100000Y-95885000D02*
X165100000Y-95885000D01*
D17*
X167640000Y-93345000D03*
X165100000Y-93345000D03*
D14*
X167640000Y-90170000D03*
D15*
X165100000Y-90170000D03*
D19*
X143510000Y-116840000D03*
X153670000Y-116840000D03*
X143510000Y-113030000D03*
X153670000Y-113030000D03*
X143510000Y-109220000D03*
X153670000Y-109220000D03*
X143510000Y-105410000D03*
X153670000Y-105410000D03*
D20*
X163830000Y-105410000D03*
X152400000Y-102870000D03*
D21*
X152400000Y-102304315D02*
X152400000Y-102870000D01*
X156845000Y-90805000D02*
X152400000Y-95250000D01*
X152400000Y-95250000D02*
X152400000Y-102304315D01*
D22*
G36*
X173514094Y-76822888D02*
X174187293Y-77272707D01*
X174637112Y-77945906D01*
X174804000Y-78784911D01*
X174804000Y-116795089D01*
X174637112Y-117634094D01*
X174187293Y-118307293D01*
X173514094Y-118757112D01*
X172675089Y-118924000D01*
X129584911Y-118924000D01*
X128745906Y-118757112D01*
X128072707Y-118307293D01*
X127622888Y-117634094D01*
X127456000Y-116795089D01*
X127456000Y-115824000D01*
X128135536Y-115824000D01*
X128135536Y-117856000D01*
X128162103Y-117997190D01*
X128245546Y-118126865D01*
X128372866Y-118213859D01*
X128524000Y-118244464D01*
X130556000Y-118244464D01*
X130697190Y-118217897D01*
X130826865Y-118134454D01*
X130913859Y-118007134D01*
X130944464Y-117856000D01*
X130944464Y-117647728D01*
X131064803Y-117827828D01*
X131518022Y-118130660D01*
X132052631Y-118237000D01*
X132107369Y-118237000D01*
X132641978Y-118130660D01*
X133095197Y-117827828D01*
X133398029Y-117374609D01*
X133449988Y-117113392D01*
X142129271Y-117113392D01*
X142338995Y-117620963D01*
X142726994Y-118009640D01*
X143234199Y-118220249D01*
X143783392Y-118220729D01*
X144290963Y-118011005D01*
X144309837Y-117992163D01*
X152697443Y-117992163D01*
X152796042Y-118258965D01*
X153405582Y-118485401D01*
X154055377Y-118461341D01*
X154543958Y-118258965D01*
X154642557Y-117992163D01*
X153670000Y-117019605D01*
X152697443Y-117992163D01*
X144309837Y-117992163D01*
X144679640Y-117623006D01*
X144890249Y-117115801D01*
X144890721Y-116575582D01*
X152024599Y-116575582D01*
X152048659Y-117225377D01*
X152251035Y-117713958D01*
X152517837Y-117812557D01*
X153490395Y-116840000D01*
X153849605Y-116840000D01*
X154822163Y-117812557D01*
X155088965Y-117713958D01*
X155315401Y-117104418D01*
X155291341Y-116454623D01*
X155088965Y-115966042D01*
X154822163Y-115867443D01*
X153849605Y-116840000D01*
X153490395Y-116840000D01*
X152517837Y-115867443D01*
X152251035Y-115966042D01*
X152024599Y-116575582D01*
X144890721Y-116575582D01*
X144890729Y-116566608D01*
X144681005Y-116059037D01*
X144310453Y-115687837D01*
X152697443Y-115687837D01*
X153670000Y-116660395D01*
X154642557Y-115687837D01*
X154543958Y-115421035D01*
X153934418Y-115194599D01*
X153284623Y-115218659D01*
X152796042Y-115421035D01*
X152697443Y-115687837D01*
X144310453Y-115687837D01*
X144293006Y-115670360D01*
X143785801Y-115459751D01*
X143236608Y-115459271D01*
X142729037Y-115668995D01*
X142340360Y-116056994D01*
X142129751Y-116564199D01*
X142129271Y-117113392D01*
X133449988Y-117113392D01*
X133504369Y-116840000D01*
X133398029Y-116305391D01*
X133095197Y-115852172D01*
X132641978Y-115549340D01*
X132107369Y-115443000D01*
X132052631Y-115443000D01*
X131518022Y-115549340D01*
X131064803Y-115852172D01*
X130944464Y-116032272D01*
X130944464Y-115824000D01*
X130917897Y-115682810D01*
X130834454Y-115553135D01*
X130707134Y-115466141D01*
X130556000Y-115435536D01*
X128524000Y-115435536D01*
X128382810Y-115462103D01*
X128253135Y-115545546D01*
X128166141Y-115672866D01*
X128135536Y-115824000D01*
X127456000Y-115824000D01*
X127456000Y-112014000D01*
X128135536Y-112014000D01*
X128135536Y-114046000D01*
X128162103Y-114187190D01*
X128245546Y-114316865D01*
X128372866Y-114403859D01*
X128524000Y-114434464D01*
X130556000Y-114434464D01*
X130697190Y-114407897D01*
X130826865Y-114324454D01*
X130913859Y-114197134D01*
X130944464Y-114046000D01*
X130944464Y-113837728D01*
X131064803Y-114017828D01*
X131518022Y-114320660D01*
X132052631Y-114427000D01*
X132107369Y-114427000D01*
X132641978Y-114320660D01*
X133095197Y-114017828D01*
X133398029Y-113564609D01*
X133449988Y-113303392D01*
X142129271Y-113303392D01*
X142338995Y-113810963D01*
X142726994Y-114199640D01*
X143234199Y-114410249D01*
X143783392Y-114410729D01*
X144290963Y-114201005D01*
X144309837Y-114182163D01*
X152697443Y-114182163D01*
X152796042Y-114448965D01*
X153405582Y-114675401D01*
X154055377Y-114651341D01*
X154543958Y-114448965D01*
X154642557Y-114182163D01*
X153670000Y-113209605D01*
X152697443Y-114182163D01*
X144309837Y-114182163D01*
X144679640Y-113813006D01*
X144890249Y-113305801D01*
X144890721Y-112765582D01*
X152024599Y-112765582D01*
X152048659Y-113415377D01*
X152251035Y-113903958D01*
X152517837Y-114002557D01*
X153490395Y-113030000D01*
X153849605Y-113030000D01*
X154822163Y-114002557D01*
X155088965Y-113903958D01*
X155315401Y-113294418D01*
X155291341Y-112644623D01*
X155088965Y-112156042D01*
X154822163Y-112057443D01*
X153849605Y-113030000D01*
X153490395Y-113030000D01*
X152517837Y-112057443D01*
X152251035Y-112156042D01*
X152024599Y-112765582D01*
X144890721Y-112765582D01*
X144890729Y-112756608D01*
X144681005Y-112249037D01*
X144310453Y-111877837D01*
X152697443Y-111877837D01*
X153670000Y-112850395D01*
X154642557Y-111877837D01*
X154543958Y-111611035D01*
X153934418Y-111384599D01*
X153284623Y-111408659D01*
X152796042Y-111611035D01*
X152697443Y-111877837D01*
X144310453Y-111877837D01*
X144293006Y-111860360D01*
X143785801Y-111649751D01*
X143236608Y-111649271D01*
X142729037Y-111858995D01*
X142340360Y-112246994D01*
X142129751Y-112754199D01*
X142129271Y-113303392D01*
X133449988Y-113303392D01*
X133504369Y-113030000D01*
X133398029Y-112495391D01*
X133095197Y-112042172D01*
X132641978Y-111739340D01*
X132107369Y-111633000D01*
X132052631Y-111633000D01*
X131518022Y-111739340D01*
X131064803Y-112042172D01*
X130944464Y-112222272D01*
X130944464Y-112014000D01*
X130917897Y-111872810D01*
X130834454Y-111743135D01*
X130707134Y-111656141D01*
X130556000Y-111625536D01*
X128524000Y-111625536D01*
X128382810Y-111652103D01*
X128253135Y-111735546D01*
X128166141Y-111862866D01*
X128135536Y-112014000D01*
X127456000Y-112014000D01*
X127456000Y-108204000D01*
X128135536Y-108204000D01*
X128135536Y-110236000D01*
X128162103Y-110377190D01*
X128245546Y-110506865D01*
X128372866Y-110593859D01*
X128524000Y-110624464D01*
X130556000Y-110624464D01*
X130697190Y-110597897D01*
X130826865Y-110514454D01*
X130913859Y-110387134D01*
X130944464Y-110236000D01*
X130944464Y-110027728D01*
X131064803Y-110207828D01*
X131518022Y-110510660D01*
X132052631Y-110617000D01*
X132107369Y-110617000D01*
X132641978Y-110510660D01*
X133095197Y-110207828D01*
X133101892Y-110197807D01*
X137333700Y-110197807D01*
X137596674Y-110834252D01*
X138083187Y-111321614D01*
X138719172Y-111585699D01*
X139407807Y-111586300D01*
X140044252Y-111323326D01*
X140531614Y-110836813D01*
X140795699Y-110200828D01*
X140796300Y-109512193D01*
X140788532Y-109493392D01*
X142129271Y-109493392D01*
X142338995Y-110000963D01*
X142726994Y-110389640D01*
X143234199Y-110600249D01*
X143783392Y-110600729D01*
X144290963Y-110391005D01*
X144309837Y-110372163D01*
X152697443Y-110372163D01*
X152796042Y-110638965D01*
X153405582Y-110865401D01*
X154055377Y-110841341D01*
X154543958Y-110638965D01*
X154642557Y-110372163D01*
X154468202Y-110197807D01*
X164638700Y-110197807D01*
X164901674Y-110834252D01*
X165388187Y-111321614D01*
X166024172Y-111585699D01*
X166712807Y-111586300D01*
X167349252Y-111323326D01*
X167836614Y-110836813D01*
X168100699Y-110200828D01*
X168101300Y-109512193D01*
X167838326Y-108875748D01*
X167351813Y-108388386D01*
X166715828Y-108124301D01*
X166027193Y-108123700D01*
X165390748Y-108386674D01*
X164903386Y-108873187D01*
X164639301Y-109509172D01*
X164638700Y-110197807D01*
X154468202Y-110197807D01*
X153670000Y-109399605D01*
X152697443Y-110372163D01*
X144309837Y-110372163D01*
X144679640Y-110003006D01*
X144890249Y-109495801D01*
X144890721Y-108955582D01*
X152024599Y-108955582D01*
X152048659Y-109605377D01*
X152251035Y-110093958D01*
X152517837Y-110192557D01*
X153490395Y-109220000D01*
X153849605Y-109220000D01*
X154822163Y-110192557D01*
X155088965Y-110093958D01*
X155315401Y-109484418D01*
X155291341Y-108834623D01*
X155088965Y-108346042D01*
X154822163Y-108247443D01*
X153849605Y-109220000D01*
X153490395Y-109220000D01*
X152517837Y-108247443D01*
X152251035Y-108346042D01*
X152024599Y-108955582D01*
X144890721Y-108955582D01*
X144890729Y-108946608D01*
X144681005Y-108439037D01*
X144310453Y-108067837D01*
X152697443Y-108067837D01*
X153670000Y-109040395D01*
X154642557Y-108067837D01*
X154543958Y-107801035D01*
X153934418Y-107574599D01*
X153284623Y-107598659D01*
X152796042Y-107801035D01*
X152697443Y-108067837D01*
X144310453Y-108067837D01*
X144293006Y-108050360D01*
X143785801Y-107839751D01*
X143236608Y-107839271D01*
X142729037Y-108048995D01*
X142340360Y-108436994D01*
X142129751Y-108944199D01*
X142129271Y-109493392D01*
X140788532Y-109493392D01*
X140533326Y-108875748D01*
X140046813Y-108388386D01*
X139410828Y-108124301D01*
X138722193Y-108123700D01*
X138085748Y-108386674D01*
X137598386Y-108873187D01*
X137334301Y-109509172D01*
X137333700Y-110197807D01*
X133101892Y-110197807D01*
X133398029Y-109754609D01*
X133504369Y-109220000D01*
X133398029Y-108685391D01*
X133095197Y-108232172D01*
X132641978Y-107929340D01*
X132107369Y-107823000D01*
X132052631Y-107823000D01*
X131518022Y-107929340D01*
X131064803Y-108232172D01*
X130944464Y-108412272D01*
X130944464Y-108204000D01*
X130917897Y-108062810D01*
X130834454Y-107933135D01*
X130707134Y-107846141D01*
X130556000Y-107815536D01*
X128524000Y-107815536D01*
X128382810Y-107842103D01*
X128253135Y-107925546D01*
X128166141Y-108052866D01*
X128135536Y-108204000D01*
X127456000Y-108204000D01*
X127456000Y-104394000D01*
X128135536Y-104394000D01*
X128135536Y-106426000D01*
X128162103Y-106567190D01*
X128245546Y-106696865D01*
X128372866Y-106783859D01*
X128524000Y-106814464D01*
X130556000Y-106814464D01*
X130697190Y-106787897D01*
X130826865Y-106704454D01*
X130913859Y-106577134D01*
X130944464Y-106426000D01*
X130944464Y-106217728D01*
X131064803Y-106397828D01*
X131518022Y-106700660D01*
X132052631Y-106807000D01*
X132107369Y-106807000D01*
X132641978Y-106700660D01*
X133095197Y-106397828D01*
X133398029Y-105944609D01*
X133449988Y-105683392D01*
X142129271Y-105683392D01*
X142338995Y-106190963D01*
X142726994Y-106579640D01*
X143234199Y-106790249D01*
X143783392Y-106790729D01*
X144290963Y-106581005D01*
X144309837Y-106562163D01*
X152697443Y-106562163D01*
X152796042Y-106828965D01*
X153405582Y-107055401D01*
X154055377Y-107031341D01*
X154543958Y-106828965D01*
X154642557Y-106562163D01*
X153670000Y-105589605D01*
X152697443Y-106562163D01*
X144309837Y-106562163D01*
X144679640Y-106193006D01*
X144890249Y-105685801D01*
X144890721Y-105145582D01*
X152024599Y-105145582D01*
X152048659Y-105795377D01*
X152251035Y-106283958D01*
X152517837Y-106382557D01*
X153490395Y-105410000D01*
X153849605Y-105410000D01*
X154822163Y-106382557D01*
X155088965Y-106283958D01*
X155315401Y-105674418D01*
X155291341Y-105024623D01*
X155088965Y-104536042D01*
X154822163Y-104437443D01*
X153849605Y-105410000D01*
X153490395Y-105410000D01*
X152517837Y-104437443D01*
X152251035Y-104536042D01*
X152024599Y-105145582D01*
X144890721Y-105145582D01*
X144890729Y-105136608D01*
X144681005Y-104629037D01*
X144310453Y-104257837D01*
X152697443Y-104257837D01*
X153670000Y-105230395D01*
X154642557Y-104257837D01*
X154543958Y-103991035D01*
X153934418Y-103764599D01*
X153284623Y-103788659D01*
X152796042Y-103991035D01*
X152697443Y-104257837D01*
X144310453Y-104257837D01*
X144293006Y-104240360D01*
X143785801Y-104029751D01*
X143236608Y-104029271D01*
X142729037Y-104238995D01*
X142340360Y-104626994D01*
X142129751Y-105134199D01*
X142129271Y-105683392D01*
X133449988Y-105683392D01*
X133504369Y-105410000D01*
X133398029Y-104875391D01*
X133095197Y-104422172D01*
X132641978Y-104119340D01*
X132107369Y-104013000D01*
X132052631Y-104013000D01*
X131518022Y-104119340D01*
X131064803Y-104422172D01*
X130944464Y-104602272D01*
X130944464Y-104394000D01*
X130917897Y-104252810D01*
X130834454Y-104123135D01*
X130707134Y-104036141D01*
X130556000Y-104005536D01*
X128524000Y-104005536D01*
X128382810Y-104032103D01*
X128253135Y-104115546D01*
X128166141Y-104242866D01*
X128135536Y-104394000D01*
X127456000Y-104394000D01*
X127456000Y-103024669D01*
X151618864Y-103024669D01*
X151737514Y-103311823D01*
X151957021Y-103531714D01*
X152243968Y-103650864D01*
X152554669Y-103651136D01*
X152841823Y-103532486D01*
X152893782Y-103480617D01*
X163855400Y-103480617D01*
X163855400Y-103529383D01*
X163950140Y-104005671D01*
X164219935Y-104409448D01*
X164623712Y-104679243D01*
X165100000Y-104773983D01*
X165576288Y-104679243D01*
X165980065Y-104409448D01*
X166249860Y-104005671D01*
X166344600Y-103529383D01*
X166344600Y-103480617D01*
X166249860Y-103004329D01*
X166007359Y-102641400D01*
X166387936Y-102641400D01*
X166387936Y-104368600D01*
X166414503Y-104509790D01*
X166497946Y-104639465D01*
X166625266Y-104726459D01*
X166776400Y-104757064D01*
X168503600Y-104757064D01*
X168644790Y-104730497D01*
X168774465Y-104647054D01*
X168861459Y-104519734D01*
X168892064Y-104368600D01*
X168892064Y-102641400D01*
X168865497Y-102500210D01*
X168782054Y-102370535D01*
X168654734Y-102283541D01*
X168503600Y-102252936D01*
X166776400Y-102252936D01*
X166635210Y-102279503D01*
X166505535Y-102362946D01*
X166418541Y-102490266D01*
X166387936Y-102641400D01*
X166007359Y-102641400D01*
X165980065Y-102600552D01*
X165576288Y-102330757D01*
X165100000Y-102236017D01*
X164623712Y-102330757D01*
X164219935Y-102600552D01*
X163950140Y-103004329D01*
X163855400Y-103480617D01*
X152893782Y-103480617D01*
X153061714Y-103312979D01*
X153180864Y-103026032D01*
X153181136Y-102715331D01*
X153062486Y-102428177D01*
X153035000Y-102400643D01*
X153035000Y-100203000D01*
X155694536Y-100203000D01*
X155694536Y-101727000D01*
X155721103Y-101868190D01*
X155804546Y-101997865D01*
X155931866Y-102084859D01*
X156083000Y-102115464D01*
X157607000Y-102115464D01*
X157748190Y-102088897D01*
X157877865Y-102005454D01*
X157964859Y-101878134D01*
X157995464Y-101727000D01*
X157995464Y-100940617D01*
X163855400Y-100940617D01*
X163855400Y-100989383D01*
X163950140Y-101465671D01*
X164219935Y-101869448D01*
X164623712Y-102139243D01*
X165100000Y-102233983D01*
X165576288Y-102139243D01*
X165980065Y-101869448D01*
X166249860Y-101465671D01*
X166344600Y-100989383D01*
X166344600Y-100940617D01*
X166395400Y-100940617D01*
X166395400Y-100989383D01*
X166490140Y-101465671D01*
X166759935Y-101869448D01*
X167163712Y-102139243D01*
X167640000Y-102233983D01*
X168116288Y-102139243D01*
X168520065Y-101869448D01*
X168789860Y-101465671D01*
X168884600Y-100989383D01*
X168884600Y-100940617D01*
X168789860Y-100464329D01*
X168520065Y-100060552D01*
X168116288Y-99790757D01*
X167640000Y-99696017D01*
X167163712Y-99790757D01*
X166759935Y-100060552D01*
X166490140Y-100464329D01*
X166395400Y-100940617D01*
X166344600Y-100940617D01*
X166249860Y-100464329D01*
X165980065Y-100060552D01*
X165576288Y-99790757D01*
X165100000Y-99696017D01*
X164623712Y-99790757D01*
X164219935Y-100060552D01*
X163950140Y-100464329D01*
X163855400Y-100940617D01*
X157995464Y-100940617D01*
X157995464Y-100203000D01*
X157968897Y-100061810D01*
X157885454Y-99932135D01*
X157758134Y-99845141D01*
X157607000Y-99814536D01*
X156083000Y-99814536D01*
X155941810Y-99841103D01*
X155812135Y-99924546D01*
X155725141Y-100051866D01*
X155694536Y-100203000D01*
X153035000Y-100203000D01*
X153035000Y-98651359D01*
X155701802Y-98651359D01*
X155875446Y-99071612D01*
X156196697Y-99393423D01*
X156616646Y-99567801D01*
X157071359Y-99568198D01*
X157491612Y-99394554D01*
X157813423Y-99073303D01*
X157987801Y-98653354D01*
X157988021Y-98400617D01*
X163855400Y-98400617D01*
X163855400Y-98449383D01*
X163950140Y-98925671D01*
X164219935Y-99329448D01*
X164623712Y-99599243D01*
X165100000Y-99693983D01*
X165576288Y-99599243D01*
X165980065Y-99329448D01*
X166249860Y-98925671D01*
X166344600Y-98449383D01*
X166344600Y-98400617D01*
X166395400Y-98400617D01*
X166395400Y-98449383D01*
X166490140Y-98925671D01*
X166759935Y-99329448D01*
X167163712Y-99599243D01*
X167640000Y-99693983D01*
X168116288Y-99599243D01*
X168520065Y-99329448D01*
X168789860Y-98925671D01*
X168884600Y-98449383D01*
X168884600Y-98400617D01*
X168789860Y-97924329D01*
X168520065Y-97520552D01*
X168116288Y-97250757D01*
X167640000Y-97156017D01*
X167163712Y-97250757D01*
X166759935Y-97520552D01*
X166490140Y-97924329D01*
X166395400Y-98400617D01*
X166344600Y-98400617D01*
X166249860Y-97924329D01*
X165980065Y-97520552D01*
X165600539Y-97266961D01*
X165874947Y-97167688D01*
X165953810Y-96918415D01*
X165100000Y-96064605D01*
X164246652Y-96917954D01*
X164325059Y-97167680D01*
X164586169Y-97275842D01*
X164219935Y-97520552D01*
X163950140Y-97924329D01*
X163855400Y-98400617D01*
X157988021Y-98400617D01*
X157988198Y-98198641D01*
X157814554Y-97778388D01*
X157493303Y-97456577D01*
X157073354Y-97282199D01*
X156879340Y-97282030D01*
X157192368Y-97266362D01*
X157576143Y-97107397D01*
X157645608Y-96865213D01*
X156845000Y-96064605D01*
X156044392Y-96865213D01*
X156113857Y-97107397D01*
X156611258Y-97284852D01*
X156198388Y-97455446D01*
X155876577Y-97776697D01*
X155702199Y-98196646D01*
X155701802Y-98651359D01*
X153035000Y-98651359D01*
X153035000Y-96111359D01*
X153161802Y-96111359D01*
X153335446Y-96531612D01*
X153656697Y-96853423D01*
X154076646Y-97027801D01*
X154531359Y-97028198D01*
X154951612Y-96854554D01*
X155273423Y-96533303D01*
X155447801Y-96113354D01*
X155447970Y-95919340D01*
X155463638Y-96232368D01*
X155622603Y-96616143D01*
X155864787Y-96685608D01*
X156665395Y-95885000D01*
X157024605Y-95885000D01*
X157825213Y-96685608D01*
X158067397Y-96616143D01*
X158254144Y-96092698D01*
X158232483Y-95659906D01*
X163618391Y-95659906D01*
X163645032Y-96244027D01*
X163817320Y-96659941D01*
X164067046Y-96738348D01*
X164920395Y-95885000D01*
X165279605Y-95885000D01*
X166133415Y-96738810D01*
X166382688Y-96659947D01*
X166487221Y-96370998D01*
X166490140Y-96385671D01*
X166759935Y-96789448D01*
X167163712Y-97059243D01*
X167640000Y-97153983D01*
X168116288Y-97059243D01*
X168520065Y-96789448D01*
X168789860Y-96385671D01*
X168884600Y-95909383D01*
X168884600Y-95860617D01*
X168789860Y-95384329D01*
X168520065Y-94980552D01*
X168116288Y-94710757D01*
X167640000Y-94616017D01*
X167163712Y-94710757D01*
X166759935Y-94980552D01*
X166493939Y-95378644D01*
X166382680Y-95110059D01*
X166132954Y-95031652D01*
X165279605Y-95885000D01*
X164920395Y-95885000D01*
X164066585Y-95031190D01*
X163817312Y-95110053D01*
X163618391Y-95659906D01*
X158232483Y-95659906D01*
X158226362Y-95537632D01*
X158067397Y-95153857D01*
X157825213Y-95084392D01*
X157024605Y-95885000D01*
X156665395Y-95885000D01*
X155864787Y-95084392D01*
X155622603Y-95153857D01*
X155445148Y-95651258D01*
X155274554Y-95238388D01*
X154953303Y-94916577D01*
X154533354Y-94742199D01*
X154078641Y-94741802D01*
X153658388Y-94915446D01*
X153336577Y-95236697D01*
X153162199Y-95656646D01*
X153161802Y-96111359D01*
X153035000Y-96111359D01*
X153035000Y-95513026D01*
X154976667Y-93571359D01*
X155701802Y-93571359D01*
X155875446Y-93991612D01*
X156196697Y-94313423D01*
X156616646Y-94487801D01*
X156810660Y-94487970D01*
X156497632Y-94503638D01*
X156113857Y-94662603D01*
X156044392Y-94904787D01*
X156845000Y-95705395D01*
X157645608Y-94904787D01*
X157576143Y-94662603D01*
X157078742Y-94485148D01*
X157491612Y-94314554D01*
X157813423Y-93993303D01*
X157987801Y-93573354D01*
X157988021Y-93320617D01*
X163855400Y-93320617D01*
X163855400Y-93369383D01*
X163950140Y-93845671D01*
X164219935Y-94249448D01*
X164599461Y-94503039D01*
X164325053Y-94602312D01*
X164246190Y-94851585D01*
X165100000Y-95705395D01*
X165953348Y-94852046D01*
X165874941Y-94602320D01*
X165613831Y-94494158D01*
X165980065Y-94249448D01*
X166249860Y-93845671D01*
X166344600Y-93369383D01*
X166344600Y-93320617D01*
X166395400Y-93320617D01*
X166395400Y-93369383D01*
X166490140Y-93845671D01*
X166759935Y-94249448D01*
X167163712Y-94519243D01*
X167640000Y-94613983D01*
X168116288Y-94519243D01*
X168520065Y-94249448D01*
X168789860Y-93845671D01*
X168884600Y-93369383D01*
X168884600Y-93320617D01*
X168789860Y-92844329D01*
X168520065Y-92440552D01*
X168116288Y-92170757D01*
X167640000Y-92076017D01*
X167163712Y-92170757D01*
X166759935Y-92440552D01*
X166490140Y-92844329D01*
X166395400Y-93320617D01*
X166344600Y-93320617D01*
X166249860Y-92844329D01*
X165980065Y-92440552D01*
X165576288Y-92170757D01*
X165100000Y-92076017D01*
X164623712Y-92170757D01*
X164219935Y-92440552D01*
X163950140Y-92844329D01*
X163855400Y-93320617D01*
X157988021Y-93320617D01*
X157988198Y-93118641D01*
X157814554Y-92698388D01*
X157493303Y-92376577D01*
X157073354Y-92202199D01*
X156618641Y-92201802D01*
X156198388Y-92375446D01*
X155876577Y-92696697D01*
X155702199Y-93116646D01*
X155701802Y-93571359D01*
X154976667Y-93571359D01*
X156605043Y-91942983D01*
X156616646Y-91947801D01*
X157071359Y-91948198D01*
X157491612Y-91774554D01*
X157813423Y-91453303D01*
X157987801Y-91033354D01*
X157988198Y-90578641D01*
X157977581Y-90552944D01*
X163494025Y-90552944D01*
X163693615Y-91034818D01*
X164131621Y-91507188D01*
X164717054Y-91775983D01*
X164973000Y-91657367D01*
X164973000Y-90297000D01*
X163613164Y-90297000D01*
X163494025Y-90552944D01*
X157977581Y-90552944D01*
X157814554Y-90158388D01*
X157493303Y-89836577D01*
X157374044Y-89787056D01*
X163494025Y-89787056D01*
X163613164Y-90043000D01*
X164973000Y-90043000D01*
X164973000Y-88682633D01*
X165227000Y-88682633D01*
X165227000Y-90043000D01*
X165247000Y-90043000D01*
X165247000Y-90297000D01*
X165227000Y-90297000D01*
X165227000Y-91657367D01*
X165482946Y-91775983D01*
X166068379Y-91507188D01*
X166257579Y-91303145D01*
X166262103Y-91327190D01*
X166345546Y-91456865D01*
X166472866Y-91543859D01*
X166624000Y-91574464D01*
X168656000Y-91574464D01*
X168797190Y-91547897D01*
X168926865Y-91464454D01*
X169013859Y-91337134D01*
X169044464Y-91186000D01*
X169044464Y-89154000D01*
X169017897Y-89012810D01*
X168934454Y-88883135D01*
X168807134Y-88796141D01*
X168656000Y-88765536D01*
X166624000Y-88765536D01*
X166482810Y-88792103D01*
X166353135Y-88875546D01*
X166266141Y-89002866D01*
X166258957Y-89038342D01*
X166068379Y-88832812D01*
X165482946Y-88564017D01*
X165227000Y-88682633D01*
X164973000Y-88682633D01*
X164717054Y-88564017D01*
X164131621Y-88832812D01*
X163693615Y-89305182D01*
X163494025Y-89787056D01*
X157374044Y-89787056D01*
X157073354Y-89662199D01*
X156618641Y-89661802D01*
X156198388Y-89835446D01*
X155876577Y-90156697D01*
X155702199Y-90576646D01*
X155701802Y-91031359D01*
X155707303Y-91044671D01*
X151950987Y-94800987D01*
X151813336Y-95006996D01*
X151765000Y-95250000D01*
X151765000Y-102400354D01*
X151738286Y-102427021D01*
X151619136Y-102713968D01*
X151618864Y-103024669D01*
X127456000Y-103024669D01*
X127456000Y-100021963D01*
X138683714Y-100021963D01*
X138934534Y-100628995D01*
X139398563Y-101093834D01*
X140005155Y-101345713D01*
X140661963Y-101346286D01*
X141268995Y-101095466D01*
X141733834Y-100631437D01*
X141985713Y-100024845D01*
X141986286Y-99368037D01*
X141735466Y-98761005D01*
X141271437Y-98296166D01*
X140664845Y-98044287D01*
X140008037Y-98043714D01*
X139401005Y-98294534D01*
X138936166Y-98758563D01*
X138684287Y-99365155D01*
X138683714Y-100021963D01*
X127456000Y-100021963D01*
X127456000Y-92401963D01*
X133603714Y-92401963D01*
X133854534Y-93008995D01*
X134318563Y-93473834D01*
X134925155Y-93725713D01*
X135581963Y-93726286D01*
X136188995Y-93475466D01*
X136653834Y-93011437D01*
X136905713Y-92404845D01*
X136906286Y-91748037D01*
X136655466Y-91141005D01*
X136191437Y-90676166D01*
X135584845Y-90424287D01*
X134928037Y-90423714D01*
X134321005Y-90674534D01*
X133856166Y-91138563D01*
X133604287Y-91745155D01*
X133603714Y-92401963D01*
X127456000Y-92401963D01*
X127456000Y-85432807D01*
X137333700Y-85432807D01*
X137596674Y-86069252D01*
X138083187Y-86556614D01*
X138719172Y-86820699D01*
X139407807Y-86821300D01*
X140044252Y-86558326D01*
X140531614Y-86071813D01*
X140795699Y-85435828D01*
X140795701Y-85432807D01*
X164638700Y-85432807D01*
X164901674Y-86069252D01*
X165388187Y-86556614D01*
X166024172Y-86820699D01*
X166712807Y-86821300D01*
X167349252Y-86558326D01*
X167836614Y-86071813D01*
X168100699Y-85435828D01*
X168101300Y-84747193D01*
X167838326Y-84110748D01*
X167351813Y-83623386D01*
X166715828Y-83359301D01*
X166027193Y-83358700D01*
X165390748Y-83621674D01*
X164903386Y-84108187D01*
X164639301Y-84744172D01*
X164638700Y-85432807D01*
X140795701Y-85432807D01*
X140796300Y-84747193D01*
X140533326Y-84110748D01*
X140046813Y-83623386D01*
X139410828Y-83359301D01*
X138722193Y-83358700D01*
X138085748Y-83621674D01*
X137598386Y-84108187D01*
X137334301Y-84744172D01*
X137333700Y-85432807D01*
X127456000Y-85432807D01*
X127456000Y-78784911D01*
X127622888Y-77945906D01*
X128072707Y-77272707D01*
X128745906Y-76822888D01*
X129584911Y-76656000D01*
X172675089Y-76656000D01*
X173514094Y-76822888D01*
X173514094Y-76822888D01*
G37*
X173514094Y-76822888D02*
X174187293Y-77272707D01*
X174637112Y-77945906D01*
X174804000Y-78784911D01*
X174804000Y-116795089D01*
X174637112Y-117634094D01*
X174187293Y-118307293D01*
X173514094Y-118757112D01*
X172675089Y-118924000D01*
X129584911Y-118924000D01*
X128745906Y-118757112D01*
X128072707Y-118307293D01*
X127622888Y-117634094D01*
X127456000Y-116795089D01*
X127456000Y-115824000D01*
X128135536Y-115824000D01*
X128135536Y-117856000D01*
X128162103Y-117997190D01*
X128245546Y-118126865D01*
X128372866Y-118213859D01*
X128524000Y-118244464D01*
X130556000Y-118244464D01*
X130697190Y-118217897D01*
X130826865Y-118134454D01*
X130913859Y-118007134D01*
X130944464Y-117856000D01*
X130944464Y-117647728D01*
X131064803Y-117827828D01*
X131518022Y-118130660D01*
X132052631Y-118237000D01*
X132107369Y-118237000D01*
X132641978Y-118130660D01*
X133095197Y-117827828D01*
X133398029Y-117374609D01*
X133449988Y-117113392D01*
X142129271Y-117113392D01*
X142338995Y-117620963D01*
X142726994Y-118009640D01*
X143234199Y-118220249D01*
X143783392Y-118220729D01*
X144290963Y-118011005D01*
X144309837Y-117992163D01*
X152697443Y-117992163D01*
X152796042Y-118258965D01*
X153405582Y-118485401D01*
X154055377Y-118461341D01*
X154543958Y-118258965D01*
X154642557Y-117992163D01*
X153670000Y-117019605D01*
X152697443Y-117992163D01*
X144309837Y-117992163D01*
X144679640Y-117623006D01*
X144890249Y-117115801D01*
X144890721Y-116575582D01*
X152024599Y-116575582D01*
X152048659Y-117225377D01*
X152251035Y-117713958D01*
X152517837Y-117812557D01*
X153490395Y-116840000D01*
X153849605Y-116840000D01*
X154822163Y-117812557D01*
X155088965Y-117713958D01*
X155315401Y-117104418D01*
X155291341Y-116454623D01*
X155088965Y-115966042D01*
X154822163Y-115867443D01*
X153849605Y-116840000D01*
X153490395Y-116840000D01*
X152517837Y-115867443D01*
X152251035Y-115966042D01*
X152024599Y-116575582D01*
X144890721Y-116575582D01*
X144890729Y-116566608D01*
X144681005Y-116059037D01*
X144310453Y-115687837D01*
X152697443Y-115687837D01*
X153670000Y-116660395D01*
X154642557Y-115687837D01*
X154543958Y-115421035D01*
X153934418Y-115194599D01*
X153284623Y-115218659D01*
X152796042Y-115421035D01*
X152697443Y-115687837D01*
X144310453Y-115687837D01*
X144293006Y-115670360D01*
X143785801Y-115459751D01*
X143236608Y-115459271D01*
X142729037Y-115668995D01*
X142340360Y-116056994D01*
X142129751Y-116564199D01*
X142129271Y-117113392D01*
X133449988Y-117113392D01*
X133504369Y-116840000D01*
X133398029Y-116305391D01*
X133095197Y-115852172D01*
X132641978Y-115549340D01*
X132107369Y-115443000D01*
X132052631Y-115443000D01*
X131518022Y-115549340D01*
X131064803Y-115852172D01*
X130944464Y-116032272D01*
X130944464Y-115824000D01*
X130917897Y-115682810D01*
X130834454Y-115553135D01*
X130707134Y-115466141D01*
X130556000Y-115435536D01*
X128524000Y-115435536D01*
X128382810Y-115462103D01*
X128253135Y-115545546D01*
X128166141Y-115672866D01*
X128135536Y-115824000D01*
X127456000Y-115824000D01*
X127456000Y-112014000D01*
X128135536Y-112014000D01*
X128135536Y-114046000D01*
X128162103Y-114187190D01*
X128245546Y-114316865D01*
X128372866Y-114403859D01*
X128524000Y-114434464D01*
X130556000Y-114434464D01*
X130697190Y-114407897D01*
X130826865Y-114324454D01*
X130913859Y-114197134D01*
X130944464Y-114046000D01*
X130944464Y-113837728D01*
X131064803Y-114017828D01*
X131518022Y-114320660D01*
X132052631Y-114427000D01*
X132107369Y-114427000D01*
X132641978Y-114320660D01*
X133095197Y-114017828D01*
X133398029Y-113564609D01*
X133449988Y-113303392D01*
X142129271Y-113303392D01*
X142338995Y-113810963D01*
X142726994Y-114199640D01*
X143234199Y-114410249D01*
X143783392Y-114410729D01*
X144290963Y-114201005D01*
X144309837Y-114182163D01*
X152697443Y-114182163D01*
X152796042Y-114448965D01*
X153405582Y-114675401D01*
X154055377Y-114651341D01*
X154543958Y-114448965D01*
X154642557Y-114182163D01*
X153670000Y-113209605D01*
X152697443Y-114182163D01*
X144309837Y-114182163D01*
X144679640Y-113813006D01*
X144890249Y-113305801D01*
X144890721Y-112765582D01*
X152024599Y-112765582D01*
X152048659Y-113415377D01*
X152251035Y-113903958D01*
X152517837Y-114002557D01*
X153490395Y-113030000D01*
X153849605Y-113030000D01*
X154822163Y-114002557D01*
X155088965Y-113903958D01*
X155315401Y-113294418D01*
X155291341Y-112644623D01*
X155088965Y-112156042D01*
X154822163Y-112057443D01*
X153849605Y-113030000D01*
X153490395Y-113030000D01*
X152517837Y-112057443D01*
X152251035Y-112156042D01*
X152024599Y-112765582D01*
X144890721Y-112765582D01*
X144890729Y-112756608D01*
X144681005Y-112249037D01*
X144310453Y-111877837D01*
X152697443Y-111877837D01*
X153670000Y-112850395D01*
X154642557Y-111877837D01*
X154543958Y-111611035D01*
X153934418Y-111384599D01*
X153284623Y-111408659D01*
X152796042Y-111611035D01*
X152697443Y-111877837D01*
X144310453Y-111877837D01*
X144293006Y-111860360D01*
X143785801Y-111649751D01*
X143236608Y-111649271D01*
X142729037Y-111858995D01*
X142340360Y-112246994D01*
X142129751Y-112754199D01*
X142129271Y-113303392D01*
X133449988Y-113303392D01*
X133504369Y-113030000D01*
X133398029Y-112495391D01*
X133095197Y-112042172D01*
X132641978Y-111739340D01*
X132107369Y-111633000D01*
X132052631Y-111633000D01*
X131518022Y-111739340D01*
X131064803Y-112042172D01*
X130944464Y-112222272D01*
X130944464Y-112014000D01*
X130917897Y-111872810D01*
X130834454Y-111743135D01*
X130707134Y-111656141D01*
X130556000Y-111625536D01*
X128524000Y-111625536D01*
X128382810Y-111652103D01*
X128253135Y-111735546D01*
X128166141Y-111862866D01*
X128135536Y-112014000D01*
X127456000Y-112014000D01*
X127456000Y-108204000D01*
X128135536Y-108204000D01*
X128135536Y-110236000D01*
X128162103Y-110377190D01*
X128245546Y-110506865D01*
X128372866Y-110593859D01*
X128524000Y-110624464D01*
X130556000Y-110624464D01*
X130697190Y-110597897D01*
X130826865Y-110514454D01*
X130913859Y-110387134D01*
X130944464Y-110236000D01*
X130944464Y-110027728D01*
X131064803Y-110207828D01*
X131518022Y-110510660D01*
X132052631Y-110617000D01*
X132107369Y-110617000D01*
X132641978Y-110510660D01*
X133095197Y-110207828D01*
X133101892Y-110197807D01*
X137333700Y-110197807D01*
X137596674Y-110834252D01*
X138083187Y-111321614D01*
X138719172Y-111585699D01*
X139407807Y-111586300D01*
X140044252Y-111323326D01*
X140531614Y-110836813D01*
X140795699Y-110200828D01*
X140796300Y-109512193D01*
X140788532Y-109493392D01*
X142129271Y-109493392D01*
X142338995Y-110000963D01*
X142726994Y-110389640D01*
X143234199Y-110600249D01*
X143783392Y-110600729D01*
X144290963Y-110391005D01*
X144309837Y-110372163D01*
X152697443Y-110372163D01*
X152796042Y-110638965D01*
X153405582Y-110865401D01*
X154055377Y-110841341D01*
X154543958Y-110638965D01*
X154642557Y-110372163D01*
X154468202Y-110197807D01*
X164638700Y-110197807D01*
X164901674Y-110834252D01*
X165388187Y-111321614D01*
X166024172Y-111585699D01*
X166712807Y-111586300D01*
X167349252Y-111323326D01*
X167836614Y-110836813D01*
X168100699Y-110200828D01*
X168101300Y-109512193D01*
X167838326Y-108875748D01*
X167351813Y-108388386D01*
X166715828Y-108124301D01*
X166027193Y-108123700D01*
X165390748Y-108386674D01*
X164903386Y-108873187D01*
X164639301Y-109509172D01*
X164638700Y-110197807D01*
X154468202Y-110197807D01*
X153670000Y-109399605D01*
X152697443Y-110372163D01*
X144309837Y-110372163D01*
X144679640Y-110003006D01*
X144890249Y-109495801D01*
X144890721Y-108955582D01*
X152024599Y-108955582D01*
X152048659Y-109605377D01*
X152251035Y-110093958D01*
X152517837Y-110192557D01*
X153490395Y-109220000D01*
X153849605Y-109220000D01*
X154822163Y-110192557D01*
X155088965Y-110093958D01*
X155315401Y-109484418D01*
X155291341Y-108834623D01*
X155088965Y-108346042D01*
X154822163Y-108247443D01*
X153849605Y-109220000D01*
X153490395Y-109220000D01*
X152517837Y-108247443D01*
X152251035Y-108346042D01*
X152024599Y-108955582D01*
X144890721Y-108955582D01*
X144890729Y-108946608D01*
X144681005Y-108439037D01*
X144310453Y-108067837D01*
X152697443Y-108067837D01*
X153670000Y-109040395D01*
X154642557Y-108067837D01*
X154543958Y-107801035D01*
X153934418Y-107574599D01*
X153284623Y-107598659D01*
X152796042Y-107801035D01*
X152697443Y-108067837D01*
X144310453Y-108067837D01*
X144293006Y-108050360D01*
X143785801Y-107839751D01*
X143236608Y-107839271D01*
X142729037Y-108048995D01*
X142340360Y-108436994D01*
X142129751Y-108944199D01*
X142129271Y-109493392D01*
X140788532Y-109493392D01*
X140533326Y-108875748D01*
X140046813Y-108388386D01*
X139410828Y-108124301D01*
X138722193Y-108123700D01*
X138085748Y-108386674D01*
X137598386Y-108873187D01*
X137334301Y-109509172D01*
X137333700Y-110197807D01*
X133101892Y-110197807D01*
X133398029Y-109754609D01*
X133504369Y-109220000D01*
X133398029Y-108685391D01*
X133095197Y-108232172D01*
X132641978Y-107929340D01*
X132107369Y-107823000D01*
X132052631Y-107823000D01*
X131518022Y-107929340D01*
X131064803Y-108232172D01*
X130944464Y-108412272D01*
X130944464Y-108204000D01*
X130917897Y-108062810D01*
X130834454Y-107933135D01*
X130707134Y-107846141D01*
X130556000Y-107815536D01*
X128524000Y-107815536D01*
X128382810Y-107842103D01*
X128253135Y-107925546D01*
X128166141Y-108052866D01*
X128135536Y-108204000D01*
X127456000Y-108204000D01*
X127456000Y-104394000D01*
X128135536Y-104394000D01*
X128135536Y-106426000D01*
X128162103Y-106567190D01*
X128245546Y-106696865D01*
X128372866Y-106783859D01*
X128524000Y-106814464D01*
X130556000Y-106814464D01*
X130697190Y-106787897D01*
X130826865Y-106704454D01*
X130913859Y-106577134D01*
X130944464Y-106426000D01*
X130944464Y-106217728D01*
X131064803Y-106397828D01*
X131518022Y-106700660D01*
X132052631Y-106807000D01*
X132107369Y-106807000D01*
X132641978Y-106700660D01*
X133095197Y-106397828D01*
X133398029Y-105944609D01*
X133449988Y-105683392D01*
X142129271Y-105683392D01*
X142338995Y-106190963D01*
X142726994Y-106579640D01*
X143234199Y-106790249D01*
X143783392Y-106790729D01*
X144290963Y-106581005D01*
X144309837Y-106562163D01*
X152697443Y-106562163D01*
X152796042Y-106828965D01*
X153405582Y-107055401D01*
X154055377Y-107031341D01*
X154543958Y-106828965D01*
X154642557Y-106562163D01*
X153670000Y-105589605D01*
X152697443Y-106562163D01*
X144309837Y-106562163D01*
X144679640Y-106193006D01*
X144890249Y-105685801D01*
X144890721Y-105145582D01*
X152024599Y-105145582D01*
X152048659Y-105795377D01*
X152251035Y-106283958D01*
X152517837Y-106382557D01*
X153490395Y-105410000D01*
X153849605Y-105410000D01*
X154822163Y-106382557D01*
X155088965Y-106283958D01*
X155315401Y-105674418D01*
X155291341Y-105024623D01*
X155088965Y-104536042D01*
X154822163Y-104437443D01*
X153849605Y-105410000D01*
X153490395Y-105410000D01*
X152517837Y-104437443D01*
X152251035Y-104536042D01*
X152024599Y-105145582D01*
X144890721Y-105145582D01*
X144890729Y-105136608D01*
X144681005Y-104629037D01*
X144310453Y-104257837D01*
X152697443Y-104257837D01*
X153670000Y-105230395D01*
X154642557Y-104257837D01*
X154543958Y-103991035D01*
X153934418Y-103764599D01*
X153284623Y-103788659D01*
X152796042Y-103991035D01*
X152697443Y-104257837D01*
X144310453Y-104257837D01*
X144293006Y-104240360D01*
X143785801Y-104029751D01*
X143236608Y-104029271D01*
X142729037Y-104238995D01*
X142340360Y-104626994D01*
X142129751Y-105134199D01*
X142129271Y-105683392D01*
X133449988Y-105683392D01*
X133504369Y-105410000D01*
X133398029Y-104875391D01*
X133095197Y-104422172D01*
X132641978Y-104119340D01*
X132107369Y-104013000D01*
X132052631Y-104013000D01*
X131518022Y-104119340D01*
X131064803Y-104422172D01*
X130944464Y-104602272D01*
X130944464Y-104394000D01*
X130917897Y-104252810D01*
X130834454Y-104123135D01*
X130707134Y-104036141D01*
X130556000Y-104005536D01*
X128524000Y-104005536D01*
X128382810Y-104032103D01*
X128253135Y-104115546D01*
X128166141Y-104242866D01*
X128135536Y-104394000D01*
X127456000Y-104394000D01*
X127456000Y-103024669D01*
X151618864Y-103024669D01*
X151737514Y-103311823D01*
X151957021Y-103531714D01*
X152243968Y-103650864D01*
X152554669Y-103651136D01*
X152841823Y-103532486D01*
X152893782Y-103480617D01*
X163855400Y-103480617D01*
X163855400Y-103529383D01*
X163950140Y-104005671D01*
X164219935Y-104409448D01*
X164623712Y-104679243D01*
X165100000Y-104773983D01*
X165576288Y-104679243D01*
X165980065Y-104409448D01*
X166249860Y-104005671D01*
X166344600Y-103529383D01*
X166344600Y-103480617D01*
X166249860Y-103004329D01*
X166007359Y-102641400D01*
X166387936Y-102641400D01*
X166387936Y-104368600D01*
X166414503Y-104509790D01*
X166497946Y-104639465D01*
X166625266Y-104726459D01*
X166776400Y-104757064D01*
X168503600Y-104757064D01*
X168644790Y-104730497D01*
X168774465Y-104647054D01*
X168861459Y-104519734D01*
X168892064Y-104368600D01*
X168892064Y-102641400D01*
X168865497Y-102500210D01*
X168782054Y-102370535D01*
X168654734Y-102283541D01*
X168503600Y-102252936D01*
X166776400Y-102252936D01*
X166635210Y-102279503D01*
X166505535Y-102362946D01*
X166418541Y-102490266D01*
X166387936Y-102641400D01*
X166007359Y-102641400D01*
X165980065Y-102600552D01*
X165576288Y-102330757D01*
X165100000Y-102236017D01*
X164623712Y-102330757D01*
X164219935Y-102600552D01*
X163950140Y-103004329D01*
X163855400Y-103480617D01*
X152893782Y-103480617D01*
X153061714Y-103312979D01*
X153180864Y-103026032D01*
X153181136Y-102715331D01*
X153062486Y-102428177D01*
X153035000Y-102400643D01*
X153035000Y-100203000D01*
X155694536Y-100203000D01*
X155694536Y-101727000D01*
X155721103Y-101868190D01*
X155804546Y-101997865D01*
X155931866Y-102084859D01*
X156083000Y-102115464D01*
X157607000Y-102115464D01*
X157748190Y-102088897D01*
X157877865Y-102005454D01*
X157964859Y-101878134D01*
X157995464Y-101727000D01*
X157995464Y-100940617D01*
X163855400Y-100940617D01*
X163855400Y-100989383D01*
X163950140Y-101465671D01*
X164219935Y-101869448D01*
X164623712Y-102139243D01*
X165100000Y-102233983D01*
X165576288Y-102139243D01*
X165980065Y-101869448D01*
X166249860Y-101465671D01*
X166344600Y-100989383D01*
X166344600Y-100940617D01*
X166395400Y-100940617D01*
X166395400Y-100989383D01*
X166490140Y-101465671D01*
X166759935Y-101869448D01*
X167163712Y-102139243D01*
X167640000Y-102233983D01*
X168116288Y-102139243D01*
X168520065Y-101869448D01*
X168789860Y-101465671D01*
X168884600Y-100989383D01*
X168884600Y-100940617D01*
X168789860Y-100464329D01*
X168520065Y-100060552D01*
X168116288Y-99790757D01*
X167640000Y-99696017D01*
X167163712Y-99790757D01*
X166759935Y-100060552D01*
X166490140Y-100464329D01*
X166395400Y-100940617D01*
X166344600Y-100940617D01*
X166249860Y-100464329D01*
X165980065Y-100060552D01*
X165576288Y-99790757D01*
X165100000Y-99696017D01*
X164623712Y-99790757D01*
X164219935Y-100060552D01*
X163950140Y-100464329D01*
X163855400Y-100940617D01*
X157995464Y-100940617D01*
X157995464Y-100203000D01*
X157968897Y-100061810D01*
X157885454Y-99932135D01*
X157758134Y-99845141D01*
X157607000Y-99814536D01*
X156083000Y-99814536D01*
X155941810Y-99841103D01*
X155812135Y-99924546D01*
X155725141Y-100051866D01*
X155694536Y-100203000D01*
X153035000Y-100203000D01*
X153035000Y-98651359D01*
X155701802Y-98651359D01*
X155875446Y-99071612D01*
X156196697Y-99393423D01*
X156616646Y-99567801D01*
X157071359Y-99568198D01*
X157491612Y-99394554D01*
X157813423Y-99073303D01*
X157987801Y-98653354D01*
X157988021Y-98400617D01*
X163855400Y-98400617D01*
X163855400Y-98449383D01*
X163950140Y-98925671D01*
X164219935Y-99329448D01*
X164623712Y-99599243D01*
X165100000Y-99693983D01*
X165576288Y-99599243D01*
X165980065Y-99329448D01*
X166249860Y-98925671D01*
X166344600Y-98449383D01*
X166344600Y-98400617D01*
X166395400Y-98400617D01*
X166395400Y-98449383D01*
X166490140Y-98925671D01*
X166759935Y-99329448D01*
X167163712Y-99599243D01*
X167640000Y-99693983D01*
X168116288Y-99599243D01*
X168520065Y-99329448D01*
X168789860Y-98925671D01*
X168884600Y-98449383D01*
X168884600Y-98400617D01*
X168789860Y-97924329D01*
X168520065Y-97520552D01*
X168116288Y-97250757D01*
X167640000Y-97156017D01*
X167163712Y-97250757D01*
X166759935Y-97520552D01*
X166490140Y-97924329D01*
X166395400Y-98400617D01*
X166344600Y-98400617D01*
X166249860Y-97924329D01*
X165980065Y-97520552D01*
X165600539Y-97266961D01*
X165874947Y-97167688D01*
X165953810Y-96918415D01*
X165100000Y-96064605D01*
X164246652Y-96917954D01*
X164325059Y-97167680D01*
X164586169Y-97275842D01*
X164219935Y-97520552D01*
X163950140Y-97924329D01*
X163855400Y-98400617D01*
X157988021Y-98400617D01*
X157988198Y-98198641D01*
X157814554Y-97778388D01*
X157493303Y-97456577D01*
X157073354Y-97282199D01*
X156879340Y-97282030D01*
X157192368Y-97266362D01*
X157576143Y-97107397D01*
X157645608Y-96865213D01*
X156845000Y-96064605D01*
X156044392Y-96865213D01*
X156113857Y-97107397D01*
X156611258Y-97284852D01*
X156198388Y-97455446D01*
X155876577Y-97776697D01*
X155702199Y-98196646D01*
X155701802Y-98651359D01*
X153035000Y-98651359D01*
X153035000Y-96111359D01*
X153161802Y-96111359D01*
X153335446Y-96531612D01*
X153656697Y-96853423D01*
X154076646Y-97027801D01*
X154531359Y-97028198D01*
X154951612Y-96854554D01*
X155273423Y-96533303D01*
X155447801Y-96113354D01*
X155447970Y-95919340D01*
X155463638Y-96232368D01*
X155622603Y-96616143D01*
X155864787Y-96685608D01*
X156665395Y-95885000D01*
X157024605Y-95885000D01*
X157825213Y-96685608D01*
X158067397Y-96616143D01*
X158254144Y-96092698D01*
X158232483Y-95659906D01*
X163618391Y-95659906D01*
X163645032Y-96244027D01*
X163817320Y-96659941D01*
X164067046Y-96738348D01*
X164920395Y-95885000D01*
X165279605Y-95885000D01*
X166133415Y-96738810D01*
X166382688Y-96659947D01*
X166487221Y-96370998D01*
X166490140Y-96385671D01*
X166759935Y-96789448D01*
X167163712Y-97059243D01*
X167640000Y-97153983D01*
X168116288Y-97059243D01*
X168520065Y-96789448D01*
X168789860Y-96385671D01*
X168884600Y-95909383D01*
X168884600Y-95860617D01*
X168789860Y-95384329D01*
X168520065Y-94980552D01*
X168116288Y-94710757D01*
X167640000Y-94616017D01*
X167163712Y-94710757D01*
X166759935Y-94980552D01*
X166493939Y-95378644D01*
X166382680Y-95110059D01*
X166132954Y-95031652D01*
X165279605Y-95885000D01*
X164920395Y-95885000D01*
X164066585Y-95031190D01*
X163817312Y-95110053D01*
X163618391Y-95659906D01*
X158232483Y-95659906D01*
X158226362Y-95537632D01*
X158067397Y-95153857D01*
X157825213Y-95084392D01*
X157024605Y-95885000D01*
X156665395Y-95885000D01*
X155864787Y-95084392D01*
X155622603Y-95153857D01*
X155445148Y-95651258D01*
X155274554Y-95238388D01*
X154953303Y-94916577D01*
X154533354Y-94742199D01*
X154078641Y-94741802D01*
X153658388Y-94915446D01*
X153336577Y-95236697D01*
X153162199Y-95656646D01*
X153161802Y-96111359D01*
X153035000Y-96111359D01*
X153035000Y-95513026D01*
X154976667Y-93571359D01*
X155701802Y-93571359D01*
X155875446Y-93991612D01*
X156196697Y-94313423D01*
X156616646Y-94487801D01*
X156810660Y-94487970D01*
X156497632Y-94503638D01*
X156113857Y-94662603D01*
X156044392Y-94904787D01*
X156845000Y-95705395D01*
X157645608Y-94904787D01*
X157576143Y-94662603D01*
X157078742Y-94485148D01*
X157491612Y-94314554D01*
X157813423Y-93993303D01*
X157987801Y-93573354D01*
X157988021Y-93320617D01*
X163855400Y-93320617D01*
X163855400Y-93369383D01*
X163950140Y-93845671D01*
X164219935Y-94249448D01*
X164599461Y-94503039D01*
X164325053Y-94602312D01*
X164246190Y-94851585D01*
X165100000Y-95705395D01*
X165953348Y-94852046D01*
X165874941Y-94602320D01*
X165613831Y-94494158D01*
X165980065Y-94249448D01*
X166249860Y-93845671D01*
X166344600Y-93369383D01*
X166344600Y-93320617D01*
X166395400Y-93320617D01*
X166395400Y-93369383D01*
X166490140Y-93845671D01*
X166759935Y-94249448D01*
X167163712Y-94519243D01*
X167640000Y-94613983D01*
X168116288Y-94519243D01*
X168520065Y-94249448D01*
X168789860Y-93845671D01*
X168884600Y-93369383D01*
X168884600Y-93320617D01*
X168789860Y-92844329D01*
X168520065Y-92440552D01*
X168116288Y-92170757D01*
X167640000Y-92076017D01*
X167163712Y-92170757D01*
X166759935Y-92440552D01*
X166490140Y-92844329D01*
X166395400Y-93320617D01*
X166344600Y-93320617D01*
X166249860Y-92844329D01*
X165980065Y-92440552D01*
X165576288Y-92170757D01*
X165100000Y-92076017D01*
X164623712Y-92170757D01*
X164219935Y-92440552D01*
X163950140Y-92844329D01*
X163855400Y-93320617D01*
X157988021Y-93320617D01*
X157988198Y-93118641D01*
X157814554Y-92698388D01*
X157493303Y-92376577D01*
X157073354Y-92202199D01*
X156618641Y-92201802D01*
X156198388Y-92375446D01*
X155876577Y-92696697D01*
X155702199Y-93116646D01*
X155701802Y-93571359D01*
X154976667Y-93571359D01*
X156605043Y-91942983D01*
X156616646Y-91947801D01*
X157071359Y-91948198D01*
X157491612Y-91774554D01*
X157813423Y-91453303D01*
X157987801Y-91033354D01*
X157988198Y-90578641D01*
X157977581Y-90552944D01*
X163494025Y-90552944D01*
X163693615Y-91034818D01*
X164131621Y-91507188D01*
X164717054Y-91775983D01*
X164973000Y-91657367D01*
X164973000Y-90297000D01*
X163613164Y-90297000D01*
X163494025Y-90552944D01*
X157977581Y-90552944D01*
X157814554Y-90158388D01*
X157493303Y-89836577D01*
X157374044Y-89787056D01*
X163494025Y-89787056D01*
X163613164Y-90043000D01*
X164973000Y-90043000D01*
X164973000Y-88682633D01*
X165227000Y-88682633D01*
X165227000Y-90043000D01*
X165247000Y-90043000D01*
X165247000Y-90297000D01*
X165227000Y-90297000D01*
X165227000Y-91657367D01*
X165482946Y-91775983D01*
X166068379Y-91507188D01*
X166257579Y-91303145D01*
X166262103Y-91327190D01*
X166345546Y-91456865D01*
X166472866Y-91543859D01*
X166624000Y-91574464D01*
X168656000Y-91574464D01*
X168797190Y-91547897D01*
X168926865Y-91464454D01*
X169013859Y-91337134D01*
X169044464Y-91186000D01*
X169044464Y-89154000D01*
X169017897Y-89012810D01*
X168934454Y-88883135D01*
X168807134Y-88796141D01*
X168656000Y-88765536D01*
X166624000Y-88765536D01*
X166482810Y-88792103D01*
X166353135Y-88875546D01*
X166266141Y-89002866D01*
X166258957Y-89038342D01*
X166068379Y-88832812D01*
X165482946Y-88564017D01*
X165227000Y-88682633D01*
X164973000Y-88682633D01*
X164717054Y-88564017D01*
X164131621Y-88832812D01*
X163693615Y-89305182D01*
X163494025Y-89787056D01*
X157374044Y-89787056D01*
X157073354Y-89662199D01*
X156618641Y-89661802D01*
X156198388Y-89835446D01*
X155876577Y-90156697D01*
X155702199Y-90576646D01*
X155701802Y-91031359D01*
X155707303Y-91044671D01*
X151950987Y-94800987D01*
X151813336Y-95006996D01*
X151765000Y-95250000D01*
X151765000Y-102400354D01*
X151738286Y-102427021D01*
X151619136Y-102713968D01*
X151618864Y-103024669D01*
X127456000Y-103024669D01*
X127456000Y-100021963D01*
X138683714Y-100021963D01*
X138934534Y-100628995D01*
X139398563Y-101093834D01*
X140005155Y-101345713D01*
X140661963Y-101346286D01*
X141268995Y-101095466D01*
X141733834Y-100631437D01*
X141985713Y-100024845D01*
X141986286Y-99368037D01*
X141735466Y-98761005D01*
X141271437Y-98296166D01*
X140664845Y-98044287D01*
X140008037Y-98043714D01*
X139401005Y-98294534D01*
X138936166Y-98758563D01*
X138684287Y-99365155D01*
X138683714Y-100021963D01*
X127456000Y-100021963D01*
X127456000Y-92401963D01*
X133603714Y-92401963D01*
X133854534Y-93008995D01*
X134318563Y-93473834D01*
X134925155Y-93725713D01*
X135581963Y-93726286D01*
X136188995Y-93475466D01*
X136653834Y-93011437D01*
X136905713Y-92404845D01*
X136906286Y-91748037D01*
X136655466Y-91141005D01*
X136191437Y-90676166D01*
X135584845Y-90424287D01*
X134928037Y-90423714D01*
X134321005Y-90674534D01*
X133856166Y-91138563D01*
X133604287Y-91745155D01*
X133603714Y-92401963D01*
X127456000Y-92401963D01*
X127456000Y-85432807D01*
X137333700Y-85432807D01*
X137596674Y-86069252D01*
X138083187Y-86556614D01*
X138719172Y-86820699D01*
X139407807Y-86821300D01*
X140044252Y-86558326D01*
X140531614Y-86071813D01*
X140795699Y-85435828D01*
X140795701Y-85432807D01*
X164638700Y-85432807D01*
X164901674Y-86069252D01*
X165388187Y-86556614D01*
X166024172Y-86820699D01*
X166712807Y-86821300D01*
X167349252Y-86558326D01*
X167836614Y-86071813D01*
X168100699Y-85435828D01*
X168101300Y-84747193D01*
X167838326Y-84110748D01*
X167351813Y-83623386D01*
X166715828Y-83359301D01*
X166027193Y-83358700D01*
X165390748Y-83621674D01*
X164903386Y-84108187D01*
X164639301Y-84744172D01*
X164638700Y-85432807D01*
X140795701Y-85432807D01*
X140796300Y-84747193D01*
X140533326Y-84110748D01*
X140046813Y-83623386D01*
X139410828Y-83359301D01*
X138722193Y-83358700D01*
X138085748Y-83621674D01*
X137598386Y-84108187D01*
X137334301Y-84744172D01*
X137333700Y-85432807D01*
X127456000Y-85432807D01*
X127456000Y-78784911D01*
X127622888Y-77945906D01*
X128072707Y-77272707D01*
X128745906Y-76822888D01*
X129584911Y-76656000D01*
X172675089Y-76656000D01*
X173514094Y-76822888D01*
M02*
