M48
;DRILL file {KiCad 4.0.1-stable} date 3/24/2016 2:30:25 AM
;FORMAT={-:-/ absolute / inch / decimal}
FMAT,2
INCH,TZ
T1C0.020
T2C0.030
T3C0.039
T4C0.040
T5C0.086
T6C0.106
%
G90
G05
M72
T1
X6.Y-4.05
X6.45Y-4.15
T2
X6.075Y-3.775
X6.175Y-3.575
X6.175Y-3.675
X6.175Y-3.775
X6.175Y-3.875
X6.175Y-3.975
T3
X5.65Y-4.15
X5.65Y-4.3
X5.65Y-4.45
X5.65Y-4.6
X6.05Y-4.15
X6.05Y-4.3
X6.05Y-4.45
X6.05Y-4.6
T4
X5.1Y-4.15
X5.1Y-4.3
X5.1Y-4.45
X5.1Y-4.6
X5.2Y-4.15
X5.2Y-4.3
X5.2Y-4.45
X5.2Y-4.6
X6.5Y-3.55
X6.5Y-3.675
X6.5Y-3.775
X6.5Y-3.875
X6.5Y-3.975
X6.5Y-4.075
X6.6Y-3.55
X6.6Y-3.675
X6.6Y-3.775
X6.6Y-3.875
X6.6Y-3.975
X6.6Y-4.075
T5
X5.325Y-3.625
X5.525Y-3.925
T6
X5.475Y-3.35
X5.475Y-4.325
X6.55Y-3.35
X6.55Y-4.325
T0
M30
