G04 #@! TF.FileFunction,Legend,Bot*
%FSLAX46Y46*%
G04 Gerber Fmt 4.6, Leading zero omitted, Abs format (unit mm)*
G04 Created by KiCad (PCBNEW 4.0.1-stable) date 3/24/2016 2:28:27 AM*
%MOMM*%
G01*
G04 APERTURE LIST*
%ADD10C,0.100000*%
%ADD11C,0.300000*%
%ADD12C,0.200000*%
%ADD13C,0.152400*%
%ADD14C,0.150000*%
%ADD15C,0.381000*%
G04 APERTURE END LIST*
D10*
D11*
X116069286Y-116248571D02*
X116069286Y-114748571D01*
X115569286Y-115248571D02*
X114997857Y-115248571D01*
X115355000Y-114748571D02*
X115355000Y-116034286D01*
X115283572Y-116177143D01*
X115140714Y-116248571D01*
X114997857Y-116248571D01*
X114426429Y-114748571D02*
X114569286Y-115034286D01*
X113855000Y-116177143D02*
X113712143Y-116248571D01*
X113426428Y-116248571D01*
X113283571Y-116177143D01*
X113212143Y-116034286D01*
X113212143Y-115962857D01*
X113283571Y-115820000D01*
X113426428Y-115748571D01*
X113640714Y-115748571D01*
X113783571Y-115677143D01*
X113855000Y-115534286D01*
X113855000Y-115462857D01*
X113783571Y-115320000D01*
X113640714Y-115248571D01*
X113426428Y-115248571D01*
X113283571Y-115320000D01*
X111497857Y-116177143D02*
X111355000Y-116248571D01*
X111069285Y-116248571D01*
X110926428Y-116177143D01*
X110855000Y-116034286D01*
X110855000Y-115962857D01*
X110926428Y-115820000D01*
X111069285Y-115748571D01*
X111283571Y-115748571D01*
X111426428Y-115677143D01*
X111497857Y-115534286D01*
X111497857Y-115462857D01*
X111426428Y-115320000D01*
X111283571Y-115248571D01*
X111069285Y-115248571D01*
X110926428Y-115320000D01*
X109997856Y-116248571D02*
X110140714Y-116177143D01*
X110212142Y-116105714D01*
X110283571Y-115962857D01*
X110283571Y-115534286D01*
X110212142Y-115391429D01*
X110140714Y-115320000D01*
X109997856Y-115248571D01*
X109783571Y-115248571D01*
X109640714Y-115320000D01*
X109569285Y-115391429D01*
X109497856Y-115534286D01*
X109497856Y-115962857D01*
X109569285Y-116105714D01*
X109640714Y-116177143D01*
X109783571Y-116248571D01*
X109997856Y-116248571D01*
X107712142Y-116248571D02*
X107712142Y-114748571D01*
X107712142Y-115320000D02*
X107569285Y-115248571D01*
X107283571Y-115248571D01*
X107140714Y-115320000D01*
X107069285Y-115391429D01*
X106997856Y-115534286D01*
X106997856Y-115962857D01*
X107069285Y-116105714D01*
X107140714Y-116177143D01*
X107283571Y-116248571D01*
X107569285Y-116248571D01*
X107712142Y-116177143D01*
X105712142Y-116248571D02*
X105712142Y-115462857D01*
X105783571Y-115320000D01*
X105926428Y-115248571D01*
X106212142Y-115248571D01*
X106354999Y-115320000D01*
X105712142Y-116177143D02*
X105854999Y-116248571D01*
X106212142Y-116248571D01*
X106354999Y-116177143D01*
X106426428Y-116034286D01*
X106426428Y-115891429D01*
X106354999Y-115748571D01*
X106212142Y-115677143D01*
X105854999Y-115677143D01*
X105712142Y-115605714D01*
X104354999Y-116248571D02*
X104354999Y-114748571D01*
X104354999Y-116177143D02*
X104497856Y-116248571D01*
X104783570Y-116248571D01*
X104926428Y-116177143D01*
X104997856Y-116105714D01*
X105069285Y-115962857D01*
X105069285Y-115534286D01*
X104997856Y-115391429D01*
X104926428Y-115320000D01*
X104783570Y-115248571D01*
X104497856Y-115248571D01*
X104354999Y-115320000D01*
X103640713Y-116105714D02*
X103569285Y-116177143D01*
X103640713Y-116248571D01*
X103712142Y-116177143D01*
X103640713Y-116105714D01*
X103640713Y-116248571D01*
X197182856Y-111652857D02*
X196682856Y-111652857D01*
X196468570Y-112438571D02*
X197182856Y-112438571D01*
X197182856Y-110938571D01*
X196468570Y-110938571D01*
X195897142Y-112367143D02*
X195682856Y-112438571D01*
X195325713Y-112438571D01*
X195182856Y-112367143D01*
X195111427Y-112295714D01*
X195039999Y-112152857D01*
X195039999Y-112010000D01*
X195111427Y-111867143D01*
X195182856Y-111795714D01*
X195325713Y-111724286D01*
X195611427Y-111652857D01*
X195754285Y-111581429D01*
X195825713Y-111510000D01*
X195897142Y-111367143D01*
X195897142Y-111224286D01*
X195825713Y-111081429D01*
X195754285Y-111010000D01*
X195611427Y-110938571D01*
X195254285Y-110938571D01*
X195039999Y-111010000D01*
X194397142Y-112438571D02*
X194397142Y-110938571D01*
X193825714Y-110938571D01*
X193682856Y-111010000D01*
X193611428Y-111081429D01*
X193539999Y-111224286D01*
X193539999Y-111438571D01*
X193611428Y-111581429D01*
X193682856Y-111652857D01*
X193825714Y-111724286D01*
X194397142Y-111724286D01*
X192897142Y-111867143D02*
X191754285Y-111867143D01*
X190754285Y-110938571D02*
X190611428Y-110938571D01*
X190468571Y-111010000D01*
X190397142Y-111081429D01*
X190325713Y-111224286D01*
X190254285Y-111510000D01*
X190254285Y-111867143D01*
X190325713Y-112152857D01*
X190397142Y-112295714D01*
X190468571Y-112367143D01*
X190611428Y-112438571D01*
X190754285Y-112438571D01*
X190897142Y-112367143D01*
X190968571Y-112295714D01*
X191039999Y-112152857D01*
X191111428Y-111867143D01*
X191111428Y-111510000D01*
X191039999Y-111224286D01*
X190968571Y-111081429D01*
X190897142Y-111010000D01*
X190754285Y-110938571D01*
X188825714Y-112438571D02*
X189682857Y-112438571D01*
X189254285Y-112438571D02*
X189254285Y-110938571D01*
X189397142Y-111152857D01*
X189540000Y-111295714D01*
X189682857Y-111367143D01*
X203727857Y-84713572D02*
X203727857Y-85213572D01*
X204513571Y-85427858D02*
X204513571Y-84713572D01*
X203013571Y-84713572D01*
X203013571Y-85427858D01*
X204442143Y-85999286D02*
X204513571Y-86213572D01*
X204513571Y-86570715D01*
X204442143Y-86713572D01*
X204370714Y-86785001D01*
X204227857Y-86856429D01*
X204085000Y-86856429D01*
X203942143Y-86785001D01*
X203870714Y-86713572D01*
X203799286Y-86570715D01*
X203727857Y-86285001D01*
X203656429Y-86142143D01*
X203585000Y-86070715D01*
X203442143Y-85999286D01*
X203299286Y-85999286D01*
X203156429Y-86070715D01*
X203085000Y-86142143D01*
X203013571Y-86285001D01*
X203013571Y-86642143D01*
X203085000Y-86856429D01*
X204513571Y-87499286D02*
X203013571Y-87499286D01*
X203013571Y-88070714D01*
X203085000Y-88213572D01*
X203156429Y-88285000D01*
X203299286Y-88356429D01*
X203513571Y-88356429D01*
X203656429Y-88285000D01*
X203727857Y-88213572D01*
X203799286Y-88070714D01*
X203799286Y-87499286D01*
X203942143Y-88999286D02*
X203942143Y-90142143D01*
X204513571Y-91642143D02*
X204513571Y-90785000D01*
X204513571Y-91213572D02*
X203013571Y-91213572D01*
X203227857Y-91070715D01*
X203370714Y-90927857D01*
X203442143Y-90785000D01*
X203156429Y-92213571D02*
X203085000Y-92285000D01*
X203013571Y-92427857D01*
X203013571Y-92785000D01*
X203085000Y-92927857D01*
X203156429Y-92999286D01*
X203299286Y-93070714D01*
X203442143Y-93070714D01*
X203656429Y-92999286D01*
X204513571Y-92142143D01*
X204513571Y-93070714D01*
X203727857Y-93713571D02*
X203727857Y-94213571D01*
X204513571Y-94427857D02*
X204513571Y-93713571D01*
X203013571Y-93713571D01*
X203013571Y-94427857D01*
D12*
X205105000Y-97155000D02*
X197485000Y-97155000D01*
X180340000Y-97155000D02*
X180340000Y-95250000D01*
X186055000Y-95250000D02*
X186055000Y-88265000D01*
X186055000Y-113030000D02*
X186055000Y-99060000D01*
X200025000Y-113030000D02*
X186055000Y-113030000D01*
X200025000Y-88265000D02*
X200025000Y-113030000D01*
X186055000Y-88265000D02*
X200025000Y-88265000D01*
X180340000Y-83185000D02*
X180340000Y-81280000D01*
X180975000Y-97155000D02*
X180340000Y-97155000D01*
X205105000Y-81280000D02*
X205105000Y-97155000D01*
X197485000Y-81280000D02*
X205105000Y-81280000D01*
X180340000Y-81280000D02*
X180975000Y-81280000D01*
X126365000Y-86360000D02*
X120650000Y-86360000D01*
X126365000Y-69850000D02*
X126365000Y-86360000D01*
X114935000Y-69850000D02*
X126365000Y-69850000D01*
X114935000Y-86360000D02*
X114935000Y-69850000D01*
X120650000Y-86360000D02*
X114935000Y-86360000D01*
D11*
X206404285Y-116248571D02*
X206404285Y-114748571D01*
X205832857Y-114748571D01*
X205689999Y-114820000D01*
X205618571Y-114891429D01*
X205547142Y-115034286D01*
X205547142Y-115248571D01*
X205618571Y-115391429D01*
X205689999Y-115462857D01*
X205832857Y-115534286D01*
X206404285Y-115534286D01*
X204689999Y-116248571D02*
X204832857Y-116177143D01*
X204904285Y-116105714D01*
X204975714Y-115962857D01*
X204975714Y-115534286D01*
X204904285Y-115391429D01*
X204832857Y-115320000D01*
X204689999Y-115248571D01*
X204475714Y-115248571D01*
X204332857Y-115320000D01*
X204261428Y-115391429D01*
X204189999Y-115534286D01*
X204189999Y-115962857D01*
X204261428Y-116105714D01*
X204332857Y-116177143D01*
X204475714Y-116248571D01*
X204689999Y-116248571D01*
X203689999Y-115248571D02*
X203404285Y-116248571D01*
X203118571Y-115534286D01*
X202832856Y-116248571D01*
X202547142Y-115248571D01*
X201404285Y-116177143D02*
X201547142Y-116248571D01*
X201832856Y-116248571D01*
X201975713Y-116177143D01*
X202047142Y-116034286D01*
X202047142Y-115462857D01*
X201975713Y-115320000D01*
X201832856Y-115248571D01*
X201547142Y-115248571D01*
X201404285Y-115320000D01*
X201332856Y-115462857D01*
X201332856Y-115605714D01*
X202047142Y-115748571D01*
X200689999Y-116248571D02*
X200689999Y-115248571D01*
X200689999Y-115534286D02*
X200618571Y-115391429D01*
X200547142Y-115320000D01*
X200404285Y-115248571D01*
X200261428Y-115248571D01*
X197832857Y-114820000D02*
X197975714Y-114748571D01*
X198190000Y-114748571D01*
X198404285Y-114820000D01*
X198547143Y-114962857D01*
X198618571Y-115105714D01*
X198690000Y-115391429D01*
X198690000Y-115605714D01*
X198618571Y-115891429D01*
X198547143Y-116034286D01*
X198404285Y-116177143D01*
X198190000Y-116248571D01*
X198047143Y-116248571D01*
X197832857Y-116177143D01*
X197761428Y-116105714D01*
X197761428Y-115605714D01*
X198047143Y-115605714D01*
X196904285Y-116248571D02*
X197047143Y-116177143D01*
X197118571Y-116034286D01*
X197118571Y-114748571D01*
X196118571Y-116248571D02*
X196261429Y-116177143D01*
X196332857Y-116105714D01*
X196404286Y-115962857D01*
X196404286Y-115534286D01*
X196332857Y-115391429D01*
X196261429Y-115320000D01*
X196118571Y-115248571D01*
X195904286Y-115248571D01*
X195761429Y-115320000D01*
X195690000Y-115391429D01*
X195618571Y-115534286D01*
X195618571Y-115962857D01*
X195690000Y-116105714D01*
X195761429Y-116177143D01*
X195904286Y-116248571D01*
X196118571Y-116248571D01*
X195118571Y-115248571D02*
X194761428Y-116248571D01*
X194404286Y-115248571D01*
X193261429Y-116177143D02*
X193404286Y-116248571D01*
X193690000Y-116248571D01*
X193832857Y-116177143D01*
X193904286Y-116034286D01*
X193904286Y-115462857D01*
X193832857Y-115320000D01*
X193690000Y-115248571D01*
X193404286Y-115248571D01*
X193261429Y-115320000D01*
X193190000Y-115462857D01*
X193190000Y-115605714D01*
X193904286Y-115748571D01*
X191404286Y-114748571D02*
X191404286Y-115962857D01*
X191332858Y-116105714D01*
X191261429Y-116177143D01*
X191118572Y-116248571D01*
X190832858Y-116248571D01*
X190690000Y-116177143D01*
X190618572Y-116105714D01*
X190547143Y-115962857D01*
X190547143Y-114748571D01*
X189832857Y-116248571D02*
X189832857Y-114748571D01*
X189832857Y-115462857D02*
X188975714Y-115462857D01*
X188975714Y-116248571D02*
X188975714Y-114748571D01*
X188261428Y-116248571D02*
X188261428Y-114748571D01*
X187547142Y-116248571D02*
X187547142Y-114748571D01*
X187189999Y-114748571D01*
X186975714Y-114820000D01*
X186832856Y-114962857D01*
X186761428Y-115105714D01*
X186689999Y-115391429D01*
X186689999Y-115605714D01*
X186761428Y-115891429D01*
X186832856Y-116034286D01*
X186975714Y-116177143D01*
X187189999Y-116248571D01*
X187547142Y-116248571D01*
X184904285Y-116248571D02*
X184904285Y-114748571D01*
X184404285Y-115820000D01*
X183904285Y-114748571D01*
X183904285Y-116248571D01*
X182547142Y-116248571D02*
X182547142Y-115462857D01*
X182618571Y-115320000D01*
X182761428Y-115248571D01*
X183047142Y-115248571D01*
X183189999Y-115320000D01*
X182547142Y-116177143D02*
X182689999Y-116248571D01*
X183047142Y-116248571D01*
X183189999Y-116177143D01*
X183261428Y-116034286D01*
X183261428Y-115891429D01*
X183189999Y-115748571D01*
X183047142Y-115677143D01*
X182689999Y-115677143D01*
X182547142Y-115605714D01*
X181832856Y-116248571D02*
X181832856Y-115248571D01*
X181832856Y-114748571D02*
X181904285Y-114820000D01*
X181832856Y-114891429D01*
X181761428Y-114820000D01*
X181832856Y-114748571D01*
X181832856Y-114891429D01*
X181118570Y-115248571D02*
X181118570Y-116248571D01*
X181118570Y-115391429D02*
X181047142Y-115320000D01*
X180904284Y-115248571D01*
X180689999Y-115248571D01*
X180547142Y-115320000D01*
X180475713Y-115462857D01*
X180475713Y-116248571D01*
X178118570Y-115462857D02*
X177904284Y-115534286D01*
X177832856Y-115605714D01*
X177761427Y-115748571D01*
X177761427Y-115962857D01*
X177832856Y-116105714D01*
X177904284Y-116177143D01*
X178047142Y-116248571D01*
X178618570Y-116248571D01*
X178618570Y-114748571D01*
X178118570Y-114748571D01*
X177975713Y-114820000D01*
X177904284Y-114891429D01*
X177832856Y-115034286D01*
X177832856Y-115177143D01*
X177904284Y-115320000D01*
X177975713Y-115391429D01*
X178118570Y-115462857D01*
X178618570Y-115462857D01*
X176904284Y-116248571D02*
X177047142Y-116177143D01*
X177118570Y-116105714D01*
X177189999Y-115962857D01*
X177189999Y-115534286D01*
X177118570Y-115391429D01*
X177047142Y-115320000D01*
X176904284Y-115248571D01*
X176689999Y-115248571D01*
X176547142Y-115320000D01*
X176475713Y-115391429D01*
X176404284Y-115534286D01*
X176404284Y-115962857D01*
X176475713Y-116105714D01*
X176547142Y-116177143D01*
X176689999Y-116248571D01*
X176904284Y-116248571D01*
X175118570Y-116248571D02*
X175118570Y-115462857D01*
X175189999Y-115320000D01*
X175332856Y-115248571D01*
X175618570Y-115248571D01*
X175761427Y-115320000D01*
X175118570Y-116177143D02*
X175261427Y-116248571D01*
X175618570Y-116248571D01*
X175761427Y-116177143D01*
X175832856Y-116034286D01*
X175832856Y-115891429D01*
X175761427Y-115748571D01*
X175618570Y-115677143D01*
X175261427Y-115677143D01*
X175118570Y-115605714D01*
X174404284Y-116248571D02*
X174404284Y-115248571D01*
X174404284Y-115534286D02*
X174332856Y-115391429D01*
X174261427Y-115320000D01*
X174118570Y-115248571D01*
X173975713Y-115248571D01*
X172832856Y-116248571D02*
X172832856Y-114748571D01*
X172832856Y-116177143D02*
X172975713Y-116248571D01*
X173261427Y-116248571D01*
X173404285Y-116177143D01*
X173475713Y-116105714D01*
X173547142Y-115962857D01*
X173547142Y-115534286D01*
X173475713Y-115391429D01*
X173404285Y-115320000D01*
X173261427Y-115248571D01*
X172975713Y-115248571D01*
X172832856Y-115320000D01*
X171118570Y-115248571D02*
X170761427Y-116248571D01*
X170404285Y-115248571D01*
X169547142Y-114748571D02*
X169404285Y-114748571D01*
X169261428Y-114820000D01*
X169189999Y-114891429D01*
X169118570Y-115034286D01*
X169047142Y-115320000D01*
X169047142Y-115677143D01*
X169118570Y-115962857D01*
X169189999Y-116105714D01*
X169261428Y-116177143D01*
X169404285Y-116248571D01*
X169547142Y-116248571D01*
X169689999Y-116177143D01*
X169761428Y-116105714D01*
X169832856Y-115962857D01*
X169904285Y-115677143D01*
X169904285Y-115320000D01*
X169832856Y-115034286D01*
X169761428Y-114891429D01*
X169689999Y-114820000D01*
X169547142Y-114748571D01*
X168404285Y-116105714D02*
X168332857Y-116177143D01*
X168404285Y-116248571D01*
X168475714Y-116177143D01*
X168404285Y-116105714D01*
X168404285Y-116248571D01*
X166904285Y-116248571D02*
X167761428Y-116248571D01*
X167332856Y-116248571D02*
X167332856Y-114748571D01*
X167475713Y-114962857D01*
X167618571Y-115105714D01*
X167761428Y-115177143D01*
D13*
X187960000Y-91440000D02*
X187960000Y-88900000D01*
X187960000Y-88900000D02*
X190500000Y-88900000D01*
X190500000Y-88900000D02*
X198120000Y-88900000D01*
X198120000Y-88900000D02*
X198120000Y-93980000D01*
X198120000Y-93980000D02*
X187960000Y-93980000D01*
X187960000Y-93980000D02*
X187960000Y-91440000D01*
D14*
X139700000Y-91440000D02*
X138430000Y-91440000D01*
X138430000Y-91440000D02*
X138430000Y-99060000D01*
X138430000Y-99060000D02*
X139700000Y-99060000D01*
X151130000Y-90170000D02*
X154940000Y-90170000D01*
X154940000Y-90170000D02*
X154940000Y-92710000D01*
X154940000Y-92710000D02*
X151130000Y-92710000D01*
X151130000Y-92710000D02*
X151130000Y-90170000D01*
X144780000Y-91440000D02*
X144780000Y-99060000D01*
X144780000Y-99060000D02*
X139700000Y-99060000D01*
X144780000Y-91440000D02*
X139700000Y-91440000D01*
X146050000Y-90170000D02*
X148590000Y-90170000D01*
X148590000Y-90170000D02*
X148590000Y-92710000D01*
X148590000Y-92710000D02*
X146050000Y-92710000D01*
X146050000Y-92710000D02*
X146050000Y-90170000D01*
X172720000Y-97790000D02*
X172720000Y-92710000D01*
X172720000Y-92710000D02*
X170180000Y-92710000D01*
X170180000Y-92710000D02*
X170180000Y-97790000D01*
X170180000Y-97790000D02*
X172720000Y-97790000D01*
X166370000Y-90170000D02*
X166370000Y-100330000D01*
X157480000Y-100330000D02*
X157480000Y-90170000D01*
X166370000Y-100330000D02*
X157480000Y-100330000D01*
X166370000Y-90170000D02*
X157480000Y-90170000D01*
X139700000Y-104140000D02*
X175260000Y-104140000D01*
X175260000Y-104140000D02*
X175260000Y-86360000D01*
X175260000Y-86360000D02*
X139700000Y-86360000D01*
X139700000Y-86360000D02*
X139700000Y-104140000D01*
X123190000Y-83820000D02*
X115570000Y-83820000D01*
X123190000Y-86360000D02*
X115570000Y-86360000D01*
X126010000Y-86640000D02*
X124460000Y-86640000D01*
X115570000Y-83820000D02*
X115570000Y-86360000D01*
X123190000Y-86360000D02*
X123190000Y-83820000D01*
X124460000Y-83540000D02*
X126010000Y-83540000D01*
X126010000Y-83540000D02*
X126010000Y-86640000D01*
X190105000Y-78070000D02*
X190105000Y-76870000D01*
X188355000Y-76870000D02*
X188355000Y-78070000D01*
X117830000Y-93700000D02*
X119380000Y-93700000D01*
X123190000Y-93980000D02*
X120650000Y-93980000D01*
X120650000Y-93980000D02*
X120650000Y-96520000D01*
X119380000Y-96800000D02*
X117830000Y-96800000D01*
X117830000Y-96800000D02*
X117830000Y-93700000D01*
X120650000Y-96520000D02*
X123190000Y-96520000D01*
X123190000Y-96520000D02*
X123190000Y-93980000D01*
X187565000Y-78070000D02*
X187565000Y-76870000D01*
X185815000Y-76870000D02*
X185815000Y-78070000D01*
X182280000Y-78980000D02*
X183480000Y-78980000D01*
X183480000Y-77230000D02*
X182280000Y-77230000D01*
X114695000Y-88935000D02*
X114695000Y-90135000D01*
X116445000Y-90135000D02*
X116445000Y-88935000D01*
X110885000Y-74330000D02*
X110885000Y-75530000D01*
X112635000Y-75530000D02*
X112635000Y-74330000D01*
X189560000Y-75045000D02*
X186860000Y-75045000D01*
X189560000Y-73545000D02*
X186860000Y-73545000D01*
X188060000Y-74445000D02*
X188060000Y-74195000D01*
X188060000Y-74195000D02*
X188210000Y-74345000D01*
X188310000Y-73945000D02*
X188310000Y-74645000D01*
X187960000Y-74295000D02*
X187610000Y-74295000D01*
X188310000Y-74295000D02*
X187960000Y-73945000D01*
X187960000Y-73945000D02*
X187960000Y-74645000D01*
X187960000Y-74645000D02*
X188310000Y-74295000D01*
X126010000Y-69245000D02*
X124460000Y-69245000D01*
X126010000Y-67945000D02*
X126010000Y-69245000D01*
X124587000Y-63754000D02*
X124587000Y-57912000D01*
X124587000Y-57912000D02*
X124333000Y-57912000D01*
X124333000Y-57912000D02*
X124333000Y-63754000D01*
X124333000Y-63754000D02*
X124460000Y-63754000D01*
X124460000Y-63754000D02*
X124460000Y-57912000D01*
X124714000Y-66421000D02*
X124714000Y-66802000D01*
X124206000Y-66421000D02*
X124206000Y-66802000D01*
X122174000Y-66421000D02*
X122174000Y-66802000D01*
X121666000Y-66421000D02*
X121666000Y-66802000D01*
X119634000Y-66421000D02*
X119634000Y-66802000D01*
X119126000Y-66421000D02*
X119126000Y-66802000D01*
X111506000Y-66421000D02*
X111506000Y-66802000D01*
X112014000Y-66421000D02*
X112014000Y-66802000D01*
X114046000Y-66421000D02*
X114046000Y-66802000D01*
X114554000Y-66421000D02*
X114554000Y-66802000D01*
X116586000Y-66421000D02*
X116586000Y-66802000D01*
X117094000Y-66421000D02*
X117094000Y-66802000D01*
X125730000Y-66421000D02*
X125730000Y-63881000D01*
X123190000Y-66421000D02*
X123190000Y-63881000D01*
X123190000Y-66421000D02*
X120650000Y-66421000D01*
X120650000Y-66421000D02*
X120650000Y-63881000D01*
X122174000Y-63881000D02*
X122174000Y-57785000D01*
X122174000Y-57785000D02*
X121666000Y-57785000D01*
X121666000Y-57785000D02*
X121666000Y-63881000D01*
X120650000Y-63881000D02*
X123190000Y-63881000D01*
X123190000Y-63881000D02*
X125730000Y-63881000D01*
X124206000Y-57785000D02*
X124206000Y-63881000D01*
X124714000Y-57785000D02*
X124206000Y-57785000D01*
X124714000Y-63881000D02*
X124714000Y-57785000D01*
X123190000Y-66421000D02*
X123190000Y-63881000D01*
X125730000Y-66421000D02*
X123190000Y-66421000D01*
X115570000Y-66421000D02*
X115570000Y-63881000D01*
X115570000Y-66421000D02*
X113030000Y-66421000D01*
X113030000Y-66421000D02*
X113030000Y-63881000D01*
X114554000Y-63881000D02*
X114554000Y-57785000D01*
X114554000Y-57785000D02*
X114046000Y-57785000D01*
X114046000Y-57785000D02*
X114046000Y-63881000D01*
X113030000Y-63881000D02*
X115570000Y-63881000D01*
X110490000Y-63881000D02*
X113030000Y-63881000D01*
X111506000Y-57785000D02*
X111506000Y-63881000D01*
X112014000Y-57785000D02*
X111506000Y-57785000D01*
X112014000Y-63881000D02*
X112014000Y-57785000D01*
X110490000Y-66421000D02*
X110490000Y-63881000D01*
X113030000Y-66421000D02*
X110490000Y-66421000D01*
X113030000Y-66421000D02*
X113030000Y-63881000D01*
X118110000Y-66421000D02*
X118110000Y-63881000D01*
X118110000Y-66421000D02*
X115570000Y-66421000D01*
X115570000Y-66421000D02*
X115570000Y-63881000D01*
X117094000Y-63881000D02*
X117094000Y-57785000D01*
X117094000Y-57785000D02*
X116586000Y-57785000D01*
X116586000Y-57785000D02*
X116586000Y-63881000D01*
X115570000Y-63881000D02*
X118110000Y-63881000D01*
X118110000Y-63881000D02*
X120650000Y-63881000D01*
X119126000Y-57785000D02*
X119126000Y-63881000D01*
X119634000Y-57785000D02*
X119126000Y-57785000D01*
X119634000Y-63881000D02*
X119634000Y-57785000D01*
X118110000Y-66421000D02*
X118110000Y-63881000D01*
X120650000Y-66421000D02*
X118110000Y-66421000D01*
X120650000Y-66421000D02*
X120650000Y-63881000D01*
D15*
X120550940Y-87868760D02*
X120550940Y-88369140D01*
X120550940Y-88369140D02*
X120749060Y-88369140D01*
X120749060Y-88369140D02*
X120749060Y-87868760D01*
X123649740Y-90670380D02*
X123149360Y-90670380D01*
X123149360Y-89369900D02*
X123649740Y-89369900D01*
X118150640Y-89369900D02*
X117650260Y-89369900D01*
X118150640Y-90670380D02*
X117650260Y-90670380D01*
X120149620Y-91869260D02*
X120149620Y-91368880D01*
X120149620Y-91368880D02*
X118150640Y-91368880D01*
X118150640Y-91368880D02*
X118150640Y-87868760D01*
X118150640Y-87868760D02*
X123149360Y-87868760D01*
X123149360Y-87868760D02*
X123149360Y-91368880D01*
X123149360Y-91368880D02*
X121150380Y-91368880D01*
X121150380Y-91368880D02*
X121150380Y-91869260D01*
X117650260Y-91869260D02*
X117650260Y-87370920D01*
X123649740Y-91869260D02*
X123649740Y-87370920D01*
X119349520Y-91869260D02*
X119349520Y-92069920D01*
X119349520Y-92069920D02*
X119049800Y-92069920D01*
X119049800Y-92069920D02*
X119049800Y-91869260D01*
X123649740Y-91869260D02*
X117650260Y-91869260D01*
X117650260Y-87370920D02*
X123649740Y-87370920D01*
D14*
X104775000Y-80645000D02*
X104775000Y-93345000D01*
X104775000Y-93345000D02*
X99695000Y-93345000D01*
X99695000Y-93345000D02*
X99695000Y-83185000D01*
X104775000Y-80645000D02*
X102235000Y-80645000D01*
X99415000Y-81915000D02*
X99415000Y-80365000D01*
X102235000Y-80645000D02*
X102235000Y-83185000D01*
X102235000Y-83185000D02*
X99695000Y-83185000D01*
X99415000Y-80365000D02*
X100965000Y-80365000D01*
X184110381Y-89852571D02*
X184919905Y-89852571D01*
X185015143Y-89888286D01*
X185062762Y-89924000D01*
X185110381Y-89995429D01*
X185110381Y-90138286D01*
X185062762Y-90209714D01*
X185015143Y-90245429D01*
X184919905Y-90281143D01*
X184110381Y-90281143D01*
X185110381Y-91031143D02*
X185110381Y-90602571D01*
X185110381Y-90816857D02*
X184110381Y-90816857D01*
X184253238Y-90745428D01*
X184348476Y-90674000D01*
X184396095Y-90602571D01*
X177697381Y-87739285D02*
X178506905Y-87739285D01*
X178602143Y-87775000D01*
X178649762Y-87810714D01*
X178697381Y-87882143D01*
X178697381Y-88025000D01*
X178649762Y-88096428D01*
X178602143Y-88132143D01*
X178506905Y-88167857D01*
X177697381Y-88167857D01*
X178697381Y-88917857D02*
X178697381Y-88489285D01*
X178697381Y-88703571D02*
X177697381Y-88703571D01*
X177840238Y-88632142D01*
X177935476Y-88560714D01*
X177983095Y-88489285D01*
X177697381Y-89382143D02*
X177697381Y-89453571D01*
X177745000Y-89525000D01*
X177792619Y-89560714D01*
X177887857Y-89596428D01*
X178078333Y-89632143D01*
X178316429Y-89632143D01*
X178506905Y-89596428D01*
X178602143Y-89560714D01*
X178649762Y-89525000D01*
X178697381Y-89453571D01*
X178697381Y-89382143D01*
X178649762Y-89310714D01*
X178602143Y-89275000D01*
X178506905Y-89239285D01*
X178316429Y-89203571D01*
X178078333Y-89203571D01*
X177887857Y-89239285D01*
X177792619Y-89275000D01*
X177745000Y-89310714D01*
X177697381Y-89382143D01*
X177792619Y-89917857D02*
X177745000Y-89953571D01*
X177697381Y-90025000D01*
X177697381Y-90203571D01*
X177745000Y-90275000D01*
X177792619Y-90310714D01*
X177887857Y-90346429D01*
X177983095Y-90346429D01*
X178125952Y-90310714D01*
X178697381Y-89882143D01*
X178697381Y-90346429D01*
X158765715Y-104862381D02*
X158765715Y-105671905D01*
X158730000Y-105767143D01*
X158694286Y-105814762D01*
X158622857Y-105862381D01*
X158480000Y-105862381D01*
X158408572Y-105814762D01*
X158372857Y-105767143D01*
X158337143Y-105671905D01*
X158337143Y-104862381D01*
X157587143Y-105862381D02*
X158015715Y-105862381D01*
X157801429Y-105862381D02*
X157801429Y-104862381D01*
X157872858Y-105005238D01*
X157944286Y-105100476D01*
X158015715Y-105148095D01*
X157122857Y-104862381D02*
X157051429Y-104862381D01*
X156980000Y-104910000D01*
X156944286Y-104957619D01*
X156908572Y-105052857D01*
X156872857Y-105243333D01*
X156872857Y-105481429D01*
X156908572Y-105671905D01*
X156944286Y-105767143D01*
X156980000Y-105814762D01*
X157051429Y-105862381D01*
X157122857Y-105862381D01*
X157194286Y-105814762D01*
X157230000Y-105767143D01*
X157265715Y-105671905D01*
X157301429Y-105481429D01*
X157301429Y-105243333D01*
X157265715Y-105052857D01*
X157230000Y-104957619D01*
X157194286Y-104910000D01*
X157122857Y-104862381D01*
X156158571Y-105862381D02*
X156587143Y-105862381D01*
X156372857Y-105862381D02*
X156372857Y-104862381D01*
X156444286Y-105005238D01*
X156515714Y-105100476D01*
X156587143Y-105148095D01*
X129234286Y-84542381D02*
X129234286Y-85256667D01*
X129270000Y-85399524D01*
X129341429Y-85494762D01*
X129448572Y-85542381D01*
X129520000Y-85542381D01*
X128484285Y-85542381D02*
X128912857Y-85542381D01*
X128698571Y-85542381D02*
X128698571Y-84542381D01*
X128770000Y-84685238D01*
X128841428Y-84780476D01*
X128912857Y-84828095D01*
X128019999Y-84542381D02*
X127948571Y-84542381D01*
X127877142Y-84590000D01*
X127841428Y-84637619D01*
X127805714Y-84732857D01*
X127769999Y-84923333D01*
X127769999Y-85161429D01*
X127805714Y-85351905D01*
X127841428Y-85447143D01*
X127877142Y-85494762D01*
X127948571Y-85542381D01*
X128019999Y-85542381D01*
X128091428Y-85494762D01*
X128127142Y-85447143D01*
X128162857Y-85351905D01*
X128198571Y-85161429D01*
X128198571Y-84923333D01*
X128162857Y-84732857D01*
X128127142Y-84637619D01*
X128091428Y-84590000D01*
X128019999Y-84542381D01*
X127091428Y-84542381D02*
X127448571Y-84542381D01*
X127484285Y-85018571D01*
X127448571Y-84970952D01*
X127377142Y-84923333D01*
X127198571Y-84923333D01*
X127127142Y-84970952D01*
X127091428Y-85018571D01*
X127055713Y-85113810D01*
X127055713Y-85351905D01*
X127091428Y-85447143D01*
X127127142Y-85494762D01*
X127198571Y-85542381D01*
X127377142Y-85542381D01*
X127448571Y-85494762D01*
X127484285Y-85447143D01*
X191587381Y-76630714D02*
X191111190Y-76380714D01*
X191587381Y-76202142D02*
X190587381Y-76202142D01*
X190587381Y-76487857D01*
X190635000Y-76559285D01*
X190682619Y-76595000D01*
X190777857Y-76630714D01*
X190920714Y-76630714D01*
X191015952Y-76595000D01*
X191063571Y-76559285D01*
X191111190Y-76487857D01*
X191111190Y-76202142D01*
X191587381Y-77345000D02*
X191587381Y-76916428D01*
X191587381Y-77130714D02*
X190587381Y-77130714D01*
X190730238Y-77059285D01*
X190825476Y-76987857D01*
X190873095Y-76916428D01*
X190587381Y-77809286D02*
X190587381Y-77880714D01*
X190635000Y-77952143D01*
X190682619Y-77987857D01*
X190777857Y-78023571D01*
X190968333Y-78059286D01*
X191206429Y-78059286D01*
X191396905Y-78023571D01*
X191492143Y-77987857D01*
X191539762Y-77952143D01*
X191587381Y-77880714D01*
X191587381Y-77809286D01*
X191539762Y-77737857D01*
X191492143Y-77702143D01*
X191396905Y-77666428D01*
X191206429Y-77630714D01*
X190968333Y-77630714D01*
X190777857Y-77666428D01*
X190682619Y-77702143D01*
X190635000Y-77737857D01*
X190587381Y-77809286D01*
X190920714Y-78702143D02*
X191587381Y-78702143D01*
X190539762Y-78523572D02*
X191254048Y-78345000D01*
X191254048Y-78809286D01*
X126059286Y-94702381D02*
X126059286Y-95416667D01*
X126095000Y-95559524D01*
X126166429Y-95654762D01*
X126273572Y-95702381D01*
X126345000Y-95702381D01*
X125309285Y-95702381D02*
X125737857Y-95702381D01*
X125523571Y-95702381D02*
X125523571Y-94702381D01*
X125595000Y-94845238D01*
X125666428Y-94940476D01*
X125737857Y-94988095D01*
X124844999Y-94702381D02*
X124773571Y-94702381D01*
X124702142Y-94750000D01*
X124666428Y-94797619D01*
X124630714Y-94892857D01*
X124594999Y-95083333D01*
X124594999Y-95321429D01*
X124630714Y-95511905D01*
X124666428Y-95607143D01*
X124702142Y-95654762D01*
X124773571Y-95702381D01*
X124844999Y-95702381D01*
X124916428Y-95654762D01*
X124952142Y-95607143D01*
X124987857Y-95511905D01*
X125023571Y-95321429D01*
X125023571Y-95083333D01*
X124987857Y-94892857D01*
X124952142Y-94797619D01*
X124916428Y-94750000D01*
X124844999Y-94702381D01*
X123952142Y-95035714D02*
X123952142Y-95702381D01*
X124130713Y-94654762D02*
X124309285Y-95369048D01*
X123844999Y-95369048D01*
X185237381Y-74725714D02*
X184761190Y-74475714D01*
X185237381Y-74297142D02*
X184237381Y-74297142D01*
X184237381Y-74582857D01*
X184285000Y-74654285D01*
X184332619Y-74690000D01*
X184427857Y-74725714D01*
X184570714Y-74725714D01*
X184665952Y-74690000D01*
X184713571Y-74654285D01*
X184761190Y-74582857D01*
X184761190Y-74297142D01*
X185237381Y-75440000D02*
X185237381Y-75011428D01*
X185237381Y-75225714D02*
X184237381Y-75225714D01*
X184380238Y-75154285D01*
X184475476Y-75082857D01*
X184523095Y-75011428D01*
X184237381Y-75904286D02*
X184237381Y-75975714D01*
X184285000Y-76047143D01*
X184332619Y-76082857D01*
X184427857Y-76118571D01*
X184618333Y-76154286D01*
X184856429Y-76154286D01*
X185046905Y-76118571D01*
X185142143Y-76082857D01*
X185189762Y-76047143D01*
X185237381Y-75975714D01*
X185237381Y-75904286D01*
X185189762Y-75832857D01*
X185142143Y-75797143D01*
X185046905Y-75761428D01*
X184856429Y-75725714D01*
X184618333Y-75725714D01*
X184427857Y-75761428D01*
X184332619Y-75797143D01*
X184285000Y-75832857D01*
X184237381Y-75904286D01*
X184237381Y-76404286D02*
X184237381Y-76868572D01*
X184618333Y-76618572D01*
X184618333Y-76725714D01*
X184665952Y-76797143D01*
X184713571Y-76832857D01*
X184808810Y-76868572D01*
X185046905Y-76868572D01*
X185142143Y-76832857D01*
X185189762Y-76797143D01*
X185237381Y-76725714D01*
X185237381Y-76511429D01*
X185189762Y-76440000D01*
X185142143Y-76404286D01*
X182449286Y-76652381D02*
X182699286Y-76176190D01*
X182877858Y-76652381D02*
X182877858Y-75652381D01*
X182592143Y-75652381D01*
X182520715Y-75700000D01*
X182485000Y-75747619D01*
X182449286Y-75842857D01*
X182449286Y-75985714D01*
X182485000Y-76080952D01*
X182520715Y-76128571D01*
X182592143Y-76176190D01*
X182877858Y-76176190D01*
X181735000Y-76652381D02*
X182163572Y-76652381D01*
X181949286Y-76652381D02*
X181949286Y-75652381D01*
X182020715Y-75795238D01*
X182092143Y-75890476D01*
X182163572Y-75938095D01*
X181270714Y-75652381D02*
X181199286Y-75652381D01*
X181127857Y-75700000D01*
X181092143Y-75747619D01*
X181056429Y-75842857D01*
X181020714Y-76033333D01*
X181020714Y-76271429D01*
X181056429Y-76461905D01*
X181092143Y-76557143D01*
X181127857Y-76604762D01*
X181199286Y-76652381D01*
X181270714Y-76652381D01*
X181342143Y-76604762D01*
X181377857Y-76557143D01*
X181413572Y-76461905D01*
X181449286Y-76271429D01*
X181449286Y-76033333D01*
X181413572Y-75842857D01*
X181377857Y-75747619D01*
X181342143Y-75700000D01*
X181270714Y-75652381D01*
X180342143Y-75652381D02*
X180699286Y-75652381D01*
X180735000Y-76128571D01*
X180699286Y-76080952D01*
X180627857Y-76033333D01*
X180449286Y-76033333D01*
X180377857Y-76080952D01*
X180342143Y-76128571D01*
X180306428Y-76223810D01*
X180306428Y-76461905D01*
X180342143Y-76557143D01*
X180377857Y-76604762D01*
X180449286Y-76652381D01*
X180627857Y-76652381D01*
X180699286Y-76604762D01*
X180735000Y-76557143D01*
X114117381Y-88695714D02*
X113641190Y-88445714D01*
X114117381Y-88267142D02*
X113117381Y-88267142D01*
X113117381Y-88552857D01*
X113165000Y-88624285D01*
X113212619Y-88660000D01*
X113307857Y-88695714D01*
X113450714Y-88695714D01*
X113545952Y-88660000D01*
X113593571Y-88624285D01*
X113641190Y-88552857D01*
X113641190Y-88267142D01*
X114117381Y-89410000D02*
X114117381Y-88981428D01*
X114117381Y-89195714D02*
X113117381Y-89195714D01*
X113260238Y-89124285D01*
X113355476Y-89052857D01*
X113403095Y-88981428D01*
X113117381Y-89874286D02*
X113117381Y-89945714D01*
X113165000Y-90017143D01*
X113212619Y-90052857D01*
X113307857Y-90088571D01*
X113498333Y-90124286D01*
X113736429Y-90124286D01*
X113926905Y-90088571D01*
X114022143Y-90052857D01*
X114069762Y-90017143D01*
X114117381Y-89945714D01*
X114117381Y-89874286D01*
X114069762Y-89802857D01*
X114022143Y-89767143D01*
X113926905Y-89731428D01*
X113736429Y-89695714D01*
X113498333Y-89695714D01*
X113307857Y-89731428D01*
X113212619Y-89767143D01*
X113165000Y-89802857D01*
X113117381Y-89874286D01*
X113117381Y-90767143D02*
X113117381Y-90624286D01*
X113165000Y-90552857D01*
X113212619Y-90517143D01*
X113355476Y-90445714D01*
X113545952Y-90410000D01*
X113926905Y-90410000D01*
X114022143Y-90445714D01*
X114069762Y-90481429D01*
X114117381Y-90552857D01*
X114117381Y-90695714D01*
X114069762Y-90767143D01*
X114022143Y-90802857D01*
X113926905Y-90838572D01*
X113688810Y-90838572D01*
X113593571Y-90802857D01*
X113545952Y-90767143D01*
X113498333Y-90695714D01*
X113498333Y-90552857D01*
X113545952Y-90481429D01*
X113593571Y-90445714D01*
X113688810Y-90410000D01*
X114117381Y-74090714D02*
X113641190Y-73840714D01*
X114117381Y-73662142D02*
X113117381Y-73662142D01*
X113117381Y-73947857D01*
X113165000Y-74019285D01*
X113212619Y-74055000D01*
X113307857Y-74090714D01*
X113450714Y-74090714D01*
X113545952Y-74055000D01*
X113593571Y-74019285D01*
X113641190Y-73947857D01*
X113641190Y-73662142D01*
X114117381Y-74805000D02*
X114117381Y-74376428D01*
X114117381Y-74590714D02*
X113117381Y-74590714D01*
X113260238Y-74519285D01*
X113355476Y-74447857D01*
X113403095Y-74376428D01*
X113117381Y-75269286D02*
X113117381Y-75340714D01*
X113165000Y-75412143D01*
X113212619Y-75447857D01*
X113307857Y-75483571D01*
X113498333Y-75519286D01*
X113736429Y-75519286D01*
X113926905Y-75483571D01*
X114022143Y-75447857D01*
X114069762Y-75412143D01*
X114117381Y-75340714D01*
X114117381Y-75269286D01*
X114069762Y-75197857D01*
X114022143Y-75162143D01*
X113926905Y-75126428D01*
X113736429Y-75090714D01*
X113498333Y-75090714D01*
X113307857Y-75126428D01*
X113212619Y-75162143D01*
X113165000Y-75197857D01*
X113117381Y-75269286D01*
X113117381Y-75769286D02*
X113117381Y-76269286D01*
X114117381Y-75947857D01*
X189227858Y-72997381D02*
X189227858Y-71997381D01*
X189049286Y-71997381D01*
X188942143Y-72045000D01*
X188870715Y-72140238D01*
X188835000Y-72235476D01*
X188799286Y-72425952D01*
X188799286Y-72568810D01*
X188835000Y-72759286D01*
X188870715Y-72854524D01*
X188942143Y-72949762D01*
X189049286Y-72997381D01*
X189227858Y-72997381D01*
X188085000Y-72997381D02*
X188513572Y-72997381D01*
X188299286Y-72997381D02*
X188299286Y-71997381D01*
X188370715Y-72140238D01*
X188442143Y-72235476D01*
X188513572Y-72283095D01*
X187620714Y-71997381D02*
X187549286Y-71997381D01*
X187477857Y-72045000D01*
X187442143Y-72092619D01*
X187406429Y-72187857D01*
X187370714Y-72378333D01*
X187370714Y-72616429D01*
X187406429Y-72806905D01*
X187442143Y-72902143D01*
X187477857Y-72949762D01*
X187549286Y-72997381D01*
X187620714Y-72997381D01*
X187692143Y-72949762D01*
X187727857Y-72902143D01*
X187763572Y-72806905D01*
X187799286Y-72616429D01*
X187799286Y-72378333D01*
X187763572Y-72187857D01*
X187727857Y-72092619D01*
X187692143Y-72045000D01*
X187620714Y-71997381D01*
X187085000Y-72092619D02*
X187049286Y-72045000D01*
X186977857Y-71997381D01*
X186799286Y-71997381D01*
X186727857Y-72045000D01*
X186692143Y-72092619D01*
X186656428Y-72187857D01*
X186656428Y-72283095D01*
X186692143Y-72425952D01*
X187120714Y-72997381D01*
X186656428Y-72997381D01*
X128599286Y-67397381D02*
X128599286Y-68111667D01*
X128635000Y-68254524D01*
X128706429Y-68349762D01*
X128813572Y-68397381D01*
X128885000Y-68397381D01*
X127849285Y-68397381D02*
X128277857Y-68397381D01*
X128063571Y-68397381D02*
X128063571Y-67397381D01*
X128135000Y-67540238D01*
X128206428Y-67635476D01*
X128277857Y-67683095D01*
X127384999Y-67397381D02*
X127313571Y-67397381D01*
X127242142Y-67445000D01*
X127206428Y-67492619D01*
X127170714Y-67587857D01*
X127134999Y-67778333D01*
X127134999Y-68016429D01*
X127170714Y-68206905D01*
X127206428Y-68302143D01*
X127242142Y-68349762D01*
X127313571Y-68397381D01*
X127384999Y-68397381D01*
X127456428Y-68349762D01*
X127492142Y-68302143D01*
X127527857Y-68206905D01*
X127563571Y-68016429D01*
X127563571Y-67778333D01*
X127527857Y-67587857D01*
X127492142Y-67492619D01*
X127456428Y-67445000D01*
X127384999Y-67397381D01*
X126706428Y-67825952D02*
X126777856Y-67778333D01*
X126813571Y-67730714D01*
X126849285Y-67635476D01*
X126849285Y-67587857D01*
X126813571Y-67492619D01*
X126777856Y-67445000D01*
X126706428Y-67397381D01*
X126563571Y-67397381D01*
X126492142Y-67445000D01*
X126456428Y-67492619D01*
X126420713Y-67587857D01*
X126420713Y-67635476D01*
X126456428Y-67730714D01*
X126492142Y-67778333D01*
X126563571Y-67825952D01*
X126706428Y-67825952D01*
X126777856Y-67873571D01*
X126813571Y-67921190D01*
X126849285Y-68016429D01*
X126849285Y-68206905D01*
X126813571Y-68302143D01*
X126777856Y-68349762D01*
X126706428Y-68397381D01*
X126563571Y-68397381D01*
X126492142Y-68349762D01*
X126456428Y-68302143D01*
X126420713Y-68206905D01*
X126420713Y-68016429D01*
X126456428Y-67921190D01*
X126492142Y-67873571D01*
X126563571Y-67825952D01*
X126694286Y-89622381D02*
X126694286Y-90336667D01*
X126730000Y-90479524D01*
X126801429Y-90574762D01*
X126908572Y-90622381D01*
X126980000Y-90622381D01*
X125944285Y-90622381D02*
X126372857Y-90622381D01*
X126158571Y-90622381D02*
X126158571Y-89622381D01*
X126230000Y-89765238D01*
X126301428Y-89860476D01*
X126372857Y-89908095D01*
X125479999Y-89622381D02*
X125408571Y-89622381D01*
X125337142Y-89670000D01*
X125301428Y-89717619D01*
X125265714Y-89812857D01*
X125229999Y-90003333D01*
X125229999Y-90241429D01*
X125265714Y-90431905D01*
X125301428Y-90527143D01*
X125337142Y-90574762D01*
X125408571Y-90622381D01*
X125479999Y-90622381D01*
X125551428Y-90574762D01*
X125587142Y-90527143D01*
X125622857Y-90431905D01*
X125658571Y-90241429D01*
X125658571Y-90003333D01*
X125622857Y-89812857D01*
X125587142Y-89717619D01*
X125551428Y-89670000D01*
X125479999Y-89622381D01*
X124587142Y-89622381D02*
X124729999Y-89622381D01*
X124801428Y-89670000D01*
X124837142Y-89717619D01*
X124908571Y-89860476D01*
X124944285Y-90050952D01*
X124944285Y-90431905D01*
X124908571Y-90527143D01*
X124872856Y-90574762D01*
X124801428Y-90622381D01*
X124658571Y-90622381D01*
X124587142Y-90574762D01*
X124551428Y-90527143D01*
X124515713Y-90431905D01*
X124515713Y-90193810D01*
X124551428Y-90098571D01*
X124587142Y-90050952D01*
X124658571Y-90003333D01*
X124801428Y-90003333D01*
X124872856Y-90050952D01*
X124908571Y-90098571D01*
X124944285Y-90193810D01*
X102485000Y-78827381D02*
X102485000Y-79541667D01*
X102520714Y-79684524D01*
X102592143Y-79779762D01*
X102699286Y-79827381D01*
X102770714Y-79827381D01*
X101734999Y-79827381D02*
X102163571Y-79827381D01*
X101949285Y-79827381D02*
X101949285Y-78827381D01*
X102020714Y-78970238D01*
X102092142Y-79065476D01*
X102163571Y-79113095D01*
M02*
