G04 #@! TF.FileFunction,Legend,Top*
%FSLAX46Y46*%
G04 Gerber Fmt 4.6, Leading zero omitted, Abs format (unit mm)*
G04 Created by KiCad (PCBNEW 4.0.1-stable) date 3/24/2016 2:28:27 AM*
%MOMM*%
G01*
G04 APERTURE LIST*
%ADD10C,0.100000*%
%ADD11C,0.150000*%
G04 APERTURE END LIST*
D10*
D11*
X191530000Y-99025000D02*
X191530000Y-97825000D01*
X193280000Y-97825000D02*
X193280000Y-99025000D01*
X110590576Y-77924147D02*
X110731997Y-78065569D01*
X112424811Y-79758382D02*
X112297532Y-79631103D01*
X109922995Y-81821287D02*
G75*
G03X112429054Y-79762625I512017J1931383D01*
G01*
X110492332Y-81434984D02*
G75*
G03X111980041Y-79948594I-57320J1545080D01*
G01*
X110562640Y-77914286D02*
G75*
G03X108518753Y-80448519I-134699J-1982689D01*
G01*
X110388792Y-78409831D02*
G75*
G03X108954331Y-79871520I46220J-1480073D01*
G01*
X195975000Y-99025000D02*
X195975000Y-97825000D01*
X197725000Y-97825000D02*
X197725000Y-99025000D01*
X127635000Y-67818000D02*
X129794000Y-67818000D01*
X127635000Y-72136000D02*
X127635000Y-67818000D01*
X131953000Y-72136000D02*
X127635000Y-72136000D01*
X131953000Y-67818000D02*
X131953000Y-72136000D01*
X129794000Y-67818000D02*
X131953000Y-67818000D01*
X139890500Y-113157000D02*
X137731500Y-113157000D01*
X139890500Y-108839000D02*
X139890500Y-113157000D01*
X135572500Y-108839000D02*
X139890500Y-108839000D01*
X135572500Y-113157000D02*
X135572500Y-108839000D01*
X137731500Y-113157000D02*
X135572500Y-113157000D01*
X145351500Y-113157000D02*
X143192500Y-113157000D01*
X145351500Y-108839000D02*
X145351500Y-113157000D01*
X141033500Y-108839000D02*
X145351500Y-108839000D01*
X141033500Y-113157000D02*
X141033500Y-108839000D01*
X143192500Y-113157000D02*
X141033500Y-113157000D01*
X163195000Y-80518000D02*
X165354000Y-80518000D01*
X163195000Y-84836000D02*
X163195000Y-80518000D01*
X167513000Y-84836000D02*
X163195000Y-84836000D01*
X167513000Y-80518000D02*
X167513000Y-84836000D01*
X165354000Y-80518000D02*
X167513000Y-80518000D01*
X137795000Y-67818000D02*
X139954000Y-67818000D01*
X137795000Y-72136000D02*
X137795000Y-67818000D01*
X142113000Y-72136000D02*
X137795000Y-72136000D01*
X142113000Y-67818000D02*
X142113000Y-72136000D01*
X139954000Y-67818000D02*
X142113000Y-67818000D01*
X173355000Y-80518000D02*
X175514000Y-80518000D01*
X173355000Y-84836000D02*
X173355000Y-80518000D01*
X177673000Y-84836000D02*
X173355000Y-84836000D01*
X177673000Y-80518000D02*
X177673000Y-84836000D01*
X175514000Y-80518000D02*
X177673000Y-80518000D01*
X147955000Y-67818000D02*
X150114000Y-67818000D01*
X147955000Y-72136000D02*
X147955000Y-67818000D01*
X152273000Y-72136000D02*
X147955000Y-72136000D01*
X152273000Y-67818000D02*
X152273000Y-72136000D01*
X150114000Y-67818000D02*
X152273000Y-67818000D01*
X183515000Y-80518000D02*
X185674000Y-80518000D01*
X183515000Y-84836000D02*
X183515000Y-80518000D01*
X187833000Y-84836000D02*
X183515000Y-84836000D01*
X187833000Y-80518000D02*
X187833000Y-84836000D01*
X185674000Y-80518000D02*
X187833000Y-80518000D01*
X189357000Y-80518000D02*
X191516000Y-80518000D01*
X189357000Y-84836000D02*
X189357000Y-80518000D01*
X193675000Y-84836000D02*
X189357000Y-84836000D01*
X193675000Y-80518000D02*
X193675000Y-84836000D01*
X191516000Y-80518000D02*
X193675000Y-80518000D01*
X158115000Y-67818000D02*
X160274000Y-67818000D01*
X158115000Y-72136000D02*
X158115000Y-67818000D01*
X162433000Y-72136000D02*
X158115000Y-72136000D01*
X162433000Y-67818000D02*
X162433000Y-72136000D01*
X160274000Y-67818000D02*
X162433000Y-67818000D01*
X178435000Y-67818000D02*
X180594000Y-67818000D01*
X178435000Y-72136000D02*
X178435000Y-67818000D01*
X182753000Y-72136000D02*
X178435000Y-72136000D01*
X182753000Y-67818000D02*
X182753000Y-72136000D01*
X180594000Y-67818000D02*
X182753000Y-67818000D01*
X184277000Y-67818000D02*
X186436000Y-67818000D01*
X184277000Y-72136000D02*
X184277000Y-67818000D01*
X188595000Y-72136000D02*
X184277000Y-72136000D01*
X188595000Y-67818000D02*
X188595000Y-72136000D01*
X186436000Y-67818000D02*
X188595000Y-67818000D01*
X177292000Y-113157000D02*
X175133000Y-113157000D01*
X177292000Y-108839000D02*
X177292000Y-113157000D01*
X172974000Y-108839000D02*
X177292000Y-108839000D01*
X172974000Y-113157000D02*
X172974000Y-108839000D01*
X175133000Y-113157000D02*
X172974000Y-113157000D01*
X181610000Y-113157000D02*
X179451000Y-113157000D01*
X181610000Y-108839000D02*
X181610000Y-113157000D01*
X177292000Y-108839000D02*
X181610000Y-108839000D01*
X177292000Y-113157000D02*
X177292000Y-108839000D01*
X179451000Y-113157000D02*
X177292000Y-113157000D01*
X168275000Y-67818000D02*
X170434000Y-67818000D01*
X168275000Y-72136000D02*
X168275000Y-67818000D01*
X172593000Y-72136000D02*
X168275000Y-72136000D01*
X172593000Y-67818000D02*
X172593000Y-72136000D01*
X170434000Y-67818000D02*
X172593000Y-67818000D01*
X164592000Y-113157000D02*
X162433000Y-113157000D01*
X164592000Y-108839000D02*
X164592000Y-113157000D01*
X160274000Y-108839000D02*
X164592000Y-108839000D01*
X160274000Y-113157000D02*
X160274000Y-108839000D01*
X162433000Y-113157000D02*
X160274000Y-113157000D01*
X168910000Y-113157000D02*
X166751000Y-113157000D01*
X168910000Y-108839000D02*
X168910000Y-113157000D01*
X164592000Y-108839000D02*
X168910000Y-108839000D01*
X164592000Y-113157000D02*
X164592000Y-108839000D01*
X166751000Y-113157000D02*
X164592000Y-113157000D01*
X132715000Y-80518000D02*
X134874000Y-80518000D01*
X132715000Y-84836000D02*
X132715000Y-80518000D01*
X137033000Y-84836000D02*
X132715000Y-84836000D01*
X137033000Y-80518000D02*
X137033000Y-84836000D01*
X134874000Y-80518000D02*
X137033000Y-80518000D01*
X189992000Y-113157000D02*
X187833000Y-113157000D01*
X189992000Y-108839000D02*
X189992000Y-113157000D01*
X185674000Y-108839000D02*
X189992000Y-108839000D01*
X185674000Y-113157000D02*
X185674000Y-108839000D01*
X187833000Y-113157000D02*
X185674000Y-113157000D01*
X194310000Y-113157000D02*
X192151000Y-113157000D01*
X194310000Y-108839000D02*
X194310000Y-113157000D01*
X189992000Y-108839000D02*
X194310000Y-108839000D01*
X189992000Y-113157000D02*
X189992000Y-108839000D01*
X192151000Y-113157000D02*
X189992000Y-113157000D01*
X142875000Y-80518000D02*
X145034000Y-80518000D01*
X142875000Y-84836000D02*
X142875000Y-80518000D01*
X147193000Y-84836000D02*
X142875000Y-84836000D01*
X147193000Y-80518000D02*
X147193000Y-84836000D01*
X145034000Y-80518000D02*
X147193000Y-80518000D01*
X202692000Y-113157000D02*
X200533000Y-113157000D01*
X202692000Y-108839000D02*
X202692000Y-113157000D01*
X198374000Y-108839000D02*
X202692000Y-108839000D01*
X198374000Y-113157000D02*
X198374000Y-108839000D01*
X200533000Y-113157000D02*
X198374000Y-113157000D01*
X207010000Y-113157000D02*
X204851000Y-113157000D01*
X207010000Y-108839000D02*
X207010000Y-113157000D01*
X202692000Y-108839000D02*
X207010000Y-108839000D01*
X202692000Y-113157000D02*
X202692000Y-108839000D01*
X204851000Y-113157000D02*
X202692000Y-113157000D01*
X153035000Y-80518000D02*
X155194000Y-80518000D01*
X153035000Y-84836000D02*
X153035000Y-80518000D01*
X157353000Y-84836000D02*
X153035000Y-84836000D01*
X157353000Y-80518000D02*
X157353000Y-84836000D01*
X155194000Y-80518000D02*
X157353000Y-80518000D01*
X111633000Y-97536000D02*
X111633000Y-95377000D01*
X115951000Y-97536000D02*
X111633000Y-97536000D01*
X115951000Y-93218000D02*
X115951000Y-97536000D01*
X111633000Y-93218000D02*
X115951000Y-93218000D01*
X111633000Y-95377000D02*
X111633000Y-93218000D01*
X111633000Y-115316000D02*
X111633000Y-113157000D01*
X115951000Y-115316000D02*
X111633000Y-115316000D01*
X115951000Y-110998000D02*
X115951000Y-115316000D01*
X111633000Y-110998000D02*
X115951000Y-110998000D01*
X111633000Y-113157000D02*
X111633000Y-110998000D01*
X107061000Y-106426000D02*
X104902000Y-106426000D01*
X107061000Y-102108000D02*
X107061000Y-106426000D01*
X102743000Y-102108000D02*
X107061000Y-102108000D01*
X102743000Y-106426000D02*
X102743000Y-102108000D01*
X104902000Y-106426000D02*
X102743000Y-106426000D01*
X124841000Y-106426000D02*
X122682000Y-106426000D01*
X124841000Y-102108000D02*
X124841000Y-106426000D01*
X120523000Y-102108000D02*
X124841000Y-102108000D01*
X120523000Y-106426000D02*
X120523000Y-102108000D01*
X122682000Y-106426000D02*
X120523000Y-106426000D01*
X108585000Y-93345000D02*
X108585000Y-90805000D01*
X105765000Y-90525000D02*
X107315000Y-90525000D01*
X105765000Y-90525000D02*
X105765000Y-93625000D01*
X105765000Y-93625000D02*
X107315000Y-93625000D01*
X194762381Y-99264286D02*
X194286190Y-99514286D01*
X194762381Y-99692858D02*
X193762381Y-99692858D01*
X193762381Y-99407143D01*
X193810000Y-99335715D01*
X193857619Y-99300000D01*
X193952857Y-99264286D01*
X194095714Y-99264286D01*
X194190952Y-99300000D01*
X194238571Y-99335715D01*
X194286190Y-99407143D01*
X194286190Y-99692858D01*
X194762381Y-98550000D02*
X194762381Y-98978572D01*
X194762381Y-98764286D02*
X193762381Y-98764286D01*
X193905238Y-98835715D01*
X194000476Y-98907143D01*
X194048095Y-98978572D01*
X193762381Y-98085714D02*
X193762381Y-98014286D01*
X193810000Y-97942857D01*
X193857619Y-97907143D01*
X193952857Y-97871429D01*
X194143333Y-97835714D01*
X194381429Y-97835714D01*
X194571905Y-97871429D01*
X194667143Y-97907143D01*
X194714762Y-97942857D01*
X194762381Y-98014286D01*
X194762381Y-98085714D01*
X194714762Y-98157143D01*
X194667143Y-98192857D01*
X194571905Y-98228572D01*
X194381429Y-98264286D01*
X194143333Y-98264286D01*
X193952857Y-98228572D01*
X193857619Y-98192857D01*
X193810000Y-98157143D01*
X193762381Y-98085714D01*
X193857619Y-97550000D02*
X193810000Y-97514286D01*
X193762381Y-97442857D01*
X193762381Y-97264286D01*
X193810000Y-97192857D01*
X193857619Y-97157143D01*
X193952857Y-97121428D01*
X194048095Y-97121428D01*
X194190952Y-97157143D01*
X194762381Y-97585714D01*
X194762381Y-97121428D01*
X113088372Y-78051393D02*
X112381265Y-77344286D01*
X112507534Y-77218016D01*
X112616968Y-77175927D01*
X112734818Y-77192763D01*
X112827416Y-77234852D01*
X112987357Y-77344285D01*
X113088372Y-77445301D01*
X113197806Y-77605242D01*
X113239895Y-77697839D01*
X113256731Y-77815690D01*
X113214641Y-77925123D01*
X113088372Y-78051393D01*
X113896494Y-77243270D02*
X113593448Y-77546316D01*
X113744971Y-77394793D02*
X113037864Y-76687686D01*
X113088372Y-76839209D01*
X113105208Y-76957060D01*
X113088372Y-77041240D01*
X113517687Y-76207863D02*
X113568195Y-76157356D01*
X113652374Y-76140520D01*
X113711300Y-76148938D01*
X113803897Y-76191028D01*
X113963838Y-76300461D01*
X114132197Y-76468820D01*
X114241630Y-76628761D01*
X114283719Y-76721358D01*
X114292138Y-76780283D01*
X114275301Y-76864463D01*
X114224794Y-76914970D01*
X114140614Y-76931806D01*
X114081689Y-76923388D01*
X113989091Y-76881299D01*
X113829151Y-76771866D01*
X113660792Y-76603507D01*
X113551358Y-76443566D01*
X113509269Y-76350968D01*
X113500851Y-76292043D01*
X113517687Y-76207863D01*
X114906647Y-76233117D02*
X114603601Y-76536163D01*
X114755124Y-76384640D02*
X114048017Y-75677533D01*
X114098525Y-75829056D01*
X114115361Y-75946907D01*
X114098525Y-76031087D01*
X111478332Y-77073700D02*
X110771225Y-76366594D01*
X111882393Y-76669639D02*
X111175286Y-76568624D01*
X111175286Y-75962532D02*
X111175286Y-76770655D01*
X199207381Y-99264286D02*
X198731190Y-99514286D01*
X199207381Y-99692858D02*
X198207381Y-99692858D01*
X198207381Y-99407143D01*
X198255000Y-99335715D01*
X198302619Y-99300000D01*
X198397857Y-99264286D01*
X198540714Y-99264286D01*
X198635952Y-99300000D01*
X198683571Y-99335715D01*
X198731190Y-99407143D01*
X198731190Y-99692858D01*
X199207381Y-98550000D02*
X199207381Y-98978572D01*
X199207381Y-98764286D02*
X198207381Y-98764286D01*
X198350238Y-98835715D01*
X198445476Y-98907143D01*
X198493095Y-98978572D01*
X198207381Y-98085714D02*
X198207381Y-98014286D01*
X198255000Y-97942857D01*
X198302619Y-97907143D01*
X198397857Y-97871429D01*
X198588333Y-97835714D01*
X198826429Y-97835714D01*
X199016905Y-97871429D01*
X199112143Y-97907143D01*
X199159762Y-97942857D01*
X199207381Y-98014286D01*
X199207381Y-98085714D01*
X199159762Y-98157143D01*
X199112143Y-98192857D01*
X199016905Y-98228572D01*
X198826429Y-98264286D01*
X198588333Y-98264286D01*
X198397857Y-98228572D01*
X198302619Y-98192857D01*
X198255000Y-98157143D01*
X198207381Y-98085714D01*
X199207381Y-97121428D02*
X199207381Y-97550000D01*
X199207381Y-97335714D02*
X198207381Y-97335714D01*
X198350238Y-97407143D01*
X198445476Y-97478571D01*
X198493095Y-97550000D01*
X127277762Y-71691286D02*
X127325381Y-71584143D01*
X127325381Y-71405572D01*
X127277762Y-71334143D01*
X127230143Y-71298429D01*
X127134905Y-71262714D01*
X127039667Y-71262714D01*
X126944429Y-71298429D01*
X126896810Y-71334143D01*
X126849190Y-71405572D01*
X126801571Y-71548429D01*
X126753952Y-71619857D01*
X126706333Y-71655572D01*
X126611095Y-71691286D01*
X126515857Y-71691286D01*
X126420619Y-71655572D01*
X126373000Y-71619857D01*
X126325381Y-71548429D01*
X126325381Y-71369857D01*
X126373000Y-71262714D01*
X126325381Y-71012714D02*
X127325381Y-70834143D01*
X126611095Y-70691286D01*
X127325381Y-70548428D01*
X126325381Y-70369857D01*
X127325381Y-69691285D02*
X127325381Y-70119857D01*
X127325381Y-69905571D02*
X126325381Y-69905571D01*
X126468238Y-69977000D01*
X126563476Y-70048428D01*
X126611095Y-70119857D01*
X126325381Y-69226999D02*
X126325381Y-69155571D01*
X126373000Y-69084142D01*
X126420619Y-69048428D01*
X126515857Y-69012714D01*
X126706333Y-68976999D01*
X126944429Y-68976999D01*
X127134905Y-69012714D01*
X127230143Y-69048428D01*
X127277762Y-69084142D01*
X127325381Y-69155571D01*
X127325381Y-69226999D01*
X127277762Y-69298428D01*
X127230143Y-69334142D01*
X127134905Y-69369857D01*
X126944429Y-69405571D01*
X126706333Y-69405571D01*
X126515857Y-69369857D01*
X126420619Y-69334142D01*
X126373000Y-69298428D01*
X126325381Y-69226999D01*
X126420619Y-68691285D02*
X126373000Y-68655571D01*
X126325381Y-68584142D01*
X126325381Y-68405571D01*
X126373000Y-68334142D01*
X126420619Y-68298428D01*
X126515857Y-68262713D01*
X126611095Y-68262713D01*
X126753952Y-68298428D01*
X127325381Y-68726999D01*
X127325381Y-68262713D01*
X135024762Y-112712286D02*
X135072381Y-112605143D01*
X135072381Y-112426572D01*
X135024762Y-112355143D01*
X134977143Y-112319429D01*
X134881905Y-112283714D01*
X134786667Y-112283714D01*
X134691429Y-112319429D01*
X134643810Y-112355143D01*
X134596190Y-112426572D01*
X134548571Y-112569429D01*
X134500952Y-112640857D01*
X134453333Y-112676572D01*
X134358095Y-112712286D01*
X134262857Y-112712286D01*
X134167619Y-112676572D01*
X134120000Y-112640857D01*
X134072381Y-112569429D01*
X134072381Y-112390857D01*
X134120000Y-112283714D01*
X134072381Y-112033714D02*
X135072381Y-111855143D01*
X134358095Y-111712286D01*
X135072381Y-111569428D01*
X134072381Y-111390857D01*
X135072381Y-110712285D02*
X135072381Y-111140857D01*
X135072381Y-110926571D02*
X134072381Y-110926571D01*
X134215238Y-110998000D01*
X134310476Y-111069428D01*
X134358095Y-111140857D01*
X134072381Y-110247999D02*
X134072381Y-110176571D01*
X134120000Y-110105142D01*
X134167619Y-110069428D01*
X134262857Y-110033714D01*
X134453333Y-109997999D01*
X134691429Y-109997999D01*
X134881905Y-110033714D01*
X134977143Y-110069428D01*
X135024762Y-110105142D01*
X135072381Y-110176571D01*
X135072381Y-110247999D01*
X135024762Y-110319428D01*
X134977143Y-110355142D01*
X134881905Y-110390857D01*
X134691429Y-110426571D01*
X134453333Y-110426571D01*
X134262857Y-110390857D01*
X134167619Y-110355142D01*
X134120000Y-110319428D01*
X134072381Y-110247999D01*
X134072381Y-109747999D02*
X134072381Y-109283713D01*
X134453333Y-109533713D01*
X134453333Y-109426571D01*
X134500952Y-109355142D01*
X134548571Y-109319428D01*
X134643810Y-109283713D01*
X134881905Y-109283713D01*
X134977143Y-109319428D01*
X135024762Y-109355142D01*
X135072381Y-109426571D01*
X135072381Y-109640856D01*
X135024762Y-109712285D01*
X134977143Y-109747999D01*
X146454762Y-112712286D02*
X146502381Y-112605143D01*
X146502381Y-112426572D01*
X146454762Y-112355143D01*
X146407143Y-112319429D01*
X146311905Y-112283714D01*
X146216667Y-112283714D01*
X146121429Y-112319429D01*
X146073810Y-112355143D01*
X146026190Y-112426572D01*
X145978571Y-112569429D01*
X145930952Y-112640857D01*
X145883333Y-112676572D01*
X145788095Y-112712286D01*
X145692857Y-112712286D01*
X145597619Y-112676572D01*
X145550000Y-112640857D01*
X145502381Y-112569429D01*
X145502381Y-112390857D01*
X145550000Y-112283714D01*
X145502381Y-112033714D02*
X146502381Y-111855143D01*
X145788095Y-111712286D01*
X146502381Y-111569428D01*
X145502381Y-111390857D01*
X146502381Y-110712285D02*
X146502381Y-111140857D01*
X146502381Y-110926571D02*
X145502381Y-110926571D01*
X145645238Y-110998000D01*
X145740476Y-111069428D01*
X145788095Y-111140857D01*
X145502381Y-110247999D02*
X145502381Y-110176571D01*
X145550000Y-110105142D01*
X145597619Y-110069428D01*
X145692857Y-110033714D01*
X145883333Y-109997999D01*
X146121429Y-109997999D01*
X146311905Y-110033714D01*
X146407143Y-110069428D01*
X146454762Y-110105142D01*
X146502381Y-110176571D01*
X146502381Y-110247999D01*
X146454762Y-110319428D01*
X146407143Y-110355142D01*
X146311905Y-110390857D01*
X146121429Y-110426571D01*
X145883333Y-110426571D01*
X145692857Y-110390857D01*
X145597619Y-110355142D01*
X145550000Y-110319428D01*
X145502381Y-110247999D01*
X145835714Y-109355142D02*
X146502381Y-109355142D01*
X145454762Y-109533713D02*
X146169048Y-109712285D01*
X146169048Y-109247999D01*
X162837762Y-84391286D02*
X162885381Y-84284143D01*
X162885381Y-84105572D01*
X162837762Y-84034143D01*
X162790143Y-83998429D01*
X162694905Y-83962714D01*
X162599667Y-83962714D01*
X162504429Y-83998429D01*
X162456810Y-84034143D01*
X162409190Y-84105572D01*
X162361571Y-84248429D01*
X162313952Y-84319857D01*
X162266333Y-84355572D01*
X162171095Y-84391286D01*
X162075857Y-84391286D01*
X161980619Y-84355572D01*
X161933000Y-84319857D01*
X161885381Y-84248429D01*
X161885381Y-84069857D01*
X161933000Y-83962714D01*
X161885381Y-83712714D02*
X162885381Y-83534143D01*
X162171095Y-83391286D01*
X162885381Y-83248428D01*
X161885381Y-83069857D01*
X162885381Y-82391285D02*
X162885381Y-82819857D01*
X162885381Y-82605571D02*
X161885381Y-82605571D01*
X162028238Y-82677000D01*
X162123476Y-82748428D01*
X162171095Y-82819857D01*
X161885381Y-81926999D02*
X161885381Y-81855571D01*
X161933000Y-81784142D01*
X161980619Y-81748428D01*
X162075857Y-81712714D01*
X162266333Y-81676999D01*
X162504429Y-81676999D01*
X162694905Y-81712714D01*
X162790143Y-81748428D01*
X162837762Y-81784142D01*
X162885381Y-81855571D01*
X162885381Y-81926999D01*
X162837762Y-81998428D01*
X162790143Y-82034142D01*
X162694905Y-82069857D01*
X162504429Y-82105571D01*
X162266333Y-82105571D01*
X162075857Y-82069857D01*
X161980619Y-82034142D01*
X161933000Y-81998428D01*
X161885381Y-81926999D01*
X161885381Y-80998428D02*
X161885381Y-81355571D01*
X162361571Y-81391285D01*
X162313952Y-81355571D01*
X162266333Y-81284142D01*
X162266333Y-81105571D01*
X162313952Y-81034142D01*
X162361571Y-80998428D01*
X162456810Y-80962713D01*
X162694905Y-80962713D01*
X162790143Y-80998428D01*
X162837762Y-81034142D01*
X162885381Y-81105571D01*
X162885381Y-81284142D01*
X162837762Y-81355571D01*
X162790143Y-81391285D01*
X137437762Y-71691286D02*
X137485381Y-71584143D01*
X137485381Y-71405572D01*
X137437762Y-71334143D01*
X137390143Y-71298429D01*
X137294905Y-71262714D01*
X137199667Y-71262714D01*
X137104429Y-71298429D01*
X137056810Y-71334143D01*
X137009190Y-71405572D01*
X136961571Y-71548429D01*
X136913952Y-71619857D01*
X136866333Y-71655572D01*
X136771095Y-71691286D01*
X136675857Y-71691286D01*
X136580619Y-71655572D01*
X136533000Y-71619857D01*
X136485381Y-71548429D01*
X136485381Y-71369857D01*
X136533000Y-71262714D01*
X136485381Y-71012714D02*
X137485381Y-70834143D01*
X136771095Y-70691286D01*
X137485381Y-70548428D01*
X136485381Y-70369857D01*
X137485381Y-69691285D02*
X137485381Y-70119857D01*
X137485381Y-69905571D02*
X136485381Y-69905571D01*
X136628238Y-69977000D01*
X136723476Y-70048428D01*
X136771095Y-70119857D01*
X136485381Y-69226999D02*
X136485381Y-69155571D01*
X136533000Y-69084142D01*
X136580619Y-69048428D01*
X136675857Y-69012714D01*
X136866333Y-68976999D01*
X137104429Y-68976999D01*
X137294905Y-69012714D01*
X137390143Y-69048428D01*
X137437762Y-69084142D01*
X137485381Y-69155571D01*
X137485381Y-69226999D01*
X137437762Y-69298428D01*
X137390143Y-69334142D01*
X137294905Y-69369857D01*
X137104429Y-69405571D01*
X136866333Y-69405571D01*
X136675857Y-69369857D01*
X136580619Y-69334142D01*
X136533000Y-69298428D01*
X136485381Y-69226999D01*
X136485381Y-68726999D02*
X136485381Y-68226999D01*
X137485381Y-68548428D01*
X172997762Y-84391286D02*
X173045381Y-84284143D01*
X173045381Y-84105572D01*
X172997762Y-84034143D01*
X172950143Y-83998429D01*
X172854905Y-83962714D01*
X172759667Y-83962714D01*
X172664429Y-83998429D01*
X172616810Y-84034143D01*
X172569190Y-84105572D01*
X172521571Y-84248429D01*
X172473952Y-84319857D01*
X172426333Y-84355572D01*
X172331095Y-84391286D01*
X172235857Y-84391286D01*
X172140619Y-84355572D01*
X172093000Y-84319857D01*
X172045381Y-84248429D01*
X172045381Y-84069857D01*
X172093000Y-83962714D01*
X172045381Y-83712714D02*
X173045381Y-83534143D01*
X172331095Y-83391286D01*
X173045381Y-83248428D01*
X172045381Y-83069857D01*
X173045381Y-82391285D02*
X173045381Y-82819857D01*
X173045381Y-82605571D02*
X172045381Y-82605571D01*
X172188238Y-82677000D01*
X172283476Y-82748428D01*
X172331095Y-82819857D01*
X172045381Y-81926999D02*
X172045381Y-81855571D01*
X172093000Y-81784142D01*
X172140619Y-81748428D01*
X172235857Y-81712714D01*
X172426333Y-81676999D01*
X172664429Y-81676999D01*
X172854905Y-81712714D01*
X172950143Y-81748428D01*
X172997762Y-81784142D01*
X173045381Y-81855571D01*
X173045381Y-81926999D01*
X172997762Y-81998428D01*
X172950143Y-82034142D01*
X172854905Y-82069857D01*
X172664429Y-82105571D01*
X172426333Y-82105571D01*
X172235857Y-82069857D01*
X172140619Y-82034142D01*
X172093000Y-81998428D01*
X172045381Y-81926999D01*
X172473952Y-81248428D02*
X172426333Y-81319856D01*
X172378714Y-81355571D01*
X172283476Y-81391285D01*
X172235857Y-81391285D01*
X172140619Y-81355571D01*
X172093000Y-81319856D01*
X172045381Y-81248428D01*
X172045381Y-81105571D01*
X172093000Y-81034142D01*
X172140619Y-80998428D01*
X172235857Y-80962713D01*
X172283476Y-80962713D01*
X172378714Y-80998428D01*
X172426333Y-81034142D01*
X172473952Y-81105571D01*
X172473952Y-81248428D01*
X172521571Y-81319856D01*
X172569190Y-81355571D01*
X172664429Y-81391285D01*
X172854905Y-81391285D01*
X172950143Y-81355571D01*
X172997762Y-81319856D01*
X173045381Y-81248428D01*
X173045381Y-81105571D01*
X172997762Y-81034142D01*
X172950143Y-80998428D01*
X172854905Y-80962713D01*
X172664429Y-80962713D01*
X172569190Y-80998428D01*
X172521571Y-81034142D01*
X172473952Y-81105571D01*
X147597762Y-71691286D02*
X147645381Y-71584143D01*
X147645381Y-71405572D01*
X147597762Y-71334143D01*
X147550143Y-71298429D01*
X147454905Y-71262714D01*
X147359667Y-71262714D01*
X147264429Y-71298429D01*
X147216810Y-71334143D01*
X147169190Y-71405572D01*
X147121571Y-71548429D01*
X147073952Y-71619857D01*
X147026333Y-71655572D01*
X146931095Y-71691286D01*
X146835857Y-71691286D01*
X146740619Y-71655572D01*
X146693000Y-71619857D01*
X146645381Y-71548429D01*
X146645381Y-71369857D01*
X146693000Y-71262714D01*
X146645381Y-71012714D02*
X147645381Y-70834143D01*
X146931095Y-70691286D01*
X147645381Y-70548428D01*
X146645381Y-70369857D01*
X147645381Y-69691285D02*
X147645381Y-70119857D01*
X147645381Y-69905571D02*
X146645381Y-69905571D01*
X146788238Y-69977000D01*
X146883476Y-70048428D01*
X146931095Y-70119857D01*
X147645381Y-68976999D02*
X147645381Y-69405571D01*
X147645381Y-69191285D02*
X146645381Y-69191285D01*
X146788238Y-69262714D01*
X146883476Y-69334142D01*
X146931095Y-69405571D01*
X146645381Y-68512713D02*
X146645381Y-68441285D01*
X146693000Y-68369856D01*
X146740619Y-68334142D01*
X146835857Y-68298428D01*
X147026333Y-68262713D01*
X147264429Y-68262713D01*
X147454905Y-68298428D01*
X147550143Y-68334142D01*
X147597762Y-68369856D01*
X147645381Y-68441285D01*
X147645381Y-68512713D01*
X147597762Y-68584142D01*
X147550143Y-68619856D01*
X147454905Y-68655571D01*
X147264429Y-68691285D01*
X147026333Y-68691285D01*
X146835857Y-68655571D01*
X146740619Y-68619856D01*
X146693000Y-68584142D01*
X146645381Y-68512713D01*
X183157762Y-84391286D02*
X183205381Y-84284143D01*
X183205381Y-84105572D01*
X183157762Y-84034143D01*
X183110143Y-83998429D01*
X183014905Y-83962714D01*
X182919667Y-83962714D01*
X182824429Y-83998429D01*
X182776810Y-84034143D01*
X182729190Y-84105572D01*
X182681571Y-84248429D01*
X182633952Y-84319857D01*
X182586333Y-84355572D01*
X182491095Y-84391286D01*
X182395857Y-84391286D01*
X182300619Y-84355572D01*
X182253000Y-84319857D01*
X182205381Y-84248429D01*
X182205381Y-84069857D01*
X182253000Y-83962714D01*
X182205381Y-83712714D02*
X183205381Y-83534143D01*
X182491095Y-83391286D01*
X183205381Y-83248428D01*
X182205381Y-83069857D01*
X183205381Y-82391285D02*
X183205381Y-82819857D01*
X183205381Y-82605571D02*
X182205381Y-82605571D01*
X182348238Y-82677000D01*
X182443476Y-82748428D01*
X182491095Y-82819857D01*
X183205381Y-81676999D02*
X183205381Y-82105571D01*
X183205381Y-81891285D02*
X182205381Y-81891285D01*
X182348238Y-81962714D01*
X182443476Y-82034142D01*
X182491095Y-82105571D01*
X183205381Y-80962713D02*
X183205381Y-81391285D01*
X183205381Y-81176999D02*
X182205381Y-81176999D01*
X182348238Y-81248428D01*
X182443476Y-81319856D01*
X182491095Y-81391285D01*
X194841762Y-84391286D02*
X194889381Y-84284143D01*
X194889381Y-84105572D01*
X194841762Y-84034143D01*
X194794143Y-83998429D01*
X194698905Y-83962714D01*
X194603667Y-83962714D01*
X194508429Y-83998429D01*
X194460810Y-84034143D01*
X194413190Y-84105572D01*
X194365571Y-84248429D01*
X194317952Y-84319857D01*
X194270333Y-84355572D01*
X194175095Y-84391286D01*
X194079857Y-84391286D01*
X193984619Y-84355572D01*
X193937000Y-84319857D01*
X193889381Y-84248429D01*
X193889381Y-84069857D01*
X193937000Y-83962714D01*
X193889381Y-83712714D02*
X194889381Y-83534143D01*
X194175095Y-83391286D01*
X194889381Y-83248428D01*
X193889381Y-83069857D01*
X194889381Y-82391285D02*
X194889381Y-82819857D01*
X194889381Y-82605571D02*
X193889381Y-82605571D01*
X194032238Y-82677000D01*
X194127476Y-82748428D01*
X194175095Y-82819857D01*
X194889381Y-81676999D02*
X194889381Y-82105571D01*
X194889381Y-81891285D02*
X193889381Y-81891285D01*
X194032238Y-81962714D01*
X194127476Y-82034142D01*
X194175095Y-82105571D01*
X193984619Y-81391285D02*
X193937000Y-81355571D01*
X193889381Y-81284142D01*
X193889381Y-81105571D01*
X193937000Y-81034142D01*
X193984619Y-80998428D01*
X194079857Y-80962713D01*
X194175095Y-80962713D01*
X194317952Y-80998428D01*
X194889381Y-81426999D01*
X194889381Y-80962713D01*
X157757762Y-71691286D02*
X157805381Y-71584143D01*
X157805381Y-71405572D01*
X157757762Y-71334143D01*
X157710143Y-71298429D01*
X157614905Y-71262714D01*
X157519667Y-71262714D01*
X157424429Y-71298429D01*
X157376810Y-71334143D01*
X157329190Y-71405572D01*
X157281571Y-71548429D01*
X157233952Y-71619857D01*
X157186333Y-71655572D01*
X157091095Y-71691286D01*
X156995857Y-71691286D01*
X156900619Y-71655572D01*
X156853000Y-71619857D01*
X156805381Y-71548429D01*
X156805381Y-71369857D01*
X156853000Y-71262714D01*
X156805381Y-71012714D02*
X157805381Y-70834143D01*
X157091095Y-70691286D01*
X157805381Y-70548428D01*
X156805381Y-70369857D01*
X157805381Y-69691285D02*
X157805381Y-70119857D01*
X157805381Y-69905571D02*
X156805381Y-69905571D01*
X156948238Y-69977000D01*
X157043476Y-70048428D01*
X157091095Y-70119857D01*
X157805381Y-68976999D02*
X157805381Y-69405571D01*
X157805381Y-69191285D02*
X156805381Y-69191285D01*
X156948238Y-69262714D01*
X157043476Y-69334142D01*
X157091095Y-69405571D01*
X157138714Y-68334142D02*
X157805381Y-68334142D01*
X156757762Y-68512713D02*
X157472048Y-68691285D01*
X157472048Y-68226999D01*
X178077762Y-71691286D02*
X178125381Y-71584143D01*
X178125381Y-71405572D01*
X178077762Y-71334143D01*
X178030143Y-71298429D01*
X177934905Y-71262714D01*
X177839667Y-71262714D01*
X177744429Y-71298429D01*
X177696810Y-71334143D01*
X177649190Y-71405572D01*
X177601571Y-71548429D01*
X177553952Y-71619857D01*
X177506333Y-71655572D01*
X177411095Y-71691286D01*
X177315857Y-71691286D01*
X177220619Y-71655572D01*
X177173000Y-71619857D01*
X177125381Y-71548429D01*
X177125381Y-71369857D01*
X177173000Y-71262714D01*
X177125381Y-71012714D02*
X178125381Y-70834143D01*
X177411095Y-70691286D01*
X178125381Y-70548428D01*
X177125381Y-70369857D01*
X178125381Y-69691285D02*
X178125381Y-70119857D01*
X178125381Y-69905571D02*
X177125381Y-69905571D01*
X177268238Y-69977000D01*
X177363476Y-70048428D01*
X177411095Y-70119857D01*
X178125381Y-68976999D02*
X178125381Y-69405571D01*
X178125381Y-69191285D02*
X177125381Y-69191285D01*
X177268238Y-69262714D01*
X177363476Y-69334142D01*
X177411095Y-69405571D01*
X177125381Y-68298428D02*
X177125381Y-68655571D01*
X177601571Y-68691285D01*
X177553952Y-68655571D01*
X177506333Y-68584142D01*
X177506333Y-68405571D01*
X177553952Y-68334142D01*
X177601571Y-68298428D01*
X177696810Y-68262713D01*
X177934905Y-68262713D01*
X178030143Y-68298428D01*
X178077762Y-68334142D01*
X178125381Y-68405571D01*
X178125381Y-68584142D01*
X178077762Y-68655571D01*
X178030143Y-68691285D01*
X189761762Y-71691286D02*
X189809381Y-71584143D01*
X189809381Y-71405572D01*
X189761762Y-71334143D01*
X189714143Y-71298429D01*
X189618905Y-71262714D01*
X189523667Y-71262714D01*
X189428429Y-71298429D01*
X189380810Y-71334143D01*
X189333190Y-71405572D01*
X189285571Y-71548429D01*
X189237952Y-71619857D01*
X189190333Y-71655572D01*
X189095095Y-71691286D01*
X188999857Y-71691286D01*
X188904619Y-71655572D01*
X188857000Y-71619857D01*
X188809381Y-71548429D01*
X188809381Y-71369857D01*
X188857000Y-71262714D01*
X188809381Y-71012714D02*
X189809381Y-70834143D01*
X189095095Y-70691286D01*
X189809381Y-70548428D01*
X188809381Y-70369857D01*
X189809381Y-69691285D02*
X189809381Y-70119857D01*
X189809381Y-69905571D02*
X188809381Y-69905571D01*
X188952238Y-69977000D01*
X189047476Y-70048428D01*
X189095095Y-70119857D01*
X189809381Y-68976999D02*
X189809381Y-69405571D01*
X189809381Y-69191285D02*
X188809381Y-69191285D01*
X188952238Y-69262714D01*
X189047476Y-69334142D01*
X189095095Y-69405571D01*
X188809381Y-68334142D02*
X188809381Y-68476999D01*
X188857000Y-68548428D01*
X188904619Y-68584142D01*
X189047476Y-68655571D01*
X189237952Y-68691285D01*
X189618905Y-68691285D01*
X189714143Y-68655571D01*
X189761762Y-68619856D01*
X189809381Y-68548428D01*
X189809381Y-68405571D01*
X189761762Y-68334142D01*
X189714143Y-68298428D01*
X189618905Y-68262713D01*
X189380810Y-68262713D01*
X189285571Y-68298428D01*
X189237952Y-68334142D01*
X189190333Y-68405571D01*
X189190333Y-68548428D01*
X189237952Y-68619856D01*
X189285571Y-68655571D01*
X189380810Y-68691285D01*
X172489762Y-112712286D02*
X172537381Y-112605143D01*
X172537381Y-112426572D01*
X172489762Y-112355143D01*
X172442143Y-112319429D01*
X172346905Y-112283714D01*
X172251667Y-112283714D01*
X172156429Y-112319429D01*
X172108810Y-112355143D01*
X172061190Y-112426572D01*
X172013571Y-112569429D01*
X171965952Y-112640857D01*
X171918333Y-112676572D01*
X171823095Y-112712286D01*
X171727857Y-112712286D01*
X171632619Y-112676572D01*
X171585000Y-112640857D01*
X171537381Y-112569429D01*
X171537381Y-112390857D01*
X171585000Y-112283714D01*
X171537381Y-112033714D02*
X172537381Y-111855143D01*
X171823095Y-111712286D01*
X172537381Y-111569428D01*
X171537381Y-111390857D01*
X172537381Y-110712285D02*
X172537381Y-111140857D01*
X172537381Y-110926571D02*
X171537381Y-110926571D01*
X171680238Y-110998000D01*
X171775476Y-111069428D01*
X171823095Y-111140857D01*
X172537381Y-109997999D02*
X172537381Y-110426571D01*
X172537381Y-110212285D02*
X171537381Y-110212285D01*
X171680238Y-110283714D01*
X171775476Y-110355142D01*
X171823095Y-110426571D01*
X171537381Y-109747999D02*
X171537381Y-109247999D01*
X172537381Y-109569428D01*
X183284762Y-112712286D02*
X183332381Y-112605143D01*
X183332381Y-112426572D01*
X183284762Y-112355143D01*
X183237143Y-112319429D01*
X183141905Y-112283714D01*
X183046667Y-112283714D01*
X182951429Y-112319429D01*
X182903810Y-112355143D01*
X182856190Y-112426572D01*
X182808571Y-112569429D01*
X182760952Y-112640857D01*
X182713333Y-112676572D01*
X182618095Y-112712286D01*
X182522857Y-112712286D01*
X182427619Y-112676572D01*
X182380000Y-112640857D01*
X182332381Y-112569429D01*
X182332381Y-112390857D01*
X182380000Y-112283714D01*
X182332381Y-112033714D02*
X183332381Y-111855143D01*
X182618095Y-111712286D01*
X183332381Y-111569428D01*
X182332381Y-111390857D01*
X183332381Y-110712285D02*
X183332381Y-111140857D01*
X183332381Y-110926571D02*
X182332381Y-110926571D01*
X182475238Y-110998000D01*
X182570476Y-111069428D01*
X182618095Y-111140857D01*
X183332381Y-109997999D02*
X183332381Y-110426571D01*
X183332381Y-110212285D02*
X182332381Y-110212285D01*
X182475238Y-110283714D01*
X182570476Y-110355142D01*
X182618095Y-110426571D01*
X182760952Y-109569428D02*
X182713333Y-109640856D01*
X182665714Y-109676571D01*
X182570476Y-109712285D01*
X182522857Y-109712285D01*
X182427619Y-109676571D01*
X182380000Y-109640856D01*
X182332381Y-109569428D01*
X182332381Y-109426571D01*
X182380000Y-109355142D01*
X182427619Y-109319428D01*
X182522857Y-109283713D01*
X182570476Y-109283713D01*
X182665714Y-109319428D01*
X182713333Y-109355142D01*
X182760952Y-109426571D01*
X182760952Y-109569428D01*
X182808571Y-109640856D01*
X182856190Y-109676571D01*
X182951429Y-109712285D01*
X183141905Y-109712285D01*
X183237143Y-109676571D01*
X183284762Y-109640856D01*
X183332381Y-109569428D01*
X183332381Y-109426571D01*
X183284762Y-109355142D01*
X183237143Y-109319428D01*
X183141905Y-109283713D01*
X182951429Y-109283713D01*
X182856190Y-109319428D01*
X182808571Y-109355142D01*
X182760952Y-109426571D01*
X167917762Y-71691286D02*
X167965381Y-71584143D01*
X167965381Y-71405572D01*
X167917762Y-71334143D01*
X167870143Y-71298429D01*
X167774905Y-71262714D01*
X167679667Y-71262714D01*
X167584429Y-71298429D01*
X167536810Y-71334143D01*
X167489190Y-71405572D01*
X167441571Y-71548429D01*
X167393952Y-71619857D01*
X167346333Y-71655572D01*
X167251095Y-71691286D01*
X167155857Y-71691286D01*
X167060619Y-71655572D01*
X167013000Y-71619857D01*
X166965381Y-71548429D01*
X166965381Y-71369857D01*
X167013000Y-71262714D01*
X166965381Y-71012714D02*
X167965381Y-70834143D01*
X167251095Y-70691286D01*
X167965381Y-70548428D01*
X166965381Y-70369857D01*
X167965381Y-69691285D02*
X167965381Y-70119857D01*
X167965381Y-69905571D02*
X166965381Y-69905571D01*
X167108238Y-69977000D01*
X167203476Y-70048428D01*
X167251095Y-70119857D01*
X167965381Y-68976999D02*
X167965381Y-69405571D01*
X167965381Y-69191285D02*
X166965381Y-69191285D01*
X167108238Y-69262714D01*
X167203476Y-69334142D01*
X167251095Y-69405571D01*
X167965381Y-68619856D02*
X167965381Y-68476999D01*
X167917762Y-68405571D01*
X167870143Y-68369856D01*
X167727286Y-68298428D01*
X167536810Y-68262713D01*
X167155857Y-68262713D01*
X167060619Y-68298428D01*
X167013000Y-68334142D01*
X166965381Y-68405571D01*
X166965381Y-68548428D01*
X167013000Y-68619856D01*
X167060619Y-68655571D01*
X167155857Y-68691285D01*
X167393952Y-68691285D01*
X167489190Y-68655571D01*
X167536810Y-68619856D01*
X167584429Y-68548428D01*
X167584429Y-68405571D01*
X167536810Y-68334142D01*
X167489190Y-68298428D01*
X167393952Y-68262713D01*
X159789762Y-112712286D02*
X159837381Y-112605143D01*
X159837381Y-112426572D01*
X159789762Y-112355143D01*
X159742143Y-112319429D01*
X159646905Y-112283714D01*
X159551667Y-112283714D01*
X159456429Y-112319429D01*
X159408810Y-112355143D01*
X159361190Y-112426572D01*
X159313571Y-112569429D01*
X159265952Y-112640857D01*
X159218333Y-112676572D01*
X159123095Y-112712286D01*
X159027857Y-112712286D01*
X158932619Y-112676572D01*
X158885000Y-112640857D01*
X158837381Y-112569429D01*
X158837381Y-112390857D01*
X158885000Y-112283714D01*
X158837381Y-112033714D02*
X159837381Y-111855143D01*
X159123095Y-111712286D01*
X159837381Y-111569428D01*
X158837381Y-111390857D01*
X159837381Y-110712285D02*
X159837381Y-111140857D01*
X159837381Y-110926571D02*
X158837381Y-110926571D01*
X158980238Y-110998000D01*
X159075476Y-111069428D01*
X159123095Y-111140857D01*
X158932619Y-110426571D02*
X158885000Y-110390857D01*
X158837381Y-110319428D01*
X158837381Y-110140857D01*
X158885000Y-110069428D01*
X158932619Y-110033714D01*
X159027857Y-109997999D01*
X159123095Y-109997999D01*
X159265952Y-110033714D01*
X159837381Y-110462285D01*
X159837381Y-109997999D01*
X158837381Y-109533713D02*
X158837381Y-109462285D01*
X158885000Y-109390856D01*
X158932619Y-109355142D01*
X159027857Y-109319428D01*
X159218333Y-109283713D01*
X159456429Y-109283713D01*
X159646905Y-109319428D01*
X159742143Y-109355142D01*
X159789762Y-109390856D01*
X159837381Y-109462285D01*
X159837381Y-109533713D01*
X159789762Y-109605142D01*
X159742143Y-109640856D01*
X159646905Y-109676571D01*
X159456429Y-109712285D01*
X159218333Y-109712285D01*
X159027857Y-109676571D01*
X158932619Y-109640856D01*
X158885000Y-109605142D01*
X158837381Y-109533713D01*
X170584762Y-112839286D02*
X170632381Y-112732143D01*
X170632381Y-112553572D01*
X170584762Y-112482143D01*
X170537143Y-112446429D01*
X170441905Y-112410714D01*
X170346667Y-112410714D01*
X170251429Y-112446429D01*
X170203810Y-112482143D01*
X170156190Y-112553572D01*
X170108571Y-112696429D01*
X170060952Y-112767857D01*
X170013333Y-112803572D01*
X169918095Y-112839286D01*
X169822857Y-112839286D01*
X169727619Y-112803572D01*
X169680000Y-112767857D01*
X169632381Y-112696429D01*
X169632381Y-112517857D01*
X169680000Y-112410714D01*
X169632381Y-112160714D02*
X170632381Y-111982143D01*
X169918095Y-111839286D01*
X170632381Y-111696428D01*
X169632381Y-111517857D01*
X170632381Y-110839285D02*
X170632381Y-111267857D01*
X170632381Y-111053571D02*
X169632381Y-111053571D01*
X169775238Y-111125000D01*
X169870476Y-111196428D01*
X169918095Y-111267857D01*
X169727619Y-110553571D02*
X169680000Y-110517857D01*
X169632381Y-110446428D01*
X169632381Y-110267857D01*
X169680000Y-110196428D01*
X169727619Y-110160714D01*
X169822857Y-110124999D01*
X169918095Y-110124999D01*
X170060952Y-110160714D01*
X170632381Y-110589285D01*
X170632381Y-110124999D01*
X170632381Y-109410713D02*
X170632381Y-109839285D01*
X170632381Y-109624999D02*
X169632381Y-109624999D01*
X169775238Y-109696428D01*
X169870476Y-109767856D01*
X169918095Y-109839285D01*
X132357762Y-84391286D02*
X132405381Y-84284143D01*
X132405381Y-84105572D01*
X132357762Y-84034143D01*
X132310143Y-83998429D01*
X132214905Y-83962714D01*
X132119667Y-83962714D01*
X132024429Y-83998429D01*
X131976810Y-84034143D01*
X131929190Y-84105572D01*
X131881571Y-84248429D01*
X131833952Y-84319857D01*
X131786333Y-84355572D01*
X131691095Y-84391286D01*
X131595857Y-84391286D01*
X131500619Y-84355572D01*
X131453000Y-84319857D01*
X131405381Y-84248429D01*
X131405381Y-84069857D01*
X131453000Y-83962714D01*
X131405381Y-83712714D02*
X132405381Y-83534143D01*
X131691095Y-83391286D01*
X132405381Y-83248428D01*
X131405381Y-83069857D01*
X132405381Y-82391285D02*
X132405381Y-82819857D01*
X132405381Y-82605571D02*
X131405381Y-82605571D01*
X131548238Y-82677000D01*
X131643476Y-82748428D01*
X131691095Y-82819857D01*
X131500619Y-82105571D02*
X131453000Y-82069857D01*
X131405381Y-81998428D01*
X131405381Y-81819857D01*
X131453000Y-81748428D01*
X131500619Y-81712714D01*
X131595857Y-81676999D01*
X131691095Y-81676999D01*
X131833952Y-81712714D01*
X132405381Y-82141285D01*
X132405381Y-81676999D01*
X131500619Y-81391285D02*
X131453000Y-81355571D01*
X131405381Y-81284142D01*
X131405381Y-81105571D01*
X131453000Y-81034142D01*
X131500619Y-80998428D01*
X131595857Y-80962713D01*
X131691095Y-80962713D01*
X131833952Y-80998428D01*
X132405381Y-81426999D01*
X132405381Y-80962713D01*
X195984762Y-112712286D02*
X196032381Y-112605143D01*
X196032381Y-112426572D01*
X195984762Y-112355143D01*
X195937143Y-112319429D01*
X195841905Y-112283714D01*
X195746667Y-112283714D01*
X195651429Y-112319429D01*
X195603810Y-112355143D01*
X195556190Y-112426572D01*
X195508571Y-112569429D01*
X195460952Y-112640857D01*
X195413333Y-112676572D01*
X195318095Y-112712286D01*
X195222857Y-112712286D01*
X195127619Y-112676572D01*
X195080000Y-112640857D01*
X195032381Y-112569429D01*
X195032381Y-112390857D01*
X195080000Y-112283714D01*
X195032381Y-112033714D02*
X196032381Y-111855143D01*
X195318095Y-111712286D01*
X196032381Y-111569428D01*
X195032381Y-111390857D01*
X196032381Y-110712285D02*
X196032381Y-111140857D01*
X196032381Y-110926571D02*
X195032381Y-110926571D01*
X195175238Y-110998000D01*
X195270476Y-111069428D01*
X195318095Y-111140857D01*
X195127619Y-110426571D02*
X195080000Y-110390857D01*
X195032381Y-110319428D01*
X195032381Y-110140857D01*
X195080000Y-110069428D01*
X195127619Y-110033714D01*
X195222857Y-109997999D01*
X195318095Y-109997999D01*
X195460952Y-110033714D01*
X196032381Y-110462285D01*
X196032381Y-109997999D01*
X195032381Y-109747999D02*
X195032381Y-109283713D01*
X195413333Y-109533713D01*
X195413333Y-109426571D01*
X195460952Y-109355142D01*
X195508571Y-109319428D01*
X195603810Y-109283713D01*
X195841905Y-109283713D01*
X195937143Y-109319428D01*
X195984762Y-109355142D01*
X196032381Y-109426571D01*
X196032381Y-109640856D01*
X195984762Y-109712285D01*
X195937143Y-109747999D01*
X185189762Y-112712286D02*
X185237381Y-112605143D01*
X185237381Y-112426572D01*
X185189762Y-112355143D01*
X185142143Y-112319429D01*
X185046905Y-112283714D01*
X184951667Y-112283714D01*
X184856429Y-112319429D01*
X184808810Y-112355143D01*
X184761190Y-112426572D01*
X184713571Y-112569429D01*
X184665952Y-112640857D01*
X184618333Y-112676572D01*
X184523095Y-112712286D01*
X184427857Y-112712286D01*
X184332619Y-112676572D01*
X184285000Y-112640857D01*
X184237381Y-112569429D01*
X184237381Y-112390857D01*
X184285000Y-112283714D01*
X184237381Y-112033714D02*
X185237381Y-111855143D01*
X184523095Y-111712286D01*
X185237381Y-111569428D01*
X184237381Y-111390857D01*
X185237381Y-110712285D02*
X185237381Y-111140857D01*
X185237381Y-110926571D02*
X184237381Y-110926571D01*
X184380238Y-110998000D01*
X184475476Y-111069428D01*
X184523095Y-111140857D01*
X184332619Y-110426571D02*
X184285000Y-110390857D01*
X184237381Y-110319428D01*
X184237381Y-110140857D01*
X184285000Y-110069428D01*
X184332619Y-110033714D01*
X184427857Y-109997999D01*
X184523095Y-109997999D01*
X184665952Y-110033714D01*
X185237381Y-110462285D01*
X185237381Y-109997999D01*
X184570714Y-109355142D02*
X185237381Y-109355142D01*
X184189762Y-109533713D02*
X184904048Y-109712285D01*
X184904048Y-109247999D01*
X142517762Y-84391286D02*
X142565381Y-84284143D01*
X142565381Y-84105572D01*
X142517762Y-84034143D01*
X142470143Y-83998429D01*
X142374905Y-83962714D01*
X142279667Y-83962714D01*
X142184429Y-83998429D01*
X142136810Y-84034143D01*
X142089190Y-84105572D01*
X142041571Y-84248429D01*
X141993952Y-84319857D01*
X141946333Y-84355572D01*
X141851095Y-84391286D01*
X141755857Y-84391286D01*
X141660619Y-84355572D01*
X141613000Y-84319857D01*
X141565381Y-84248429D01*
X141565381Y-84069857D01*
X141613000Y-83962714D01*
X141565381Y-83712714D02*
X142565381Y-83534143D01*
X141851095Y-83391286D01*
X142565381Y-83248428D01*
X141565381Y-83069857D01*
X142565381Y-82391285D02*
X142565381Y-82819857D01*
X142565381Y-82605571D02*
X141565381Y-82605571D01*
X141708238Y-82677000D01*
X141803476Y-82748428D01*
X141851095Y-82819857D01*
X141660619Y-82105571D02*
X141613000Y-82069857D01*
X141565381Y-81998428D01*
X141565381Y-81819857D01*
X141613000Y-81748428D01*
X141660619Y-81712714D01*
X141755857Y-81676999D01*
X141851095Y-81676999D01*
X141993952Y-81712714D01*
X142565381Y-82141285D01*
X142565381Y-81676999D01*
X141565381Y-80998428D02*
X141565381Y-81355571D01*
X142041571Y-81391285D01*
X141993952Y-81355571D01*
X141946333Y-81284142D01*
X141946333Y-81105571D01*
X141993952Y-81034142D01*
X142041571Y-80998428D01*
X142136810Y-80962713D01*
X142374905Y-80962713D01*
X142470143Y-80998428D01*
X142517762Y-81034142D01*
X142565381Y-81105571D01*
X142565381Y-81284142D01*
X142517762Y-81355571D01*
X142470143Y-81391285D01*
X197889762Y-112712286D02*
X197937381Y-112605143D01*
X197937381Y-112426572D01*
X197889762Y-112355143D01*
X197842143Y-112319429D01*
X197746905Y-112283714D01*
X197651667Y-112283714D01*
X197556429Y-112319429D01*
X197508810Y-112355143D01*
X197461190Y-112426572D01*
X197413571Y-112569429D01*
X197365952Y-112640857D01*
X197318333Y-112676572D01*
X197223095Y-112712286D01*
X197127857Y-112712286D01*
X197032619Y-112676572D01*
X196985000Y-112640857D01*
X196937381Y-112569429D01*
X196937381Y-112390857D01*
X196985000Y-112283714D01*
X196937381Y-112033714D02*
X197937381Y-111855143D01*
X197223095Y-111712286D01*
X197937381Y-111569428D01*
X196937381Y-111390857D01*
X197937381Y-110712285D02*
X197937381Y-111140857D01*
X197937381Y-110926571D02*
X196937381Y-110926571D01*
X197080238Y-110998000D01*
X197175476Y-111069428D01*
X197223095Y-111140857D01*
X197032619Y-110426571D02*
X196985000Y-110390857D01*
X196937381Y-110319428D01*
X196937381Y-110140857D01*
X196985000Y-110069428D01*
X197032619Y-110033714D01*
X197127857Y-109997999D01*
X197223095Y-109997999D01*
X197365952Y-110033714D01*
X197937381Y-110462285D01*
X197937381Y-109997999D01*
X196937381Y-109355142D02*
X196937381Y-109497999D01*
X196985000Y-109569428D01*
X197032619Y-109605142D01*
X197175476Y-109676571D01*
X197365952Y-109712285D01*
X197746905Y-109712285D01*
X197842143Y-109676571D01*
X197889762Y-109640856D01*
X197937381Y-109569428D01*
X197937381Y-109426571D01*
X197889762Y-109355142D01*
X197842143Y-109319428D01*
X197746905Y-109283713D01*
X197508810Y-109283713D01*
X197413571Y-109319428D01*
X197365952Y-109355142D01*
X197318333Y-109426571D01*
X197318333Y-109569428D01*
X197365952Y-109640856D01*
X197413571Y-109676571D01*
X197508810Y-109712285D01*
X208684762Y-112839286D02*
X208732381Y-112732143D01*
X208732381Y-112553572D01*
X208684762Y-112482143D01*
X208637143Y-112446429D01*
X208541905Y-112410714D01*
X208446667Y-112410714D01*
X208351429Y-112446429D01*
X208303810Y-112482143D01*
X208256190Y-112553572D01*
X208208571Y-112696429D01*
X208160952Y-112767857D01*
X208113333Y-112803572D01*
X208018095Y-112839286D01*
X207922857Y-112839286D01*
X207827619Y-112803572D01*
X207780000Y-112767857D01*
X207732381Y-112696429D01*
X207732381Y-112517857D01*
X207780000Y-112410714D01*
X207732381Y-112160714D02*
X208732381Y-111982143D01*
X208018095Y-111839286D01*
X208732381Y-111696428D01*
X207732381Y-111517857D01*
X208732381Y-110839285D02*
X208732381Y-111267857D01*
X208732381Y-111053571D02*
X207732381Y-111053571D01*
X207875238Y-111125000D01*
X207970476Y-111196428D01*
X208018095Y-111267857D01*
X207827619Y-110553571D02*
X207780000Y-110517857D01*
X207732381Y-110446428D01*
X207732381Y-110267857D01*
X207780000Y-110196428D01*
X207827619Y-110160714D01*
X207922857Y-110124999D01*
X208018095Y-110124999D01*
X208160952Y-110160714D01*
X208732381Y-110589285D01*
X208732381Y-110124999D01*
X207732381Y-109874999D02*
X207732381Y-109374999D01*
X208732381Y-109696428D01*
X152677762Y-84391286D02*
X152725381Y-84284143D01*
X152725381Y-84105572D01*
X152677762Y-84034143D01*
X152630143Y-83998429D01*
X152534905Y-83962714D01*
X152439667Y-83962714D01*
X152344429Y-83998429D01*
X152296810Y-84034143D01*
X152249190Y-84105572D01*
X152201571Y-84248429D01*
X152153952Y-84319857D01*
X152106333Y-84355572D01*
X152011095Y-84391286D01*
X151915857Y-84391286D01*
X151820619Y-84355572D01*
X151773000Y-84319857D01*
X151725381Y-84248429D01*
X151725381Y-84069857D01*
X151773000Y-83962714D01*
X151725381Y-83712714D02*
X152725381Y-83534143D01*
X152011095Y-83391286D01*
X152725381Y-83248428D01*
X151725381Y-83069857D01*
X152725381Y-82391285D02*
X152725381Y-82819857D01*
X152725381Y-82605571D02*
X151725381Y-82605571D01*
X151868238Y-82677000D01*
X151963476Y-82748428D01*
X152011095Y-82819857D01*
X151820619Y-82105571D02*
X151773000Y-82069857D01*
X151725381Y-81998428D01*
X151725381Y-81819857D01*
X151773000Y-81748428D01*
X151820619Y-81712714D01*
X151915857Y-81676999D01*
X152011095Y-81676999D01*
X152153952Y-81712714D01*
X152725381Y-82141285D01*
X152725381Y-81676999D01*
X152153952Y-81248428D02*
X152106333Y-81319856D01*
X152058714Y-81355571D01*
X151963476Y-81391285D01*
X151915857Y-81391285D01*
X151820619Y-81355571D01*
X151773000Y-81319856D01*
X151725381Y-81248428D01*
X151725381Y-81105571D01*
X151773000Y-81034142D01*
X151820619Y-80998428D01*
X151915857Y-80962713D01*
X151963476Y-80962713D01*
X152058714Y-80998428D01*
X152106333Y-81034142D01*
X152153952Y-81105571D01*
X152153952Y-81248428D01*
X152201571Y-81319856D01*
X152249190Y-81355571D01*
X152344429Y-81391285D01*
X152534905Y-81391285D01*
X152630143Y-81355571D01*
X152677762Y-81319856D01*
X152725381Y-81248428D01*
X152725381Y-81105571D01*
X152677762Y-81034142D01*
X152630143Y-80998428D01*
X152534905Y-80962713D01*
X152344429Y-80962713D01*
X152249190Y-80998428D01*
X152201571Y-81034142D01*
X152153952Y-81105571D01*
X112077714Y-98702762D02*
X112184857Y-98750381D01*
X112363428Y-98750381D01*
X112434857Y-98702762D01*
X112470571Y-98655143D01*
X112506286Y-98559905D01*
X112506286Y-98464667D01*
X112470571Y-98369429D01*
X112434857Y-98321810D01*
X112363428Y-98274190D01*
X112220571Y-98226571D01*
X112149143Y-98178952D01*
X112113428Y-98131333D01*
X112077714Y-98036095D01*
X112077714Y-97940857D01*
X112113428Y-97845619D01*
X112149143Y-97798000D01*
X112220571Y-97750381D01*
X112399143Y-97750381D01*
X112506286Y-97798000D01*
X112756286Y-97750381D02*
X112934857Y-98750381D01*
X113077714Y-98036095D01*
X113220572Y-98750381D01*
X113399143Y-97750381D01*
X114077715Y-98750381D02*
X113649143Y-98750381D01*
X113863429Y-98750381D02*
X113863429Y-97750381D01*
X113792000Y-97893238D01*
X113720572Y-97988476D01*
X113649143Y-98036095D01*
X114792001Y-98750381D02*
X114363429Y-98750381D01*
X114577715Y-98750381D02*
X114577715Y-97750381D01*
X114506286Y-97893238D01*
X114434858Y-97988476D01*
X114363429Y-98036095D01*
X115042001Y-97750381D02*
X115506287Y-97750381D01*
X115256287Y-98131333D01*
X115363429Y-98131333D01*
X115434858Y-98178952D01*
X115470572Y-98226571D01*
X115506287Y-98321810D01*
X115506287Y-98559905D01*
X115470572Y-98655143D01*
X115434858Y-98702762D01*
X115363429Y-98750381D01*
X115149144Y-98750381D01*
X115077715Y-98702762D01*
X115042001Y-98655143D01*
X112077714Y-116482762D02*
X112184857Y-116530381D01*
X112363428Y-116530381D01*
X112434857Y-116482762D01*
X112470571Y-116435143D01*
X112506286Y-116339905D01*
X112506286Y-116244667D01*
X112470571Y-116149429D01*
X112434857Y-116101810D01*
X112363428Y-116054190D01*
X112220571Y-116006571D01*
X112149143Y-115958952D01*
X112113428Y-115911333D01*
X112077714Y-115816095D01*
X112077714Y-115720857D01*
X112113428Y-115625619D01*
X112149143Y-115578000D01*
X112220571Y-115530381D01*
X112399143Y-115530381D01*
X112506286Y-115578000D01*
X112756286Y-115530381D02*
X112934857Y-116530381D01*
X113077714Y-115816095D01*
X113220572Y-116530381D01*
X113399143Y-115530381D01*
X114077715Y-116530381D02*
X113649143Y-116530381D01*
X113863429Y-116530381D02*
X113863429Y-115530381D01*
X113792000Y-115673238D01*
X113720572Y-115768476D01*
X113649143Y-115816095D01*
X114542001Y-115530381D02*
X114613429Y-115530381D01*
X114684858Y-115578000D01*
X114720572Y-115625619D01*
X114756286Y-115720857D01*
X114792001Y-115911333D01*
X114792001Y-116149429D01*
X114756286Y-116339905D01*
X114720572Y-116435143D01*
X114684858Y-116482762D01*
X114613429Y-116530381D01*
X114542001Y-116530381D01*
X114470572Y-116482762D01*
X114434858Y-116435143D01*
X114399143Y-116339905D01*
X114363429Y-116149429D01*
X114363429Y-115911333D01*
X114399143Y-115720857D01*
X114434858Y-115625619D01*
X114470572Y-115578000D01*
X114542001Y-115530381D01*
X115149144Y-116530381D02*
X115292001Y-116530381D01*
X115363429Y-116482762D01*
X115399144Y-116435143D01*
X115470572Y-116292286D01*
X115506287Y-116101810D01*
X115506287Y-115720857D01*
X115470572Y-115625619D01*
X115434858Y-115578000D01*
X115363429Y-115530381D01*
X115220572Y-115530381D01*
X115149144Y-115578000D01*
X115113429Y-115625619D01*
X115077715Y-115720857D01*
X115077715Y-115958952D01*
X115113429Y-116054190D01*
X115149144Y-116101810D01*
X115220572Y-116149429D01*
X115363429Y-116149429D01*
X115434858Y-116101810D01*
X115470572Y-116054190D01*
X115506287Y-115958952D01*
X108227762Y-105981286D02*
X108275381Y-105874143D01*
X108275381Y-105695572D01*
X108227762Y-105624143D01*
X108180143Y-105588429D01*
X108084905Y-105552714D01*
X107989667Y-105552714D01*
X107894429Y-105588429D01*
X107846810Y-105624143D01*
X107799190Y-105695572D01*
X107751571Y-105838429D01*
X107703952Y-105909857D01*
X107656333Y-105945572D01*
X107561095Y-105981286D01*
X107465857Y-105981286D01*
X107370619Y-105945572D01*
X107323000Y-105909857D01*
X107275381Y-105838429D01*
X107275381Y-105659857D01*
X107323000Y-105552714D01*
X107275381Y-105302714D02*
X108275381Y-105124143D01*
X107561095Y-104981286D01*
X108275381Y-104838428D01*
X107275381Y-104659857D01*
X108275381Y-103981285D02*
X108275381Y-104409857D01*
X108275381Y-104195571D02*
X107275381Y-104195571D01*
X107418238Y-104267000D01*
X107513476Y-104338428D01*
X107561095Y-104409857D01*
X107275381Y-103516999D02*
X107275381Y-103445571D01*
X107323000Y-103374142D01*
X107370619Y-103338428D01*
X107465857Y-103302714D01*
X107656333Y-103266999D01*
X107894429Y-103266999D01*
X108084905Y-103302714D01*
X108180143Y-103338428D01*
X108227762Y-103374142D01*
X108275381Y-103445571D01*
X108275381Y-103516999D01*
X108227762Y-103588428D01*
X108180143Y-103624142D01*
X108084905Y-103659857D01*
X107894429Y-103695571D01*
X107656333Y-103695571D01*
X107465857Y-103659857D01*
X107370619Y-103624142D01*
X107323000Y-103588428D01*
X107275381Y-103516999D01*
X107275381Y-102624142D02*
X107275381Y-102766999D01*
X107323000Y-102838428D01*
X107370619Y-102874142D01*
X107513476Y-102945571D01*
X107703952Y-102981285D01*
X108084905Y-102981285D01*
X108180143Y-102945571D01*
X108227762Y-102909856D01*
X108275381Y-102838428D01*
X108275381Y-102695571D01*
X108227762Y-102624142D01*
X108180143Y-102588428D01*
X108084905Y-102552713D01*
X107846810Y-102552713D01*
X107751571Y-102588428D01*
X107703952Y-102624142D01*
X107656333Y-102695571D01*
X107656333Y-102838428D01*
X107703952Y-102909856D01*
X107751571Y-102945571D01*
X107846810Y-102981285D01*
X126007762Y-105981286D02*
X126055381Y-105874143D01*
X126055381Y-105695572D01*
X126007762Y-105624143D01*
X125960143Y-105588429D01*
X125864905Y-105552714D01*
X125769667Y-105552714D01*
X125674429Y-105588429D01*
X125626810Y-105624143D01*
X125579190Y-105695572D01*
X125531571Y-105838429D01*
X125483952Y-105909857D01*
X125436333Y-105945572D01*
X125341095Y-105981286D01*
X125245857Y-105981286D01*
X125150619Y-105945572D01*
X125103000Y-105909857D01*
X125055381Y-105838429D01*
X125055381Y-105659857D01*
X125103000Y-105552714D01*
X125055381Y-105302714D02*
X126055381Y-105124143D01*
X125341095Y-104981286D01*
X126055381Y-104838428D01*
X125055381Y-104659857D01*
X126055381Y-103981285D02*
X126055381Y-104409857D01*
X126055381Y-104195571D02*
X125055381Y-104195571D01*
X125198238Y-104267000D01*
X125293476Y-104338428D01*
X125341095Y-104409857D01*
X125055381Y-103516999D02*
X125055381Y-103445571D01*
X125103000Y-103374142D01*
X125150619Y-103338428D01*
X125245857Y-103302714D01*
X125436333Y-103266999D01*
X125674429Y-103266999D01*
X125864905Y-103302714D01*
X125960143Y-103338428D01*
X126007762Y-103374142D01*
X126055381Y-103445571D01*
X126055381Y-103516999D01*
X126007762Y-103588428D01*
X125960143Y-103624142D01*
X125864905Y-103659857D01*
X125674429Y-103695571D01*
X125436333Y-103695571D01*
X125245857Y-103659857D01*
X125150619Y-103624142D01*
X125103000Y-103588428D01*
X125055381Y-103516999D01*
X126055381Y-102552713D02*
X126055381Y-102981285D01*
X126055381Y-102766999D02*
X125055381Y-102766999D01*
X125198238Y-102838428D01*
X125293476Y-102909856D01*
X125341095Y-102981285D01*
X107065000Y-86427381D02*
X107065000Y-87141667D01*
X107029286Y-87284524D01*
X106957857Y-87379762D01*
X106850714Y-87427381D01*
X106779286Y-87427381D01*
X107386429Y-86522619D02*
X107422143Y-86475000D01*
X107493572Y-86427381D01*
X107672143Y-86427381D01*
X107743572Y-86475000D01*
X107779286Y-86522619D01*
X107815001Y-86617857D01*
X107815001Y-86713095D01*
X107779286Y-86855952D01*
X107350715Y-87427381D01*
X107815001Y-87427381D01*
M02*
