G04 #@! TF.FileFunction,Profile,NP*
%FSLAX46Y46*%
G04 Gerber Fmt 4.6, Leading zero omitted, Abs format (unit mm)*
G04 Created by KiCad (PCBNEW 4.0.1-stable) date 3/24/2016 2:28:27 AM*
%MOMM*%
G01*
G04 APERTURE LIST*
%ADD10C,0.100000*%
%ADD11C,0.127000*%
G04 APERTURE END LIST*
D10*
D11*
X205105000Y-73660000D02*
G75*
G03X203835000Y-73660000I-635000J-635000D01*
G01*
X199390000Y-69215000D02*
G75*
G03X199390000Y-67945000I-635000J635000D01*
G01*
X194945000Y-73660000D02*
G75*
G03X194945000Y-74930000I635000J-635000D01*
G01*
X198120000Y-78105000D02*
G75*
G03X199390000Y-78105000I635000J635000D01*
G01*
X208534000Y-118999000D02*
G75*
G03X209169000Y-118364000I0J635000D01*
G01*
X101981000Y-118364000D02*
G75*
G03X102616000Y-118999000I635000J0D01*
G01*
X101981000Y-113919000D02*
G75*
G03X100711000Y-112649000I-1270000J0D01*
G01*
X96266000Y-112649000D02*
X100711000Y-112649000D01*
X95631000Y-112014000D02*
X95631000Y-77724000D01*
X95631000Y-112014000D02*
G75*
G03X96266000Y-112649000I635000J0D01*
G01*
X109476885Y-76327000D02*
G75*
G03X109476885Y-76327000I-2796885J0D01*
G01*
X205994000Y-101600000D02*
G75*
G03X205994000Y-101600000I-2794000J0D01*
G01*
X199390000Y-67945000D02*
X195326000Y-63881000D01*
X205105000Y-73660000D02*
X209169000Y-77724000D01*
X199390000Y-78105000D02*
X203835000Y-73660000D01*
X194945000Y-74930000D02*
X198120000Y-78105000D01*
X199390000Y-69215000D02*
X194945000Y-73660000D01*
X95631000Y-77724000D02*
X109474000Y-63881000D01*
X102616000Y-118999000D02*
X208534000Y-118999000D01*
X209169000Y-118364000D02*
X209169000Y-77724000D01*
X195326000Y-63881000D02*
X109474000Y-63881000D01*
X101981000Y-113919000D02*
X101981000Y-118364000D01*
M02*
