G04 #@! TF.FileFunction,Copper,L2,Bot,Signal*
%FSLAX46Y46*%
G04 Gerber Fmt 4.6, Leading zero omitted, Abs format (unit mm)*
G04 Created by KiCad (PCBNEW 4.0.1-stable) date 3/24/2016 2:28:27 AM*
%MOMM*%
G01*
G04 APERTURE LIST*
%ADD10C,0.100000*%
%ADD11R,1.727200X1.727200*%
%ADD12O,1.727200X1.727200*%
%ADD13O,2.400000X1.100000*%
%ADD14R,1.100000X2.400000*%
%ADD15O,1.100000X2.400000*%
%ADD16C,1.600000*%
%ADD17R,1.727200X2.032000*%
%ADD18O,1.727200X2.032000*%
%ADD19R,1.300000X0.700000*%
%ADD20C,2.000000*%
%ADD21R,2.032000X2.032000*%
%ADD22O,2.032000X2.032000*%
%ADD23R,0.700000X1.300000*%
%ADD24R,1.198880X1.198880*%
%ADD25C,4.000000*%
%ADD26R,1.198880X1.699260*%
%ADD27O,1.198880X1.699260*%
%ADD28R,2.235200X2.235200*%
%ADD29C,0.600000*%
%ADD30C,0.508000*%
%ADD31C,0.381000*%
%ADD32C,0.254000*%
G04 APERTURE END LIST*
D10*
D11*
X189230000Y-90170000D03*
D12*
X189230000Y-92710000D03*
X191770000Y-90170000D03*
X191770000Y-92710000D03*
X194310000Y-90170000D03*
X194310000Y-92710000D03*
X196850000Y-90170000D03*
X196850000Y-92710000D03*
D13*
X180560000Y-94290000D03*
X180560000Y-92290000D03*
X180560000Y-90290000D03*
X180560000Y-88290000D03*
X180560000Y-86290000D03*
X180560000Y-84290000D03*
D14*
X196310000Y-97280000D03*
D15*
X194310000Y-97280000D03*
X192310000Y-97280000D03*
X190310000Y-97280000D03*
X188310000Y-97280000D03*
X186310000Y-97280000D03*
X184310000Y-97280000D03*
X182310000Y-97280000D03*
X182310000Y-81280000D03*
X184310000Y-81280000D03*
X186310000Y-81280000D03*
X188310000Y-81280000D03*
X190310000Y-81280000D03*
X192310000Y-81280000D03*
X194310000Y-81280000D03*
X196310000Y-81280000D03*
D16*
X173990000Y-95250000D03*
X173990000Y-97790000D03*
X173990000Y-100330000D03*
X173990000Y-102870000D03*
X173990000Y-92710000D03*
X173990000Y-90170000D03*
X173990000Y-87630000D03*
X171450000Y-102870000D03*
X168910000Y-102870000D03*
X166370000Y-102870000D03*
X163830000Y-102870000D03*
X161290000Y-102870000D03*
X158750000Y-102870000D03*
X156210000Y-102870000D03*
X153670000Y-102870000D03*
X151130000Y-102870000D03*
X148590000Y-102870000D03*
X146050000Y-102870000D03*
X143510000Y-102870000D03*
X140970000Y-102870000D03*
X143510000Y-100330000D03*
X148590000Y-100330000D03*
X151130000Y-100330000D03*
X153670000Y-100330000D03*
X171450000Y-87630000D03*
X168910000Y-87630000D03*
X166370000Y-87630000D03*
X163830000Y-87630000D03*
X161290000Y-87630000D03*
X158750000Y-87630000D03*
X156210000Y-87630000D03*
X153670000Y-87630000D03*
X151130000Y-87630000D03*
X148590000Y-87630000D03*
X146050000Y-87630000D03*
X143510000Y-87630000D03*
X140970000Y-87630000D03*
D17*
X124460000Y-85090000D03*
D18*
X121920000Y-85090000D03*
X119380000Y-85090000D03*
X116840000Y-85090000D03*
D19*
X189230000Y-76520000D03*
X189230000Y-78420000D03*
D10*
G36*
X109964786Y-78994000D02*
X111379000Y-77579786D01*
X112793214Y-78994000D01*
X111379000Y-80408214D01*
X109964786Y-78994000D01*
X109964786Y-78994000D01*
G37*
D20*
X109582949Y-80790051D03*
D21*
X119380000Y-95250000D03*
D22*
X121920000Y-95250000D03*
D19*
X186690000Y-76520000D03*
X186690000Y-78420000D03*
D23*
X183830000Y-78105000D03*
X181930000Y-78105000D03*
D19*
X115570000Y-90485000D03*
X115570000Y-88585000D03*
X111760000Y-75880000D03*
X111760000Y-73980000D03*
D24*
X186910980Y-74295000D03*
X189009020Y-74295000D03*
D25*
X136956800Y-76073000D03*
X157276800Y-76073000D03*
X177596800Y-76073000D03*
X131064000Y-104394000D03*
X183642000Y-104394000D03*
D17*
X124460000Y-67945000D03*
D18*
X121920000Y-67945000D03*
X119380000Y-67945000D03*
X116840000Y-67945000D03*
X114300000Y-67945000D03*
X111760000Y-67945000D03*
D26*
X119649240Y-90170000D03*
D27*
X121650760Y-90170000D03*
D11*
X100965000Y-81915000D03*
D12*
X103505000Y-81915000D03*
X100965000Y-84455000D03*
X103505000Y-84455000D03*
X100965000Y-86995000D03*
X103505000Y-86995000D03*
X100965000Y-89535000D03*
X103505000Y-89535000D03*
X100965000Y-92075000D03*
X103505000Y-92075000D03*
D28*
X107315000Y-92075000D03*
D29*
X181610000Y-82550000D03*
X111760000Y-72390000D03*
X187325000Y-75565000D03*
X146050000Y-95885000D03*
X128270000Y-90170000D03*
X156210000Y-95885000D03*
X195580000Y-87630000D03*
X119380000Y-80010000D03*
X97155000Y-85725000D03*
X96520000Y-88265000D03*
X139700000Y-66675000D03*
X149860000Y-66675000D03*
X160020000Y-66675000D03*
X170180000Y-66675000D03*
X180340000Y-66675000D03*
X186055000Y-66675000D03*
X130175000Y-66675000D03*
X133985000Y-85090000D03*
X133985000Y-89535000D03*
X116840000Y-95250000D03*
X130175000Y-73660000D03*
X151130000Y-83820000D03*
X111760042Y-111760000D03*
X151765000Y-113665016D03*
X106680000Y-106680000D03*
X135890000Y-113030020D03*
X122555000Y-107315000D03*
X110490000Y-95885000D03*
X151765000Y-85090000D03*
X107315000Y-102235000D03*
X141605002Y-85090000D03*
X140335000Y-73660000D03*
X161290000Y-93345000D03*
X166370000Y-107950000D03*
X116205000Y-111125000D03*
X153670036Y-85090000D03*
X150495000Y-73660000D03*
X163830000Y-93345020D03*
X174625000Y-107950000D03*
X123190000Y-100965000D03*
X164465000Y-85090000D03*
X160655000Y-73660000D03*
X187325000Y-107950000D03*
X137795000Y-107950000D03*
X174625000Y-85090000D03*
X170815000Y-73660000D03*
X199390000Y-108585000D03*
X178435000Y-85725000D03*
X180975000Y-73025000D03*
X196850000Y-100330000D03*
X195580000Y-93980000D03*
X192405000Y-100330000D03*
X193040000Y-93980000D03*
X199390000Y-113665000D03*
X193040000Y-113665000D03*
X180340000Y-113665000D03*
X167640000Y-113665000D03*
X149860000Y-88900000D03*
X121920000Y-98425000D03*
X127000000Y-98425000D03*
X141605000Y-92710000D03*
X144145000Y-92710000D03*
X168910000Y-91440000D03*
D30*
X182310000Y-81280000D02*
X182310000Y-81850000D01*
X182310000Y-81850000D02*
X181610000Y-82550000D01*
X111760000Y-73980000D02*
X111760000Y-72390000D01*
D31*
X181930000Y-78105000D02*
X181930000Y-80900000D01*
X181930000Y-80900000D02*
X182310000Y-81280000D01*
D30*
X173990000Y-92710000D02*
X178435000Y-97155000D01*
X178435000Y-97155000D02*
X182185000Y-97155000D01*
X182185000Y-97155000D02*
X182310000Y-97280000D01*
X146050000Y-95885000D02*
X146050000Y-102870000D01*
X187325000Y-75565000D02*
X187325000Y-74709020D01*
X187325000Y-74709020D02*
X186910980Y-74295000D01*
D31*
X186910980Y-74295000D02*
X186910980Y-76299020D01*
D30*
X156210000Y-95885000D02*
X146050000Y-95885000D01*
X103505000Y-81915000D02*
X104368599Y-82778599D01*
X104368599Y-82778599D02*
X122300999Y-82778599D01*
X122300999Y-82778599D02*
X124460000Y-84937600D01*
X124460000Y-84937600D02*
X124460000Y-85090000D01*
X128270000Y-90170000D02*
X124460000Y-86360000D01*
X124460000Y-86360000D02*
X124460000Y-85090000D01*
X186690000Y-76520000D02*
X186390000Y-76520000D01*
D31*
X186910980Y-76299020D02*
X186690000Y-76520000D01*
D32*
X196310000Y-81280000D02*
X196310000Y-86900000D01*
X196310000Y-86900000D02*
X195580000Y-87630000D01*
X114300000Y-67945000D02*
X114300000Y-67792600D01*
X114300000Y-67792600D02*
X117322600Y-64770000D01*
X117322600Y-64770000D02*
X187960000Y-64770000D01*
X187960000Y-64770000D02*
X193675000Y-70485000D01*
X193675000Y-76835000D02*
X196310000Y-79470000D01*
X193675000Y-70485000D02*
X193675000Y-76835000D01*
X196310000Y-79470000D02*
X196310000Y-81280000D01*
X194310000Y-81280000D02*
X194310000Y-87630000D01*
X194310000Y-87630000D02*
X195580000Y-88900000D01*
X195580000Y-88900000D02*
X195580000Y-91440000D01*
X195580000Y-91440000D02*
X196850000Y-92710000D01*
X119380000Y-67945000D02*
X119380000Y-67792600D01*
X119380000Y-67792600D02*
X121767600Y-65405000D01*
X121767600Y-65405000D02*
X186690000Y-65405000D01*
X186690000Y-65405000D02*
X192405000Y-71120000D01*
X192405000Y-71120000D02*
X192405000Y-76835000D01*
X192405000Y-76835000D02*
X194310000Y-78740000D01*
X194310000Y-78740000D02*
X194310000Y-81280000D01*
D30*
X119380000Y-80010000D02*
X119380000Y-78105000D01*
X119380000Y-78105000D02*
X111760000Y-70485000D01*
X111760000Y-70485000D02*
X111760000Y-67945000D01*
X119380000Y-95250000D02*
X119380000Y-90439240D01*
X119380000Y-90439240D02*
X119649240Y-90170000D01*
X119649240Y-90170000D02*
X115885000Y-90170000D01*
X115885000Y-90170000D02*
X115570000Y-90485000D01*
X119380000Y-85090000D02*
X119380000Y-89900760D01*
X119380000Y-89900760D02*
X119649240Y-90170000D01*
D32*
X100965000Y-81915000D02*
X97790000Y-85090000D01*
X97790000Y-85090000D02*
X97790000Y-102870000D01*
X97790000Y-102870000D02*
X110490000Y-115570000D01*
X110490000Y-115570000D02*
X143510000Y-115570000D01*
X143510000Y-115570000D02*
X156210000Y-102870000D01*
X153670000Y-102870000D02*
X141605000Y-114935000D01*
X141605000Y-114935000D02*
X111125000Y-114935000D01*
X111125000Y-114935000D02*
X98425000Y-102235000D01*
X98425000Y-102235000D02*
X98425000Y-86995000D01*
X98425000Y-86995000D02*
X100965000Y-84455000D01*
X97155000Y-86149264D02*
X97155000Y-85725000D01*
X97155000Y-103505000D02*
X97155000Y-86149264D01*
X145415000Y-116205000D02*
X109855000Y-116205000D01*
X158750000Y-102870000D02*
X145415000Y-116205000D01*
X109855000Y-116205000D02*
X97155000Y-103505000D01*
X100965000Y-86995000D02*
X99060000Y-88900000D01*
X99060000Y-88900000D02*
X99060000Y-101600000D01*
X99060000Y-101600000D02*
X111760000Y-114300000D01*
X111760000Y-114300000D02*
X139700000Y-114300000D01*
X139700000Y-114300000D02*
X151130000Y-102870000D01*
X96520000Y-104140000D02*
X96520000Y-88689264D01*
X109220000Y-116840000D02*
X96520000Y-104140000D01*
X147320000Y-116840000D02*
X109220000Y-116840000D01*
X96520000Y-88689264D02*
X96520000Y-88265000D01*
X161290000Y-102870000D02*
X147320000Y-116840000D01*
X148590000Y-102870000D02*
X137795000Y-113665000D01*
X137795000Y-113665000D02*
X112097300Y-113665000D01*
X112097300Y-113665000D02*
X99695000Y-101262700D01*
X99695000Y-101262700D02*
X99695000Y-90805000D01*
X99695000Y-90805000D02*
X100965000Y-89535000D01*
X139700000Y-66675000D02*
X148590000Y-66675000D01*
X148590000Y-66675000D02*
X149860000Y-66675000D01*
X148590000Y-87630000D02*
X148590000Y-66675000D01*
X130175000Y-66675000D02*
X139700000Y-66675000D01*
X149860000Y-66675000D02*
X160020000Y-66675000D01*
X160020000Y-66675000D02*
X170180000Y-66675000D01*
X170180000Y-66675000D02*
X180340000Y-66675000D01*
X180340000Y-66675000D02*
X186055000Y-66675000D01*
X154305000Y-89535000D02*
X133985000Y-89535000D01*
X133985000Y-89535000D02*
X130810000Y-89535000D01*
X154305000Y-89535000D02*
X156210000Y-87630000D01*
X130810000Y-89535000D02*
X123190000Y-97155000D01*
X123190000Y-97155000D02*
X118110000Y-97155000D01*
X118110000Y-97155000D02*
X116840000Y-95885000D01*
X116840000Y-95885000D02*
X116840000Y-95250000D01*
X130175000Y-81280000D02*
X133985000Y-85090000D01*
X130175000Y-73660000D02*
X130175000Y-81280000D01*
X151130000Y-87630000D02*
X151130000Y-83820000D01*
X118110000Y-111760000D02*
X111760042Y-111760000D01*
X111760000Y-111760000D02*
X111760042Y-111760000D01*
X106680000Y-106680000D02*
X111760000Y-111760000D01*
X122555000Y-107315000D02*
X118110000Y-111760000D01*
X163830000Y-102870000D02*
X153034984Y-113665016D01*
X153034984Y-113665016D02*
X151765000Y-113665016D01*
X110490000Y-95885000D02*
X106680000Y-99695000D01*
X106680000Y-99695000D02*
X106680000Y-106680000D01*
X130174980Y-107315000D02*
X135890000Y-113030020D01*
X122555000Y-107315000D02*
X130174980Y-107315000D01*
X156845000Y-85725000D02*
X152400000Y-85725000D01*
X152400000Y-85725000D02*
X151765000Y-85090000D01*
X158750000Y-87630000D02*
X156845000Y-85725000D01*
X107315000Y-102235000D02*
X119380000Y-102235000D01*
X131445000Y-90170000D02*
X156210000Y-90170000D01*
X119380000Y-102235000D02*
X131445000Y-90170000D01*
X156210000Y-90170000D02*
X158750000Y-87630000D01*
X140335000Y-73660000D02*
X140335000Y-83819998D01*
X140335000Y-83819998D02*
X141605002Y-85090000D01*
X165100000Y-97155000D02*
X161290000Y-93345000D01*
X165100000Y-106680000D02*
X165100000Y-97155000D01*
X166370000Y-107950000D02*
X165100000Y-106680000D01*
X153670036Y-85090000D02*
X158750000Y-85090000D01*
X158750000Y-85090000D02*
X161290000Y-87630000D01*
X116205000Y-111125000D02*
X116205000Y-106680000D01*
X116205000Y-106680000D02*
X132080000Y-90805000D01*
X132080000Y-90805000D02*
X158115000Y-90805000D01*
X158115000Y-90805000D02*
X161290000Y-87630000D01*
X150495000Y-81914964D02*
X153670036Y-85090000D01*
X150495000Y-73660000D02*
X150495000Y-81914964D01*
X163830000Y-93980000D02*
X163830000Y-93345020D01*
X174625000Y-107950000D02*
X170180000Y-103505000D01*
X170180000Y-103505000D02*
X170180000Y-100330000D01*
X170180000Y-100330000D02*
X163830000Y-93980000D01*
X123190000Y-100965000D02*
X132715000Y-91440000D01*
X160020000Y-91440000D02*
X163830000Y-87630000D01*
X132715000Y-91440000D02*
X160020000Y-91440000D01*
X164465000Y-85090000D02*
X164465000Y-86995000D01*
X164465000Y-86995000D02*
X163830000Y-87630000D01*
X160655000Y-73660000D02*
X160655000Y-81280000D01*
X160655000Y-81280000D02*
X164465000Y-85090000D01*
X171450000Y-87630000D02*
X171450000Y-100330000D01*
X171450000Y-100330000D02*
X172720000Y-101600000D01*
X172720000Y-101600000D02*
X175895000Y-101600000D01*
X175895000Y-101600000D02*
X182245000Y-107950000D01*
X182245000Y-107950000D02*
X187325000Y-107950000D01*
X137795000Y-107950000D02*
X137795000Y-97790000D01*
X137795000Y-97790000D02*
X143510000Y-92075000D01*
X143510000Y-92075000D02*
X167005000Y-92075000D01*
X167005000Y-92075000D02*
X170650001Y-88429999D01*
X170650001Y-88429999D02*
X171450000Y-87630000D01*
X170815000Y-73660000D02*
X170815000Y-81280000D01*
X170815000Y-81280000D02*
X174625000Y-85090000D01*
X171450000Y-87630000D02*
X173990000Y-85090000D01*
X173990000Y-85090000D02*
X174625000Y-85090000D01*
X173990000Y-87630000D02*
X172085000Y-89535000D01*
X172085000Y-89535000D02*
X172085000Y-98425000D01*
X174636592Y-99060000D02*
X182891592Y-107315000D01*
X172085000Y-98425000D02*
X172720000Y-99060000D01*
X172720000Y-99060000D02*
X174636592Y-99060000D01*
X182891592Y-107315000D02*
X198120000Y-107315000D01*
X198120000Y-107315000D02*
X199390000Y-108585000D01*
X180975000Y-76835000D02*
X178435000Y-79375000D01*
X178435000Y-79375000D02*
X178435000Y-85725000D01*
X180975000Y-73025000D02*
X180975000Y-76835000D01*
X111760000Y-75880000D02*
X111760000Y-78613000D01*
X111760000Y-78613000D02*
X111379000Y-78994000D01*
X116840000Y-85090000D02*
X116840000Y-87615000D01*
X116840000Y-87615000D02*
X115870000Y-88585000D01*
X115870000Y-88585000D02*
X115570000Y-88585000D01*
X189009020Y-74295000D02*
X189009020Y-76299020D01*
X189009020Y-76299020D02*
X189230000Y-76520000D01*
X196310000Y-97280000D02*
X196310000Y-94710000D01*
X196310000Y-94710000D02*
X195580000Y-93980000D01*
X196310000Y-97280000D02*
X196310000Y-99790000D01*
X196310000Y-99790000D02*
X196850000Y-100330000D01*
X192310000Y-97280000D02*
X192310000Y-100235000D01*
X192310000Y-100235000D02*
X192405000Y-100330000D01*
X193040000Y-93980000D02*
X192310000Y-94710000D01*
X192310000Y-94710000D02*
X192310000Y-97280000D01*
X186310000Y-81280000D02*
X186310000Y-81930000D01*
X190500000Y-86120000D02*
X190500000Y-91440000D01*
X186310000Y-81930000D02*
X190500000Y-86120000D01*
X190500000Y-91440000D02*
X191770000Y-92710000D01*
X186690000Y-78420000D02*
X186690000Y-80900000D01*
X186690000Y-80900000D02*
X186310000Y-81280000D01*
X186055000Y-81025000D02*
X186310000Y-81280000D01*
X188310000Y-81280000D02*
X188310000Y-81930000D01*
X188310000Y-81930000D02*
X193040000Y-86660000D01*
X193040000Y-86660000D02*
X193040000Y-91440000D01*
X193040000Y-91440000D02*
X194310000Y-92710000D01*
X189230000Y-78420000D02*
X188930000Y-78420000D01*
X188930000Y-78420000D02*
X188310000Y-79040000D01*
X188310000Y-79040000D02*
X188310000Y-81280000D01*
X188595000Y-80995000D02*
X188310000Y-81280000D01*
X183830000Y-78105000D02*
X183830000Y-80800000D01*
X183830000Y-80800000D02*
X184310000Y-81280000D01*
X167640000Y-113665000D02*
X167640000Y-104140000D01*
X167640000Y-104140000D02*
X166370000Y-102870000D01*
X193040000Y-113665000D02*
X199390000Y-113665000D01*
X180340000Y-113665000D02*
X193040000Y-113665000D01*
X167640000Y-113665000D02*
X180340000Y-113665000D01*
X130810000Y-88900000D02*
X149860000Y-88900000D01*
X130810000Y-88900000D02*
X122700051Y-80790051D01*
X122700051Y-80790051D02*
X109582949Y-80790051D01*
X143510000Y-87630000D02*
X143510000Y-74930000D01*
X143510000Y-74930000D02*
X140335000Y-71755000D01*
X140335000Y-71755000D02*
X120497600Y-71755000D01*
X120497600Y-71755000D02*
X116840000Y-68097400D01*
X116840000Y-68097400D02*
X116840000Y-67945000D01*
X146050000Y-87630000D02*
X146050000Y-75565000D01*
X146050000Y-75565000D02*
X140970000Y-70485000D01*
X140970000Y-70485000D02*
X124307600Y-70485000D01*
X124307600Y-70485000D02*
X121920000Y-68097400D01*
X121920000Y-68097400D02*
X121920000Y-67945000D01*
X121920000Y-98425000D02*
X116205000Y-98425000D01*
X116205000Y-98425000D02*
X112395000Y-94615000D01*
X112395000Y-94615000D02*
X103505000Y-94615000D01*
X103505000Y-94615000D02*
X101828599Y-92938599D01*
X101828599Y-92938599D02*
X100965000Y-92075000D01*
X132715000Y-92710000D02*
X127000000Y-98425000D01*
X141605000Y-92710000D02*
X132715000Y-92710000D01*
X158115000Y-92710000D02*
X144145000Y-92710000D01*
X167640000Y-92710000D02*
X158115000Y-92710000D01*
X168910000Y-91440000D02*
X167640000Y-92710000D01*
X103505000Y-92075000D02*
X107315000Y-92075000D01*
M02*
