M48
;DRILL file {KiCad 4.0.1-stable} date 3/24/2016 2:28:33 AM
;FORMAT={-:-/ absolute / inch / decimal}
FMAT,2
INCH,TZ
T1C0.016
T2C0.028
T3C0.039
T4C0.040
T5C0.043
T6C0.087
%
G90
G05
M72
T1
X3.8Y-3.475
X3.825Y-3.375
X4.2Y-4.2
X4.225Y-4.025
X4.35Y-3.775
X4.4Y-2.85
X4.4Y-4.4
X4.575Y-4.375
X4.6Y-3.75
X4.7Y-3.15
X4.8Y-3.875
X4.825Y-4.225
X4.85Y-3.975
X5.Y-3.875
X5.05Y-3.55
X5.125Y-2.625
X5.125Y-2.9
X5.275Y-3.35
X5.275Y-3.525
X5.35Y-4.45
X5.425Y-4.25
X5.5Y-2.625
X5.525Y-2.9
X5.575Y-3.65
X5.575Y-3.35
X5.675Y-3.65
X5.75Y-3.775
X5.9Y-2.625
X5.9Y-3.5
X5.925Y-2.9
X5.95Y-3.3
X5.975Y-3.35
X5.975Y-4.475
X6.05Y-3.35
X6.15Y-3.775
X6.3Y-2.625
X6.325Y-2.9
X6.35Y-3.675
X6.45Y-3.675
X6.475Y-3.35
X6.55Y-4.25
X6.6Y-4.475
X6.65Y-3.6
X6.7Y-2.625
X6.725Y-2.9
X6.875Y-3.35
X6.875Y-4.25
X7.025Y-3.375
X7.1Y-2.625
X7.1Y-4.475
X7.125Y-2.875
X7.15Y-3.25
X7.325Y-2.625
X7.375Y-2.975
X7.375Y-4.25
X7.575Y-3.95
X7.6Y-3.7
X7.6Y-4.475
X7.7Y-3.45
X7.7Y-3.7
X7.75Y-3.95
X7.85Y-4.275
X7.85Y-4.475
T2
X4.7106Y-3.55
X4.7894Y-3.55
T3
X4.3143Y-3.1807
X4.385Y-3.11
T4
X3.975Y-3.225
X3.975Y-3.325
X3.975Y-3.425
X3.975Y-3.525
X3.975Y-3.625
X4.075Y-3.225
X4.075Y-3.325
X4.075Y-3.425
X4.075Y-3.525
X4.075Y-3.625
X4.225Y-3.625
X4.4Y-2.675
X4.5Y-2.675
X4.6Y-2.675
X4.6Y-3.35
X4.7Y-2.675
X4.7Y-3.35
X4.7Y-3.75
X4.8Y-2.675
X4.8Y-3.35
X4.8Y-3.75
X4.9Y-2.675
X4.9Y-3.35
X7.45Y-3.55
X7.45Y-3.65
X7.55Y-3.55
X7.55Y-3.65
X7.65Y-3.55
X7.65Y-3.65
X7.75Y-3.55
X7.75Y-3.65
T5
X5.55Y-3.45
X5.55Y-4.05
X5.65Y-3.45
X5.65Y-3.95
X5.65Y-4.05
X5.75Y-3.45
X5.75Y-4.05
X5.85Y-3.45
X5.85Y-3.95
X5.85Y-4.05
X5.95Y-3.45
X5.95Y-3.95
X5.95Y-4.05
X6.05Y-3.45
X6.05Y-3.95
X6.05Y-4.05
X6.15Y-3.45
X6.15Y-4.05
X6.25Y-3.45
X6.25Y-4.05
X6.35Y-3.45
X6.35Y-4.05
X6.45Y-3.45
X6.45Y-4.05
X6.55Y-3.45
X6.55Y-4.05
X6.65Y-3.45
X6.65Y-4.05
X6.75Y-3.45
X6.75Y-4.05
X6.85Y-3.45
X6.85Y-3.55
X6.85Y-3.65
X6.85Y-3.75
X6.85Y-3.85
X6.85Y-3.95
X6.85Y-4.05
T6
X5.16Y-4.11
X5.392Y-2.995
X6.192Y-2.995
X6.992Y-2.995
X7.23Y-4.11
T0
M30
