G04 #@! TF.FileFunction,Paste,Top*
%FSLAX46Y46*%
G04 Gerber Fmt 4.6, Leading zero omitted, Abs format (unit mm)*
G04 Created by KiCad (PCBNEW 4.0.1-stable) date 3/24/2016 2:28:27 AM*
%MOMM*%
G01*
G04 APERTURE LIST*
%ADD10C,0.100000*%
%ADD11R,1.300000X0.700000*%
%ADD12R,0.508000X0.762000*%
%ADD13R,1.016000X0.508000*%
%ADD14R,0.508000X1.016000*%
G04 APERTURE END LIST*
D10*
D11*
X192405000Y-97475000D03*
X192405000Y-99375000D03*
X196850000Y-97475000D03*
X196850000Y-99375000D03*
D12*
X129794000Y-67818000D03*
X129794000Y-72136000D03*
X137731500Y-113157000D03*
X137731500Y-108839000D03*
X143192500Y-113157000D03*
X143192500Y-108839000D03*
X165354000Y-80518000D03*
X165354000Y-84836000D03*
X139954000Y-67818000D03*
X139954000Y-72136000D03*
X175514000Y-80518000D03*
X175514000Y-84836000D03*
X150114000Y-67818000D03*
X150114000Y-72136000D03*
X185674000Y-80518000D03*
X185674000Y-84836000D03*
X191516000Y-80518000D03*
X191516000Y-84836000D03*
X160274000Y-67818000D03*
X160274000Y-72136000D03*
X180594000Y-67818000D03*
X180594000Y-72136000D03*
X186436000Y-67818000D03*
X186436000Y-72136000D03*
X175133000Y-113157000D03*
X175133000Y-108839000D03*
X179451000Y-113157000D03*
X179451000Y-108839000D03*
X170434000Y-67818000D03*
X170434000Y-72136000D03*
X162433000Y-113157000D03*
X162433000Y-108839000D03*
X166751000Y-113157000D03*
X166751000Y-108839000D03*
X134874000Y-80518000D03*
X134874000Y-84836000D03*
X187833000Y-113157000D03*
X187833000Y-108839000D03*
X192151000Y-113157000D03*
X192151000Y-108839000D03*
X145034000Y-80518000D03*
X145034000Y-84836000D03*
X200533000Y-113157000D03*
X200533000Y-108839000D03*
X204851000Y-113157000D03*
X204851000Y-108839000D03*
X155194000Y-80518000D03*
X155194000Y-84836000D03*
D13*
X111760000Y-95377000D03*
X115824000Y-95377000D03*
X111760000Y-113157000D03*
X115824000Y-113157000D03*
D14*
X104902000Y-106299000D03*
X104902000Y-102235000D03*
X122682000Y-106299000D03*
X122682000Y-102235000D03*
M02*
